<svg xmlns="http://www.w3.org/2000/svg" version="1.0" width="288mm" height="288mm" viewBox="0 0 288 288"><path fill="none" stroke="black" stroke-width="0.1" d="M0,18 C3.6,16.76 9.01,20.41 8.12,16.91 C7.23,13.42 14.22,13.42 11.61,16.91 C9.01,20.41 14.4,16.85 18,18 C21.6,19.15 24.96,19.57 23.94,16.07 C22.92,12.58 29.9,12.58 27.43,16.07 C24.96,19.57 32.4,18.98 36,18 C39.6,17.02 47.24,20.7 44.23,17.2 C41.22,13.71 48.21,13.71 47.72,17.2 C47.24,20.7 50.4,18.18 54,18 C57.6,17.82 62.68,20.09 61.16,16.6 C59.64,13.11 66.62,13.11 64.65,16.6 C62.68,20.09 68.4,17.24 72,18 C75.6,18.76 80.46,15.11 79.91,18.6 C79.35,22.09 86.33,22.09 83.4,18.6 C80.46,15.11 86.4,17.67 90,18 C93.6,18.33 98.86,15.88 97.6,19.37 C96.34,22.87 103.32,22.87 101.09,19.37 C98.86,15.88 104.4,18.51 108,18 C111.6,17.49 115.85,18.46 114.11,14.96 C112.36,11.47 119.35,11.47 117.6,14.96 C115.85,18.46 122.4,18.5 126,18 C129.6,17.5 135.2,19.64 133.82,16.15 C132.43,12.65 139.42,12.65 137.31,16.15 C135.2,19.64 140.4,18.75 144,18 C147.6,17.25 152.93,18.72 150.67,15.22 C148.41,11.73 155.4,11.73 154.16,15.22 C152.93,18.72 158.4,17.91 162,18 C165.6,18.09 172.05,15.54 169.96,19.03 C167.87,22.53 174.85,22.53 173.45,19.03 C172.05,15.54 176.4,18.14 180,18 C183.6,17.86 187.79,18.97 186.23,15.48 C184.66,11.99 191.65,11.99 189.72,15.48 C187.79,18.97 194.4,18.32 198,18 C201.6,17.68 207.55,16.5 205.28,19.99 C203.01,23.48 209.99,23.48 208.77,19.99 C207.55,16.5 212.4,18.48 216,18 C219.6,17.52 225.04,16.19 223.85,19.69 C222.67,23.18 229.65,23.18 227.35,19.69 C225.04,16.19 230.4,17.24 234,18 C237.6,18.76 242.06,18.54 240.79,15.05 C239.52,11.56 246.51,11.56 244.29,15.05 C242.06,18.54 248.4,16.89 252,18 C255.6,19.11 259.14,17.07 258.66,20.56 C258.17,24.06 265.16,24.06 262.15,20.56 C259.14,17.07 266.4,19 270,18 C273.6,17 277.98,15.31 276.49,18.8 C275.01,22.29 281.99,22.29 279.99,18.8 C277.98,15.31 284.4,17.55 288,18 M0,36 C3.6,35.98 7.04,33.89 6.56,37.38 C6.08,40.87 13.06,40.87 10.05,37.38 C7.04,33.89 14.4,35.64 18,36 C21.6,36.36 26.02,33.36 25.55,36.85 C25.07,40.34 32.05,40.34 29.04,36.85 C26.02,33.36 32.4,37.13 36,36 C39.6,34.87 45.11,33.56 43.15,37.05 C41.19,40.54 48.17,40.54 46.64,37.05 C45.11,33.56 50.4,37.22 54,36 C57.6,34.78 62.86,37.98 60.54,34.49 C58.21,31 65.2,31 64.03,34.49 C62.86,37.98 68.4,36.9 72,36 C75.6,35.1 81.04,34.51 78.85,38 C76.66,41.49 83.64,41.49 82.34,38 C81.04,34.51 86.4,35.75 90,36 C93.6,36.25 98.66,37.45 96.43,33.96 C94.2,30.47 101.18,30.47 99.92,33.96 C98.66,37.45 104.4,36.92 108,36 C111.6,35.08 114.51,38.71 114.05,35.22 C113.58,31.73 120.56,31.73 117.54,35.22 C114.51,38.71 122.4,36.54 126,36 C129.6,35.46 135.11,34.53 132.98,38.02 C130.84,41.51 137.82,41.51 136.47,38.02 C135.11,34.53 140.4,34.92 144,36 C147.6,37.08 151.73,34.98 150.9,38.47 C150.08,41.97 157.06,41.97 154.39,38.47 C151.73,34.98 158.4,34.98 162,36 C165.6,37.02 169.49,36.76 168.97,33.27 C168.44,29.78 175.42,29.78 172.46,33.27 C169.49,36.76 176.4,35.1 180,36 C183.6,36.9 188.67,36.84 188.03,33.35 C187.38,29.86 194.37,29.86 191.52,33.35 C188.67,36.84 194.4,36.54 198,36 C201.6,35.46 206.28,33.17 204.47,36.67 C202.65,40.16 209.63,40.16 207.96,36.67 C206.28,33.17 212.4,34.84 216,36 C219.6,37.16 224.43,33.85 222.39,37.34 C220.36,40.83 227.34,40.83 225.88,37.34 C224.43,33.85 230.4,35.34 234,36 C237.6,36.66 242.6,35.11 241.5,38.6 C240.4,42.1 247.38,42.1 244.99,38.6 C242.6,35.11 248.4,35.31 252,36 C255.6,36.69 258.87,36.75 258.42,33.26 C257.96,29.76 264.95,29.76 261.91,33.26 C258.87,36.75 266.4,36.93 270,36 C273.6,35.07 278.65,36.55 277.45,33.06 C276.24,29.57 283.23,29.57 280.94,33.06 C278.65,36.55 284.4,36.96 288,36 M0,54 C3.6,52.91 9.21,56.3 6.36,52.81 C3.51,49.31 10.49,49.31 9.85,52.81 C9.21,56.3 14.4,53.55 18,54 C21.6,54.45 27.03,56.23 26.05,52.74 C25.08,49.24 32.06,49.24 29.55,52.74 C27.03,56.23 32.4,54.16 36,54 C39.6,53.84 45.51,51.65 43.57,55.14 C41.64,58.63 48.63,58.63 47.07,55.14 C45.51,51.65 50.4,53.26 54,54 C57.6,54.74 61.51,57 60.51,53.51 C59.51,50.02 66.49,50.02 64,53.51 C61.51,57 68.4,52.8 72,54 C75.6,55.2 79.39,54.52 78.06,51.03 C76.74,47.53 83.72,47.53 81.56,51.03 C79.39,54.52 86.4,54.66 90,54 C93.6,53.34 100.27,52.25 98.13,55.74 C95.99,59.24 102.97,59.24 101.62,55.74 C100.27,52.25 104.4,54.45 108,54 C111.6,53.55 119.13,54.66 116.21,51.16 C113.3,47.67 120.28,47.67 119.7,51.16 C119.13,54.66 122.4,54.86 126,54 C129.6,53.14 133.09,52.38 132.64,55.87 C132.19,59.36 139.17,59.36 136.13,55.87 C133.09,52.38 140.4,54.44 144,54 C147.6,53.56 153.08,53.56 151.32,57.05 C149.56,60.54 156.55,60.54 154.81,57.05 C153.08,53.56 158.4,53.57 162,54 C165.6,54.43 171.08,51.1 170.01,54.59 C168.93,58.09 175.92,58.09 173.5,54.59 C171.08,51.1 176.4,53.63 180,54 C183.6,54.37 188.81,55.18 188.17,51.69 C187.53,48.19 194.52,48.19 191.66,51.69 C188.81,55.18 194.4,54.48 198,54 C201.6,53.52 205.26,55.49 204.2,52 C203.14,48.51 210.12,48.51 207.69,52 C205.26,55.49 212.4,54.65 216,54 C219.6,53.35 225.75,52.92 223.37,56.41 C220.98,59.9 227.97,59.9 226.86,56.41 C225.75,52.92 230.4,53.54 234,54 C237.6,54.46 243.52,51.93 241.48,55.42 C239.45,58.91 246.43,58.91 244.98,55.42 C243.52,51.93 248.4,54.11 252,54 C255.6,53.89 259.87,51.54 259.11,55.03 C258.35,58.52 265.33,58.52 262.6,55.03 C259.87,51.54 266.4,54.98 270,54 C273.6,53.02 278.87,55.17 276.03,51.68 C273.2,48.19 280.19,48.19 279.53,51.68 C278.87,55.17 284.4,52.92 288,54 M0,72 C3.6,72.68 7.02,69.63 6.4,73.12 C5.77,76.62 12.76,76.62 9.89,73.12 C7.02,69.63 14.4,72.14 18,72 C21.6,71.86 26.51,69.18 24.37,72.68 C22.23,76.17 29.22,76.17 27.86,72.68 C26.51,69.18 32.4,71.73 36,72 C39.6,72.27 44.44,69.03 43.77,72.52 C43.1,76.01 50.09,76.01 47.26,72.52 C44.44,69.03 50.4,72.78 54,72 C57.6,71.22 61.1,71.16 60.47,74.66 C59.84,78.15 66.82,78.15 63.96,74.66 C61.1,71.16 68.4,72.47 72,72 C75.6,71.53 81.57,73.56 79.3,70.07 C77.04,66.57 84.02,66.57 82.8,70.07 C81.57,73.56 86.4,73.01 90,72 C93.6,70.99 100.86,69.2 97.84,72.7 C94.83,76.19 101.81,76.19 101.34,72.7 C100.86,69.2 104.4,70.74 108,72 C111.6,73.26 117.57,73.01 115.48,69.52 C113.39,66.03 120.37,66.03 118.97,69.52 C117.57,73.01 122.4,72.07 126,72 C129.6,71.93 135.33,72.46 133.96,68.97 C132.59,65.47 139.57,65.47 137.45,68.97 C135.33,72.46 140.4,72.35 144,72 C147.6,71.65 153.94,73.96 150.94,70.47 C147.94,66.98 154.93,66.98 154.43,70.47 C153.94,73.96 158.4,71.96 162,72 C165.6,72.04 170.54,72.75 168.67,69.26 C166.8,65.77 173.78,65.77 172.16,69.26 C170.54,72.75 176.4,70.83 180,72 C183.6,73.17 189.36,70.88 186.51,74.38 C183.66,77.87 190.65,77.87 190.01,74.38 C189.36,70.88 194.4,73.03 198,72 C201.6,70.97 206.59,69.27 205.13,72.76 C203.67,76.25 210.65,76.25 208.62,72.76 C206.59,69.27 212.4,71.82 216,72 C219.6,72.18 225.6,69.7 223.9,73.19 C222.2,76.69 229.18,76.69 227.39,73.19 C225.6,69.7 230.4,70.91 234,72 C237.6,73.09 243.39,71.12 241.48,74.61 C239.58,78.11 246.56,78.11 244.97,74.61 C243.39,71.12 248.4,72.74 252,72 C255.6,71.26 260.92,73.85 260.02,70.36 C259.11,66.86 266.09,66.86 263.51,70.36 C260.92,73.85 266.4,73.2 270,72 C273.6,70.8 278.69,70.44 277.77,73.93 C276.84,77.42 283.83,77.42 281.26,73.93 C278.69,70.44 284.4,72.35 288,72 M0,90 C3.6,90.58 10.76,92.71 7.91,89.21 C5.07,85.72 12.05,85.72 11.41,89.21 C10.76,92.71 14.4,90.34 18,90 C21.6,89.66 26.84,91.24 25.83,87.75 C24.82,84.26 31.8,84.26 29.32,87.75 C26.84,91.24 32.4,89.25 36,90 C39.6,90.75 45.49,91.87 42.92,88.38 C40.34,84.89 47.33,84.89 46.41,88.38 C45.49,91.87 50.4,89.7 54,90 C57.6,90.3 64.66,92.59 62.31,89.09 C59.95,85.6 66.94,85.6 65.8,89.09 C64.66,92.59 68.4,88.9 72,90 C75.6,91.1 80.95,90.57 77.97,87.07 C75,83.58 81.98,83.58 81.46,87.07 C80.95,90.57 86.4,90.49 90,90 C93.6,89.51 99.86,92.4 98.4,88.9 C96.94,85.41 103.92,85.41 101.89,88.9 C99.86,92.4 104.4,89.72 108,90 C111.6,90.28 118.49,87.65 116.24,91.15 C113.98,94.64 120.97,94.64 119.73,91.15 C118.49,87.65 122.4,90.45 126,90 C129.6,89.55 134.7,91.32 132.31,87.82 C129.92,84.33 136.91,84.33 135.8,87.82 C134.7,91.32 140.4,89.99 144,90 C147.6,90.01 151.24,87.16 150,90.65 C148.75,94.14 155.74,94.14 153.49,90.65 C151.24,87.16 158.4,90.47 162,90 C165.6,89.53 169.94,92.86 168.12,89.37 C166.31,85.88 173.29,85.88 171.62,89.37 C169.94,92.86 176.4,88.89 180,90 C183.6,91.11 189.41,88.13 186.76,91.63 C184.1,95.12 191.09,95.12 190.25,91.63 C189.41,88.13 194.4,89.44 198,90 C201.6,90.56 208.26,92.3 206.37,88.81 C204.49,85.31 211.47,85.31 209.87,88.81 C208.26,92.3 212.4,91.12 216,90 C219.6,88.88 224.43,87.44 223.09,90.93 C221.75,94.43 228.74,94.43 226.58,90.93 C224.43,87.44 230.4,89.79 234,90 C237.6,90.21 243.07,88.52 240.8,92.01 C238.52,95.51 245.5,95.51 244.29,92.01 C243.07,88.52 248.4,90.02 252,90 C255.6,89.98 261.5,87.03 259.62,90.52 C257.74,94.01 264.73,94.01 263.11,90.52 C261.5,87.03 266.4,91.26 270,90 C273.6,88.74 279.35,88.07 276.92,91.56 C274.48,95.05 281.47,95.05 280.41,91.56 C279.35,88.07 284.4,90.33 288,90 M0,108 C3.6,106.73 7.89,110.97 6.18,107.48 C4.47,103.99 11.45,103.99 9.67,107.48 C7.89,110.97 14.4,108.33 18,108 C21.6,107.67 27.42,105.09 25.88,108.58 C24.34,112.08 31.32,112.08 29.37,108.58 C27.42,105.09 32.4,108.81 36,108 C39.6,107.19 45.87,106.92 43.11,110.41 C40.35,113.9 47.33,113.9 46.6,110.41 C45.87,106.92 50.4,107.37 54,108 C57.6,108.63 63.16,110.81 60.77,107.31 C58.38,103.82 65.36,103.82 64.26,107.31 C63.16,110.81 68.4,108.86 72,108 C75.6,107.14 82.2,105.96 80.55,109.45 C78.89,112.94 85.88,112.94 84.04,109.45 C82.2,105.96 86.4,107.33 90,108 C93.6,108.67 99.55,107.51 97.77,111 C95.98,114.49 102.96,114.49 101.26,111 C99.55,107.51 104.4,109.3 108,108 C111.6,106.7 117.73,108.63 115.55,105.14 C113.38,101.65 120.36,101.65 119.04,105.14 C117.73,108.63 122.4,108.42 126,108 C129.6,107.58 134.02,106.94 131.98,110.43 C129.95,113.93 136.93,113.93 135.47,110.43 C134.02,106.94 140.4,108.28 144,108 C147.6,107.72 152.41,109.32 150.05,105.83 C147.69,102.34 154.67,102.34 153.54,105.83 C152.41,109.32 158.4,108.94 162,108 C165.6,107.06 170.81,106.22 170.12,109.71 C169.43,113.21 176.41,113.21 173.61,109.71 C170.81,106.22 176.4,107.08 180,108 C183.6,108.92 187.39,108.78 186.47,105.29 C185.54,101.8 192.53,101.8 189.96,105.29 C187.39,108.78 194.4,107.79 198,108 C201.6,108.21 206.35,108.8 204.86,105.31 C203.37,101.82 210.35,101.82 208.35,105.31 C206.35,108.8 212.4,109.28 216,108 C219.6,106.72 225.62,110.76 224.27,107.27 C222.93,103.77 229.91,103.77 227.77,107.27 C225.62,110.76 230.4,108.74 234,108 C237.6,107.26 244.06,109.75 241.67,106.26 C239.29,102.77 246.27,102.77 245.16,106.26 C244.06,109.75 248.4,107.75 252,108 C255.6,108.25 259.72,106.9 258.33,110.4 C256.93,113.89 263.91,113.89 261.82,110.4 C259.72,106.9 266.4,107.1 270,108 C273.6,108.9 277.52,109.32 276.62,105.82 C275.72,102.33 282.71,102.33 280.12,105.82 C277.52,109.32 284.4,108.02 288,108 M0,126 C3.6,125.58 7.18,123.48 6.73,126.97 C6.27,130.47 13.26,130.47 10.22,126.97 C7.18,123.48 14.4,124.77 18,126 C21.6,127.23 25.87,128.69 24.73,125.19 C23.59,121.7 30.57,121.7 28.22,125.19 C25.87,128.69 32.4,126.53 36,126 C39.6,125.47 44.76,124.43 43.13,127.92 C41.5,131.41 48.49,131.41 46.63,127.92 C44.76,124.43 50.4,124.89 54,126 C57.6,127.11 62.37,128.43 60.74,124.94 C59.11,121.45 66.09,121.45 64.23,124.94 C62.37,128.43 68.4,125.99 72,126 C75.6,126.01 83.07,124.72 80.39,128.21 C77.71,131.7 84.69,131.7 83.88,128.21 C83.07,124.72 86.4,125.38 90,126 C93.6,126.62 99.33,125.33 98.17,128.82 C97.01,132.31 103.99,132.31 101.66,128.82 C99.33,125.33 104.4,127.26 108,126 C111.6,124.74 116.71,127.15 116.08,123.66 C115.44,120.17 122.43,120.17 119.57,123.66 C116.71,127.15 122.4,124.86 126,126 C129.6,127.14 135.28,125.34 134.26,128.83 C133.23,132.32 140.21,132.32 137.75,128.83 C135.28,125.34 140.4,125.5 144,126 C147.6,126.5 153.65,128.49 150.89,124.99 C148.13,121.5 155.12,121.5 154.39,124.99 C153.65,128.49 158.4,125.32 162,126 C165.6,126.68 172.4,128.97 170.36,125.48 C168.32,121.99 175.3,121.99 173.85,125.48 C172.4,128.97 176.4,125.04 180,126 C183.6,126.96 188.44,124.42 187.23,127.91 C186.02,131.4 193.01,131.4 190.72,127.91 C188.44,124.42 194.4,126.58 198,126 C201.6,125.42 207.48,126.53 204.57,123.04 C201.66,119.55 208.65,119.55 208.06,123.04 C207.48,126.53 212.4,127.29 216,126 C219.6,124.71 225.95,126.64 222.9,123.15 C219.85,119.66 226.84,119.66 226.39,123.15 C225.95,126.64 230.4,125.1 234,126 C237.6,126.9 242.81,129 241.76,125.51 C240.7,122.02 247.69,122.02 245.25,125.51 C242.81,129 248.4,126.11 252,126 C255.6,125.89 259.72,127.07 258.13,123.58 C256.54,120.09 263.52,120.09 261.62,123.58 C259.72,127.07 266.4,126.88 270,126 C273.6,125.12 279.67,124.15 276.87,127.65 C274.07,131.14 281.05,131.14 280.36,127.65 C279.67,124.15 284.4,126.37 288,126 M0,144 C3.6,144.23 10.92,143.53 7.94,147.02 C4.96,150.51 11.95,150.51 11.43,147.02 C10.92,143.53 14.4,143.36 18,144 C21.6,144.64 26.73,141.69 25.36,145.18 C23.99,148.67 30.98,148.67 28.85,145.18 C26.73,141.69 32.4,143.29 36,144 C39.6,144.71 44.54,146.93 42.31,143.44 C40.08,139.95 47.06,139.95 45.8,143.44 C44.54,146.93 50.4,143.61 54,144 C57.6,144.39 63.31,141.19 62.41,144.68 C61.51,148.17 68.49,148.17 65.9,144.68 C63.31,141.19 68.4,143.7 72,144 C75.6,144.3 79.92,141.54 79.04,145.03 C78.15,148.52 85.14,148.52 82.53,145.03 C79.92,141.54 86.4,143.23 90,144 C93.6,144.77 100.58,142.25 97.52,145.74 C94.46,149.23 101.44,149.23 101.01,145.74 C100.58,142.25 104.4,142.84 108,144 C111.6,145.16 116.02,146.05 115.23,142.56 C114.44,139.06 121.43,139.06 118.73,142.56 C116.02,146.05 122.4,145.1 126,144 C129.6,142.9 134.98,145.69 132.22,142.19 C129.46,138.7 136.44,138.7 135.71,142.19 C134.98,145.69 140.4,143.33 144,144 C147.6,144.67 152.42,145.35 150.66,141.86 C148.9,138.36 155.88,138.36 154.15,141.86 C152.42,145.35 158.4,144.15 162,144 C165.6,143.85 170.8,141.25 169.88,144.74 C168.97,148.23 175.95,148.23 173.37,144.74 C170.8,141.25 176.4,145.17 180,144 C183.6,142.83 189.76,146.22 188.29,142.73 C186.82,139.24 193.8,139.24 191.78,142.73 C189.76,146.22 194.4,145 198,144 C201.6,143 207.25,145.31 204.6,141.82 C201.96,138.33 208.94,138.33 208.1,141.82 C207.25,145.31 212.4,144.77 216,144 C219.6,143.23 225.2,141.07 224.01,144.56 C222.82,148.05 229.81,148.05 227.5,144.56 C225.2,141.07 230.4,144.9 234,144 C237.6,143.1 242.53,145.07 241.65,141.58 C240.77,138.09 247.75,138.09 245.14,141.58 C242.53,145.07 248.4,143.42 252,144 C255.6,144.58 262.31,141.22 259.65,144.71 C256.98,148.2 263.96,148.2 263.14,144.71 C262.31,141.22 266.4,144.83 270,144 C273.6,143.17 280.54,141.25 277.6,144.75 C274.67,148.24 281.65,148.24 281.09,144.75 C280.54,141.25 284.4,144 288,144 M0,162 C3.6,160.87 9.5,160.25 7.49,163.74 C5.47,167.23 12.46,167.23 10.98,163.74 C9.5,160.25 14.4,160.88 18,162 C21.6,163.12 26.98,160.82 25.7,164.31 C24.42,167.81 31.4,167.81 29.19,164.31 C26.98,160.82 32.4,162.56 36,162 C39.6,161.44 42.85,164.13 42,160.64 C41.15,157.15 48.13,157.15 45.49,160.64 C42.85,164.13 50.4,162.54 54,162 C57.6,161.46 63.53,164.96 62.24,161.47 C60.94,157.97 67.93,157.97 65.73,161.47 C63.53,164.96 68.4,163.2 72,162 C75.6,160.8 79.26,159.96 78.13,163.45 C77,166.94 83.99,166.94 81.62,163.45 C79.26,159.96 86.4,161 90,162 C93.6,163 99.43,164.52 97.32,161.03 C95.21,157.54 102.19,157.54 100.81,161.03 C99.43,164.52 104.4,160.77 108,162 C111.6,163.23 116.07,164.3 115.03,160.81 C113.99,157.32 120.98,157.32 118.52,160.81 C116.07,164.3 122.4,160.88 126,162 C129.6,163.12 132.47,159.28 131.96,162.77 C131.45,166.27 138.43,166.27 135.45,162.77 C132.47,159.28 140.4,162.92 144,162 C147.6,161.08 152.91,161.21 150.62,164.7 C148.33,168.19 155.31,168.19 154.11,164.7 C152.91,161.21 158.4,162.13 162,162 C165.6,161.87 169.79,163.37 169.25,159.88 C168.71,156.38 175.69,156.38 172.74,159.88 C169.79,163.37 176.4,162.91 180,162 C183.6,161.09 189.16,164.74 186.71,161.25 C184.26,157.76 191.24,157.76 190.2,161.25 C189.16,164.74 194.4,162.29 198,162 C201.6,161.71 206.12,159.53 205.33,163.02 C204.54,166.52 211.52,166.52 208.82,163.02 C206.12,159.53 212.4,161.75 216,162 C219.6,162.25 226.44,163.18 223.87,159.69 C221.31,156.2 228.29,156.2 227.36,159.69 C226.44,163.18 230.4,162.22 234,162 C237.6,161.78 242.21,162.98 240.06,159.48 C237.92,155.99 244.91,155.99 243.56,159.48 C242.21,162.98 248.4,161.57 252,162 C255.6,162.43 261.69,159.93 259.92,163.42 C258.15,166.91 265.14,166.91 263.42,163.42 C261.69,159.93 266.4,162.04 270,162 C273.6,161.96 279.7,162.82 278.52,159.33 C277.33,155.84 284.31,155.84 282.01,159.33 C279.7,162.82 284.4,163.31 288,162 M0,180 C3.6,179.34 9.35,180.92 7.55,177.42 C5.76,173.93 12.74,173.93 11.05,177.42 C9.35,180.92 14.4,180.18 18,180 C21.6,179.82 26.7,177.14 25.78,180.63 C24.86,184.12 31.85,184.12 29.27,180.63 C26.7,177.14 32.4,180.31 36,180 C39.6,179.69 44.69,178.54 42.18,182.03 C39.66,185.52 46.65,185.52 45.67,182.03 C44.69,178.54 50.4,180.33 54,180 C57.6,179.67 64.03,182.56 61.87,179.07 C59.71,175.58 66.7,175.58 65.36,179.07 C64.03,182.56 68.4,180.42 72,180 C75.6,179.58 79.17,179.08 78.06,182.57 C76.94,186.07 83.93,186.07 81.55,182.57 C79.17,179.08 86.4,180.96 90,180 C93.6,179.04 97.55,179.32 96.61,182.81 C95.66,186.3 102.64,186.3 100.1,182.81 C97.55,179.32 104.4,179.61 108,180 C111.6,180.39 117.25,180.76 114.8,177.27 C112.36,173.78 119.34,173.78 118.3,177.27 C117.25,180.76 122.4,179.11 126,180 C129.6,180.89 136.45,183.04 133.87,179.55 C131.28,176.05 138.27,176.05 137.36,179.55 C136.45,183.04 140.4,179.84 144,180 C147.6,180.16 154.13,177.87 151.58,181.36 C149.04,184.85 156.02,184.85 155.08,181.36 C154.13,177.87 158.4,178.89 162,180 C165.6,181.11 171.5,182.37 170.31,178.88 C169.11,175.39 176.1,175.39 173.8,178.88 C171.5,182.37 176.4,180.87 180,180 C183.6,179.13 190.59,177.33 188.47,180.82 C186.36,184.31 193.35,184.31 191.97,180.82 C190.59,177.33 194.4,179.73 198,180 C201.6,180.27 207.84,183.06 205.75,179.56 C203.66,176.07 210.65,176.07 209.25,179.56 C207.84,183.06 212.4,180.79 216,180 C219.6,179.21 227.19,178.29 224.39,181.78 C221.59,185.27 228.57,185.27 227.88,181.78 C227.19,178.29 230.4,180.92 234,180 C237.6,179.08 244.35,181.33 241.58,177.84 C238.81,174.35 245.79,174.35 245.07,177.84 C244.35,181.33 248.4,180.47 252,180 C255.6,179.53 261.69,182 258.7,178.51 C255.7,175.02 262.69,175.02 262.19,178.51 C261.69,182 266.4,180.11 270,180 C273.6,179.89 278.57,178.25 276.03,181.74 C273.48,185.24 280.47,185.24 279.52,181.74 C278.57,178.25 284.4,179.8 288,180 M0,198 C3.6,199.12 9.75,195.15 7.17,198.64 C4.59,202.14 11.57,202.14 10.66,198.64 C9.75,195.15 14.4,198.68 18,198 C21.6,197.32 25.31,199.14 24.1,195.65 C22.88,192.16 29.86,192.16 27.59,195.65 C25.31,199.14 32.4,197.13 36,198 C39.6,198.87 44.82,198.88 42.72,195.39 C40.63,191.9 47.61,191.9 46.22,195.39 C44.82,198.88 50.4,197.5 54,198 C57.6,198.5 61.88,198.44 61.3,194.95 C60.72,191.46 67.7,191.46 64.79,194.95 C61.88,198.44 68.4,197.61 72,198 C75.6,198.39 81.43,196.48 79.14,199.97 C76.85,203.47 83.84,203.47 82.64,199.97 C81.43,196.48 86.4,198.78 90,198 C93.6,197.22 98.69,199.95 96.37,196.46 C94.05,192.97 101.04,192.97 99.86,196.46 C98.69,199.95 104.4,197.29 108,198 C111.6,198.71 116.04,198.77 115.54,195.28 C115.04,191.79 122.03,191.79 119.03,195.28 C116.04,198.77 122.4,199.26 126,198 C129.6,196.74 137.07,200.23 134.1,196.74 C131.13,193.25 138.12,193.25 137.6,196.74 C137.07,200.23 140.4,198.2 144,198 C147.6,197.8 152.02,199.81 150.27,196.32 C148.52,192.82 155.51,192.82 153.76,196.32 C152.02,199.81 158.4,197 162,198 C165.6,199 171.22,200.74 169.89,197.25 C168.56,193.76 175.55,193.76 173.38,197.25 C171.22,200.74 176.4,199.19 180,198 C183.6,196.81 188.77,200.14 186.5,196.65 C184.23,193.16 191.22,193.16 189.99,196.65 C188.77,200.14 194.4,198.49 198,198 C201.6,197.51 207.22,198.66 205.04,195.17 C202.87,191.67 209.85,191.67 208.53,195.17 C207.22,198.66 212.4,198.72 216,198 C219.6,197.28 223.98,196.79 222.63,200.28 C221.28,203.77 228.27,203.77 226.12,200.28 C223.98,196.79 230.4,197.78 234,198 C237.6,198.22 242.26,195.03 241.07,198.53 C239.87,202.02 246.86,202.02 244.56,198.53 C242.26,195.03 248.4,196.83 252,198 C255.6,199.17 261.33,199.5 260.08,196 C258.83,192.51 265.82,192.51 263.57,196 C261.33,199.5 266.4,198.55 270,198 C273.6,197.45 281.02,194.97 278.34,198.46 C275.66,201.95 282.64,201.95 281.83,198.46 C281.02,194.97 284.4,199.13 288,198 M0,216 C3.6,217.12 10.82,217.78 8.23,214.28 C5.64,210.79 12.62,210.79 11.72,214.28 C10.82,217.78 14.4,217.02 18,216 C21.6,214.98 26.75,216.47 25.53,212.97 C24.31,209.48 31.3,209.48 29.02,212.97 C26.75,216.47 32.4,215.58 36,216 C39.6,216.42 44.71,214.1 43.46,217.59 C42.21,221.09 49.19,221.09 46.95,217.59 C44.71,214.1 50.4,215.08 54,216 C57.6,216.92 64.35,218.26 61.69,214.77 C59.03,211.28 66.02,211.28 65.19,214.77 C64.35,218.26 68.4,214.84 72,216 C75.6,217.16 80.44,217.57 78.08,214.07 C75.73,210.58 82.72,210.58 81.58,214.07 C80.44,217.57 86.4,216.35 90,216 C93.6,215.65 98.21,218.93 96.08,215.43 C93.94,211.94 100.93,211.94 99.57,215.43 C98.21,218.93 104.4,215.86 108,216 C111.6,216.14 118.88,216.78 116.22,213.29 C113.56,209.8 120.54,209.8 119.71,213.29 C118.88,216.78 122.4,215.68 126,216 C129.6,216.32 135.97,214.44 133.43,217.93 C130.88,221.42 137.87,221.42 136.92,217.93 C135.97,214.44 140.4,215.09 144,216 C147.6,216.91 152.45,218.22 150.15,214.73 C147.85,211.24 154.83,211.24 153.64,214.73 C152.45,218.22 158.4,216.9 162,216 C165.6,215.1 168.99,214.56 167.96,218.05 C166.92,221.54 173.9,221.54 171.45,218.05 C168.99,214.56 176.4,215.01 180,216 C183.6,216.99 188.14,217.07 187.41,213.58 C186.68,210.09 193.67,210.09 190.9,213.58 C188.14,217.07 194.4,216.76 198,216 C201.6,215.24 209.32,214.4 206.27,217.9 C203.22,221.39 210.21,221.39 209.76,217.9 C209.32,214.4 212.4,216.37 216,216 C219.6,215.63 225.12,218.42 222.1,214.93 C219.09,211.43 226.08,211.43 225.6,214.93 C225.12,218.42 230.4,215.24 234,216 C237.6,216.76 243.84,217.67 242.38,214.18 C240.92,210.69 247.9,210.69 245.87,214.18 C243.84,217.67 248.4,216.16 252,216 C255.6,215.84 262.57,215.44 260.35,218.93 C258.12,222.42 265.11,222.42 263.84,218.93 C262.57,215.44 266.4,216.48 270,216 C273.6,215.52 277.67,214.04 277.15,217.54 C276.63,221.03 283.61,221.03 280.64,217.54 C277.67,214.04 284.4,216.09 288,216 M0,234 C3.6,232.99 8.29,236.6 7.17,233.11 C6.05,229.62 13.03,229.62 10.66,233.11 C8.29,236.6 14.4,234.15 18,234 C21.6,233.85 27.35,233.11 24.33,236.6 C21.31,240.09 28.29,240.09 27.82,236.6 C27.35,233.11 32.4,234.56 36,234 C39.6,233.44 45.13,231.28 43.55,234.77 C41.98,238.26 48.96,238.26 47.05,234.77 C45.13,231.28 50.4,234.29 54,234 C57.6,233.71 65.41,231.34 62.4,234.83 C59.38,238.33 66.37,238.33 65.89,234.83 C65.41,231.34 68.4,234.08 72,234 C75.6,233.92 80.65,231.36 78.79,234.85 C76.92,238.35 83.91,238.35 82.28,234.85 C80.65,231.36 86.4,234.12 90,234 C93.6,233.88 98.2,232.01 97.24,235.5 C96.27,239 103.25,239 100.73,235.5 C98.2,232.01 104.4,234.4 108,234 C111.6,233.6 117.29,234.68 114.61,231.19 C111.94,227.7 118.92,227.7 118.1,231.19 C117.29,234.68 122.4,235.27 126,234 C129.6,232.73 134.68,236.59 132.43,233.09 C130.19,229.6 137.17,229.6 135.93,233.09 C134.68,236.59 140.4,233.89 144,234 C147.6,234.11 152,232.1 150.49,235.59 C148.98,239.08 155.96,239.08 153.98,235.59 C152,232.1 158.4,234.23 162,234 C165.6,233.77 172.86,231.48 170.32,234.97 C167.77,238.47 174.75,238.47 173.81,234.97 C172.86,231.48 176.4,234.49 180,234 C183.6,233.51 189.14,237.04 187.66,233.55 C186.17,230.06 193.15,230.06 191.15,233.55 C189.14,237.04 194.4,234.5 198,234 C201.6,233.5 206.15,232.1 204.22,235.59 C202.29,239.08 209.28,239.08 207.72,235.59 C206.15,232.1 212.4,233.35 216,234 C219.6,234.65 224.67,235.99 222.3,232.5 C219.93,229.01 226.91,229.01 225.79,232.5 C224.67,235.99 230.4,234.32 234,234 C237.6,233.68 241.73,236.1 240.03,232.61 C238.34,229.12 245.32,229.12 243.52,232.61 C241.73,236.1 248.4,233.6 252,234 C255.6,234.4 260.34,235.74 259.22,232.24 C258.11,228.75 265.09,228.75 262.72,232.24 C260.34,235.74 266.4,232.89 270,234 C273.6,235.11 278.32,231.46 276.6,234.95 C274.89,238.44 281.87,238.44 280.1,234.95 C278.32,231.46 284.4,233.76 288,234 M0,252 C3.6,251.67 10.43,251.5 7.83,254.99 C5.23,258.48 12.21,258.48 11.32,254.99 C10.43,251.5 14.4,251.46 18,252 C21.6,252.54 26.13,254.88 24.23,251.38 C22.32,247.89 29.31,247.89 27.72,251.38 C26.13,254.88 32.4,251.72 36,252 C39.6,252.28 46.34,254.01 43.44,250.52 C40.55,247.02 47.53,247.02 46.94,250.52 C46.34,254.01 50.4,252.78 54,252 C57.6,251.22 62.35,253.5 61.86,250.01 C61.38,246.52 68.36,246.52 65.36,250.01 C62.35,253.5 68.4,251.66 72,252 C75.6,252.34 82.05,249.1 79.8,252.59 C77.55,256.09 84.53,256.09 83.29,252.59 C82.05,249.1 86.4,251.69 90,252 C93.6,252.31 100.75,249.09 97.99,252.58 C95.24,256.08 102.22,256.08 101.48,252.58 C100.75,249.09 104.4,252.34 108,252 C111.6,251.66 118.76,253.26 115.9,249.76 C113.04,246.27 120.02,246.27 119.39,249.76 C118.76,253.26 122.4,251.4 126,252 C129.6,252.6 136.82,251.04 134.09,254.54 C131.36,258.03 138.34,258.03 137.58,254.54 C136.82,251.04 140.4,252.03 144,252 C147.6,251.97 152.51,252.51 151.39,249.02 C150.27,245.53 157.25,245.53 154.88,249.02 C152.51,252.51 158.4,253.11 162,252 C165.6,250.89 171.5,254.05 170.31,250.56 C169.12,247.07 176.11,247.07 173.81,250.56 C171.5,254.05 176.4,252.3 180,252 C183.6,251.7 189.27,249.31 187.05,252.8 C184.83,256.29 191.81,256.29 190.54,252.8 C189.27,249.31 194.4,251.91 198,252 C201.6,252.09 206.53,251.18 204.88,254.67 C203.24,258.16 210.23,258.16 208.38,254.67 C206.53,251.18 212.4,252.42 216,252 C219.6,251.58 224.61,249.28 222.44,252.77 C220.27,256.26 227.26,256.26 225.93,252.77 C224.61,249.28 230.4,250.85 234,252 C237.6,253.15 242.01,250.55 241.13,254.04 C240.26,257.53 247.25,257.53 244.63,254.04 C242.01,250.55 248.4,251.35 252,252 C255.6,252.65 262.36,254.68 259.89,251.18 C257.42,247.69 264.41,247.69 263.38,251.18 C262.36,254.68 266.4,252.45 270,252 C273.6,251.55 277.35,249.25 276.03,252.74 C274.72,256.23 281.7,256.23 279.53,252.74 C277.35,249.25 284.4,251.63 288,252 M0,270 C3.6,270.62 8.98,272.16 6.19,268.67 C3.41,265.18 10.39,265.18 9.69,268.67 C8.98,272.16 14.4,270.24 18,270 C21.6,269.76 28.1,271.62 26.13,268.13 C24.16,264.63 31.14,264.63 29.62,268.13 C28.1,271.62 32.4,269.24 36,270 C39.6,270.76 45.11,270.94 44.22,267.45 C43.33,263.96 50.32,263.96 47.71,267.45 C45.11,270.94 50.4,270.83 54,270 C57.6,269.17 64.14,270.71 62.4,267.22 C60.67,263.73 67.65,263.73 65.89,267.22 C64.14,270.71 68.4,268.71 72,270 C75.6,271.29 79.19,268 78.65,271.49 C78.1,274.98 85.08,274.98 82.14,271.49 C79.19,268 86.4,270.07 90,270 C93.6,269.93 99.18,272.11 96.89,268.62 C94.61,265.13 101.59,265.13 100.38,268.62 C99.18,272.11 104.4,269.36 108,270 C111.6,270.64 117.65,268.97 116.24,272.46 C114.83,275.95 121.81,275.95 119.73,272.46 C117.65,268.97 122.4,268.74 126,270 C129.6,271.26 134.82,272.82 132.14,269.33 C129.47,265.84 136.45,265.84 135.63,269.33 C134.82,272.82 140.4,270.46 144,270 C147.6,269.54 153.66,267.74 152.37,271.23 C151.08,274.73 158.07,274.73 155.86,271.23 C153.66,267.74 158.4,269.4 162,270 C165.6,270.6 172.22,269.24 170.41,272.73 C168.61,276.22 175.59,276.22 173.9,272.73 C172.22,269.24 176.4,269.11 180,270 C183.6,270.89 187.97,270.99 186.92,267.5 C185.87,264.01 192.86,264.01 190.41,267.5 C187.97,270.99 194.4,270.6 198,270 C201.6,269.4 207.95,268.28 205.21,271.77 C202.47,275.26 209.46,275.26 208.71,271.77 C207.95,268.28 212.4,269.75 216,270 C219.6,270.25 225.44,273.02 222.54,269.53 C219.63,266.04 226.62,266.04 226.03,269.53 C225.44,273.02 230.4,270.31 234,270 C237.6,269.69 241.46,268.14 240.36,271.63 C239.27,275.13 246.26,275.13 243.86,271.63 C241.46,268.14 248.4,270.36 252,270 C255.6,269.64 260.24,271.91 259.54,268.42 C258.84,264.93 265.83,264.93 263.03,268.42 C260.24,271.91 266.4,269.37 270,270 C273.6,270.63 278.63,271.68 276.39,268.19 C274.15,264.7 281.13,264.7 279.88,268.19 C278.63,271.68 284.4,270.11 288,270 M18,0 C17.79,3.6 20.31,7.82 16.82,6.69 C13.32,5.57 13.32,12.55 16.82,10.19 C20.31,7.82 16.94,14.4 18,18 C19.06,21.6 20.19,26.02 16.69,24.66 C13.2,23.3 13.2,30.28 16.69,28.15 C20.19,26.02 17.14,32.4 18,36 C18.86,39.6 18.68,45.96 15.19,44.05 C11.7,42.15 11.7,49.13 15.19,47.54 C18.68,45.96 18.12,50.4 18,54 C17.88,57.6 15.3,63.47 18.79,61.09 C22.28,58.71 22.28,65.69 18.79,64.58 C15.3,63.47 18.43,68.4 18,72 C17.57,75.6 19.75,81.9 16.26,80.53 C12.76,79.17 12.76,86.15 16.26,84.02 C19.75,81.9 18.29,86.4 18,90 C17.71,93.6 19.39,100.18 15.9,97.51 C12.41,94.84 12.41,101.82 15.9,101 C19.39,100.18 19.26,104.4 18,108 C16.74,111.6 20.96,118.5 17.47,116.17 C13.98,113.84 13.98,120.82 17.47,119.66 C20.96,118.5 18.02,122.4 18,126 C17.98,129.6 19.22,135.13 15.73,132.18 C12.24,129.23 12.24,136.22 15.73,135.67 C19.22,135.13 17.71,140.4 18,144 C18.29,147.6 18.7,153.78 15.21,151.13 C11.71,148.47 11.71,155.45 15.21,154.62 C18.7,153.78 19.11,158.4 18,162 C16.89,165.6 19.62,171.15 16.12,170.04 C12.63,168.93 12.63,175.92 16.12,173.54 C19.62,171.15 16.96,176.4 18,180 C19.04,183.6 20.48,189.53 16.99,186.81 C13.5,184.09 13.5,191.07 16.99,190.3 C20.48,189.53 18.81,194.4 18,198 C17.19,201.6 20.93,207.8 17.44,205.63 C13.95,203.45 13.95,210.43 17.44,209.12 C20.93,207.8 19.27,212.4 18,216 C16.73,219.6 20.61,223.55 17.12,222.56 C13.63,221.57 13.63,228.55 17.12,226.05 C20.61,223.55 18.99,230.4 18,234 C17.01,237.6 17.32,242.3 20.81,241.48 C24.31,240.66 24.31,247.65 20.81,244.97 C17.32,242.3 19.03,248.4 18,252 C16.97,255.6 20.83,261.43 17.34,259.38 C13.84,257.32 13.84,264.3 17.34,262.87 C20.83,261.43 17.43,266.4 18,270 C18.57,273.6 15.9,279.02 19.39,276.77 C22.88,274.53 22.88,281.52 19.39,280.27 C15.9,279.02 18.13,284.4 18,288 M36,0 C36.41,3.6 34.28,7.5 37.77,6.61 C41.26,5.72 41.26,12.7 37.77,10.1 C34.28,7.5 36.69,14.4 36,18 C35.31,21.6 38.94,26.6 35.44,24.04 C31.95,21.49 31.95,28.47 35.44,27.53 C38.94,26.6 36.97,32.4 36,36 C35.03,39.6 34.07,45.01 37.56,43.18 C41.06,41.34 41.06,48.33 37.56,46.67 C34.07,45.01 36.05,50.4 36,54 C35.95,57.6 38.81,60.95 35.32,60.1 C31.83,59.26 31.83,66.24 35.32,63.59 C38.81,60.95 35.34,68.4 36,72 C36.66,75.6 34.58,81.09 38.07,80.25 C41.57,79.41 41.57,86.39 38.07,83.74 C34.58,81.09 36.35,86.4 36,90 C35.65,93.6 35.45,97.71 38.94,97.21 C42.44,96.71 42.44,103.69 38.94,100.7 C35.45,97.71 35.52,104.4 36,108 C36.48,111.6 38.07,117.22 34.58,115.06 C31.09,112.91 31.09,119.89 34.58,118.56 C38.07,117.22 35.84,122.4 36,126 C36.16,129.6 37.89,135.09 34.4,133.84 C30.91,132.6 30.91,139.58 34.4,137.34 C37.89,135.09 35.86,140.4 36,144 C36.14,147.6 32.96,152.18 36.46,151.44 C39.95,150.7 39.95,157.69 36.46,154.93 C32.96,152.18 37.07,158.4 36,162 C34.93,165.6 38.99,171.28 35.5,170.54 C32.01,169.81 32.01,176.79 35.5,174.03 C38.99,171.28 36.22,176.4 36,180 C35.78,183.6 34.64,189.19 38.13,186.9 C41.62,184.62 41.62,191.6 38.13,190.39 C34.64,189.19 37.03,194.4 36,198 C34.97,201.6 36.96,207.78 33.46,205.82 C29.97,203.86 29.97,210.84 33.46,209.31 C36.96,207.78 36.63,212.4 36,216 C35.37,219.6 38.21,225.15 34.72,222.81 C31.23,220.46 31.23,227.45 34.72,226.3 C38.21,225.15 36.43,230.4 36,234 C35.57,237.6 38.6,242.1 35.11,240.03 C31.62,237.96 31.62,244.95 35.11,243.52 C38.6,242.1 36.75,248.4 36,252 C35.25,255.6 33.06,263.21 36.55,260.43 C40.04,257.64 40.04,264.63 36.55,263.92 C33.06,263.21 35.75,266.4 36,270 C36.25,273.6 35.01,280.4 38.5,278.01 C41.99,275.62 41.99,282.61 38.5,281.5 C35.01,280.4 36.83,284.4 36,288 M54,0 C53.59,3.6 55.59,8.99 52.1,7.95 C48.61,6.91 48.61,13.89 52.1,11.44 C55.59,8.99 53.92,14.4 54,18 C54.08,21.6 53.45,26.51 56.95,26.06 C60.44,25.61 60.44,32.59 56.95,29.55 C53.45,26.51 55.07,32.4 54,36 C52.93,39.6 52.47,42.98 55.96,42.02 C59.45,41.05 59.45,48.04 55.96,45.51 C52.47,42.98 52.86,50.4 54,54 C55.14,57.6 53.47,63.21 56.96,62.21 C60.45,61.22 60.45,68.2 56.96,65.7 C53.47,63.21 54.47,68.4 54,72 C53.53,75.6 51.38,80.48 54.87,78.51 C58.36,76.54 58.36,83.52 54.87,82 C51.38,80.48 53.49,86.4 54,90 C54.51,93.6 51.07,98.11 54.56,97.38 C58.05,96.64 58.05,103.63 54.56,100.87 C51.07,98.11 55,104.4 54,108 C53,111.6 55.93,117.01 52.44,114.52 C48.95,112.02 48.95,119 52.44,118.01 C55.93,117.01 55.3,122.4 54,126 C52.7,129.6 52.29,135.01 55.79,134.18 C59.28,133.36 59.28,140.34 55.79,137.68 C52.29,135.01 52.8,140.4 54,144 C55.2,147.6 51.69,154.19 55.18,152.23 C58.67,150.26 58.67,157.25 55.18,155.72 C51.69,154.19 53.57,158.4 54,162 C54.43,165.6 53.31,169.73 56.81,168.92 C60.3,168.11 60.3,175.09 56.81,172.41 C53.31,169.73 53.59,176.4 54,180 C54.41,183.6 56.38,189.71 52.88,187.37 C49.39,185.02 49.39,192 52.88,190.86 C56.38,189.71 53.73,194.4 54,198 C54.27,201.6 51.65,206.84 55.14,205.1 C58.63,203.35 58.63,210.33 55.14,208.59 C51.65,206.84 53.78,212.4 54,216 C54.22,219.6 53.21,224.49 56.71,223.81 C60.2,223.13 60.2,230.11 56.71,227.3 C53.21,224.49 53.44,230.4 54,234 C54.56,237.6 52.6,242.89 56.09,241.42 C59.58,239.94 59.58,246.92 56.09,244.91 C52.6,242.89 54.83,248.4 54,252 C53.17,255.6 52.3,262.32 55.79,259.84 C59.29,257.37 59.29,264.35 55.79,263.33 C52.3,262.32 54.08,266.4 54,270 C53.92,273.6 51.96,278.35 55.45,277.68 C58.95,277.02 58.95,284.01 55.45,281.18 C51.96,278.35 54.43,284.4 54,288 M72,0 C71.83,3.6 74.7,8.75 71.2,6.56 C67.71,4.37 67.71,11.35 71.2,10.05 C74.7,8.75 72.29,14.4 72,18 C71.71,21.6 73.13,29.17 69.63,26.15 C66.14,23.13 66.14,30.12 69.63,29.64 C73.13,29.17 72.9,32.4 72,36 C71.1,39.6 70.97,46.84 74.46,44.26 C77.96,41.69 77.96,48.67 74.46,47.76 C70.97,46.84 71.75,50.4 72,54 C72.25,57.6 72.78,61.15 69.28,60.06 C65.79,58.96 65.79,65.95 69.28,63.55 C72.78,61.15 72.01,68.4 72,72 C71.99,75.6 69.18,82.2 72.68,79.34 C76.17,76.49 76.17,83.47 72.68,82.83 C69.18,82.2 72.18,86.4 72,90 C71.82,93.6 74.17,97.46 70.68,96.62 C67.18,95.79 67.18,102.78 70.68,100.12 C74.17,97.46 72.58,104.4 72,108 C71.42,111.6 72.62,118.45 69.13,115.67 C65.64,112.88 65.64,119.87 69.13,119.16 C72.62,118.45 73.09,122.4 72,126 C70.91,129.6 70.18,134.61 73.67,132.17 C77.17,129.73 77.17,136.72 73.67,135.66 C70.18,134.61 72.24,140.4 72,144 C71.76,147.6 71.14,151.64 74.63,151.2 C78.12,150.77 78.12,157.75 74.63,154.69 C71.14,151.64 72.45,158.4 72,162 C71.55,165.6 71.37,170.91 74.86,168.75 C78.35,166.59 78.35,173.57 74.86,172.24 C71.37,170.91 72.98,176.4 72,180 C71.02,183.6 74.1,189.02 70.61,186.53 C67.12,184.05 67.12,191.03 70.61,190.02 C74.1,189.02 72.06,194.4 72,198 C71.94,201.6 69.53,207.51 73.02,205.96 C76.51,204.41 76.51,211.39 73.02,209.45 C69.53,207.51 72.37,212.4 72,216 C71.63,219.6 73.93,225.33 70.44,224.12 C66.95,222.9 66.95,229.89 70.44,227.61 C73.93,225.33 73.17,230.4 72,234 C70.83,237.6 74.43,243.07 70.94,242.02 C67.44,240.97 67.44,247.95 70.94,245.51 C74.43,243.07 72.99,248.4 72,252 C71.01,255.6 72.92,261.92 69.43,259.5 C65.94,257.08 65.94,264.07 69.43,262.99 C72.92,261.92 71.29,266.4 72,270 C72.71,273.6 74.7,279.99 71.21,277.81 C67.72,275.63 67.72,282.61 71.21,281.3 C74.7,279.99 71.78,284.4 72,288 M90,0 C90.86,3.6 91.69,9.5 88.2,7.53 C84.7,5.55 84.7,12.53 88.2,11.02 C91.69,9.5 89.23,14.4 90,18 C90.77,21.6 87.65,26.32 91.14,24.52 C94.63,22.73 94.63,29.71 91.14,28.01 C87.65,26.32 90.72,32.4 90,36 C89.28,39.6 91.72,44.52 88.22,42.99 C84.73,41.46 84.73,48.45 88.22,46.48 C91.72,44.52 89.7,50.4 90,54 C90.3,57.6 89.26,62.95 92.76,61.11 C96.25,59.26 96.25,66.25 92.76,64.6 C89.26,62.95 89.6,68.4 90,72 C90.4,75.6 91.78,79.49 88.29,78.22 C84.79,76.95 84.79,83.94 88.29,81.71 C91.78,79.49 90.29,86.4 90,90 C89.71,93.6 88.44,98.29 91.93,97.54 C95.42,96.8 95.42,103.78 91.93,101.04 C88.44,98.29 90.08,104.4 90,108 C89.92,111.6 88.85,116 92.34,114.45 C95.83,112.91 95.83,119.89 92.34,117.95 C88.85,116 90.92,122.4 90,126 C89.08,129.6 92.45,133.55 88.95,132.95 C85.46,132.35 85.46,139.34 88.95,136.44 C92.45,133.55 88.71,140.4 90,144 C91.29,147.6 87.84,154.08 91.33,151.36 C94.82,148.65 94.82,155.63 91.33,154.86 C87.84,154.08 91.27,158.4 90,162 C88.73,165.6 87.43,171.05 90.92,169.18 C94.41,167.3 94.41,174.29 90.92,172.67 C87.43,171.05 88.77,176.4 90,180 C91.23,183.6 88.3,187.29 91.79,185.97 C95.28,184.66 95.28,191.64 91.79,189.46 C88.3,187.29 89.84,194.4 90,198 C90.16,201.6 90.69,205.81 87.2,204.5 C83.7,203.19 83.7,210.17 87.2,207.99 C90.69,205.81 88.91,212.4 90,216 C91.09,219.6 88.34,224.84 91.84,223.15 C95.33,221.46 95.33,228.44 91.84,226.64 C88.34,224.84 91.16,230.4 90,234 C88.84,237.6 91.54,244.68 88.05,241.89 C84.56,239.1 84.56,246.08 88.05,245.38 C91.54,244.68 91.16,248.4 90,252 C88.84,255.6 93,259.02 89.51,258.33 C86.01,257.64 86.01,264.63 89.51,261.82 C93,259.02 89.17,266.4 90,270 C90.83,273.6 92.16,278.84 88.67,277.62 C85.18,276.4 85.18,283.38 88.67,281.11 C92.16,278.84 90.92,284.4 90,288 M108,0 C107.79,3.6 105.84,8.15 109.33,7.48 C112.82,6.8 112.82,13.78 109.33,10.97 C105.84,8.15 108.02,14.4 108,18 C107.98,21.6 108.73,26.89 105.24,25.33 C101.75,23.77 101.75,30.76 105.24,28.82 C108.73,26.89 108.93,32.4 108,36 C107.07,39.6 110.98,46.13 107.49,44.23 C104,42.32 104,49.31 107.49,47.72 C110.98,46.13 107.69,50.4 108,54 C108.31,57.6 110.7,63.53 107.21,62.43 C103.72,61.33 103.72,68.32 107.21,65.93 C110.7,63.53 108.42,68.4 108,72 C107.58,75.6 110.15,80.87 106.66,78.68 C103.17,76.49 103.17,83.47 106.66,82.17 C110.15,80.87 107.31,86.4 108,90 C108.69,93.6 109.33,98.96 105.84,96.79 C102.35,94.62 102.35,101.6 105.84,100.28 C109.33,98.96 107.05,104.4 108,108 C108.95,111.6 110.68,115.38 107.18,114.59 C103.69,113.8 103.69,120.78 107.18,118.08 C110.68,115.38 107.84,122.4 108,126 C108.16,129.6 107.08,132.85 110.57,132.02 C114.06,131.19 114.06,138.17 110.57,135.51 C107.08,132.85 108.78,140.4 108,144 C107.22,147.6 106.82,153.42 110.31,150.57 C113.8,147.71 113.8,154.69 110.31,154.06 C106.82,153.42 108.07,158.4 108,162 C107.93,165.6 105.1,172.52 108.59,170.46 C112.08,168.4 112.08,175.39 108.59,173.95 C105.1,172.52 109.24,176.4 108,180 C106.76,183.6 110.63,189.89 107.14,187.55 C103.64,185.21 103.64,192.19 107.14,191.04 C110.63,189.89 107.05,194.4 108,198 C108.95,201.6 105.14,207.91 108.63,205.47 C112.12,203.04 112.12,210.02 108.63,208.97 C105.14,207.91 108.24,212.4 108,216 C107.76,219.6 107.4,226.05 110.89,224.31 C114.38,222.57 114.38,229.56 110.89,227.8 C107.4,226.05 107.08,230.4 108,234 C108.92,237.6 110.03,242.27 106.54,240.54 C103.05,238.81 103.05,245.79 106.54,244.03 C110.03,242.27 107.66,248.4 108,252 C108.34,255.6 109.93,260.53 106.44,258.26 C102.95,255.99 102.95,262.97 106.44,261.75 C109.93,260.53 107.9,266.4 108,270 C108.1,273.6 109.16,278.72 105.67,276.86 C102.18,275 102.18,281.98 105.67,280.35 C109.16,278.72 108.48,284.4 108,288 M126,0 C125.88,3.6 128.03,8.11 124.54,7.29 C121.05,6.47 121.05,13.45 124.54,10.78 C128.03,8.11 124.98,14.4 126,18 C127.02,21.6 123.09,29.05 126.58,26.03 C130.07,23.02 130.07,30.01 126.58,29.53 C123.09,29.05 125.24,32.4 126,36 C126.76,39.6 123.51,46.26 127.01,44.03 C130.5,41.8 130.5,48.78 127.01,47.52 C123.51,46.26 124.82,50.4 126,54 C127.18,57.6 126.69,64.66 123.2,61.75 C119.71,58.84 119.71,65.82 123.2,65.24 C126.69,64.66 126.85,68.4 126,72 C125.15,75.6 125.1,81.05 128.59,80.31 C132.08,79.58 132.08,86.56 128.59,83.81 C125.1,81.05 126.32,86.4 126,90 C125.68,93.6 123.85,101.24 127.34,98.27 C130.83,95.29 130.83,102.27 127.34,101.76 C123.85,101.24 126,104.4 126,108 C126,111.6 123.08,116.36 126.57,115.68 C130.06,115 130.06,121.98 126.57,119.17 C123.08,116.36 125.81,122.4 126,126 C126.19,129.6 123.98,134.5 127.47,133.63 C130.97,132.75 130.97,139.73 127.47,137.12 C123.98,134.5 125.15,140.4 126,144 C126.85,147.6 124.2,152.18 127.7,150.61 C131.19,149.04 131.19,156.02 127.7,154.1 C124.2,152.18 125.65,158.4 126,162 C126.35,165.6 123.03,170.78 126.52,169.86 C130.01,168.93 130.01,175.91 126.52,173.35 C123.03,170.78 126.38,176.4 126,180 C125.62,183.6 123.9,188.7 127.39,186.46 C130.88,184.23 130.88,191.22 127.39,189.96 C123.9,188.7 125.08,194.4 126,198 C126.92,201.6 125.24,207.21 128.73,205.79 C132.22,204.37 132.22,211.36 128.73,209.29 C125.24,207.21 127.08,212.4 126,216 C124.92,219.6 123.89,227.25 127.38,224.38 C130.88,221.51 130.88,228.49 127.38,227.87 C123.89,227.25 126.18,230.4 126,234 C125.82,237.6 128.38,243.87 124.89,241.97 C121.4,240.06 121.4,247.05 124.89,245.46 C128.38,243.87 125.7,248.4 126,252 C126.3,255.6 128.5,262.69 125.01,260.03 C121.51,257.37 121.51,264.36 125.01,263.53 C128.5,262.69 125.55,266.4 126,270 C126.45,273.6 127.23,277.38 123.74,275.95 C120.25,274.53 120.25,281.52 123.74,279.45 C127.23,277.38 126.38,284.4 126,288 M144,0 C143.42,3.6 142.96,7.47 146.45,6.48 C149.94,5.48 149.94,12.47 146.45,9.97 C142.96,7.47 144.02,14.4 144,18 C143.98,21.6 141.83,27.56 145.32,26.33 C148.81,25.11 148.81,32.09 145.32,29.82 C141.83,27.56 143.6,32.4 144,36 C144.4,39.6 145.76,44.07 142.27,42.05 C138.78,40.03 138.78,47.02 142.27,45.54 C145.76,44.07 144.46,50.4 144,54 C143.54,57.6 146.51,61.82 143.02,61.28 C139.53,60.74 139.53,67.73 143.02,64.77 C146.51,61.82 143.41,68.4 144,72 C144.59,75.6 145.97,79.63 142.48,78.26 C138.99,76.89 138.99,83.87 142.48,81.75 C145.97,79.63 145.25,86.4 144,90 C142.75,93.6 141.14,97.69 144.63,96.14 C148.13,94.58 148.13,101.56 144.63,99.63 C141.14,97.69 145.18,104.4 144,108 C142.82,111.6 141.56,117.42 145.05,114.51 C148.54,111.59 148.54,118.57 145.05,118 C141.56,117.42 143.61,122.4 144,126 C144.39,129.6 145.78,133.89 142.29,132.45 C138.79,131 138.79,137.99 142.29,135.94 C145.78,133.89 143.21,140.4 144,144 C144.79,147.6 145.93,154.18 142.44,151.44 C138.94,148.7 138.94,155.68 142.44,154.93 C145.93,154.18 143.2,158.4 144,162 C144.8,165.6 146.5,172.42 143.01,170.17 C139.51,167.92 139.51,174.9 143.01,173.66 C146.5,172.42 145.02,176.4 144,180 C142.98,183.6 142.52,188.47 146.02,186.85 C149.51,185.23 149.51,192.22 146.02,190.34 C142.52,188.47 143.29,194.4 144,198 C144.71,201.6 142.09,205.81 145.58,205.18 C149.08,204.55 149.08,211.54 145.58,208.67 C142.09,205.81 144.25,212.4 144,216 C143.75,219.6 142.38,224.37 145.87,223.03 C149.36,221.69 149.36,228.67 145.87,226.52 C142.38,224.37 143.04,230.4 144,234 C144.96,237.6 146.12,244.27 142.63,242.23 C139.14,240.18 139.14,247.16 142.63,245.72 C146.12,244.27 144.6,248.4 144,252 C143.4,255.6 142.18,261.47 145.67,259.02 C149.16,256.57 149.16,263.55 145.67,262.51 C142.18,261.47 144.31,266.4 144,270 C143.69,273.6 146.4,278.61 142.9,278.09 C139.41,277.57 139.41,284.55 142.9,281.58 C146.4,278.61 145.27,284.4 144,288 M162,0 C162.05,3.6 163.57,7.16 160.08,6.17 C156.59,5.19 156.59,12.17 160.08,9.67 C163.57,7.16 161.78,14.4 162,18 C162.22,21.6 159.87,27.25 163.36,24.61 C166.85,21.97 166.85,28.95 163.36,28.1 C159.87,27.25 162.56,32.4 162,36 C161.44,39.6 163.42,44.7 159.93,43.14 C156.44,41.57 156.44,48.56 159.93,46.63 C163.42,44.7 162.95,50.4 162,54 C161.05,57.6 164.97,62.9 161.48,62.46 C157.99,62.02 157.99,69.01 161.48,65.95 C164.97,62.9 161.95,68.4 162,72 C162.05,75.6 163.69,82.4 160.2,80.16 C156.71,77.92 156.71,84.9 160.2,83.65 C163.69,82.4 161,86.4 162,90 C163,93.6 164.39,100.38 160.9,97.43 C157.41,94.48 157.41,101.47 160.9,100.92 C164.39,100.38 161.75,104.4 162,108 C162.25,111.6 162.95,115.51 159.46,114.5 C155.96,113.48 155.96,120.47 159.46,117.99 C162.95,115.51 162.11,122.4 162,126 C161.89,129.6 163.38,133.51 159.89,131.96 C156.4,130.42 156.4,137.4 159.89,135.45 C163.38,133.51 161.68,140.4 162,144 C162.32,147.6 159.04,153.4 162.53,151.5 C166.02,149.59 166.02,156.58 162.53,154.99 C159.04,153.4 162.41,158.4 162,162 C161.59,165.6 163.75,172.93 160.26,170.03 C156.77,167.14 156.77,174.13 160.26,173.53 C163.75,172.93 162.69,176.4 162,180 C161.31,183.6 159.36,189.58 162.85,187.92 C166.34,186.26 166.34,193.25 162.85,191.41 C159.36,189.58 161.28,194.4 162,198 C162.72,201.6 160.19,208.24 163.69,206.4 C167.18,204.56 167.18,211.54 163.69,209.89 C160.19,208.24 161.22,212.4 162,216 C162.78,219.6 164.38,224.07 160.89,222.28 C157.4,220.49 157.4,227.47 160.89,225.77 C164.38,224.07 162.18,230.4 162,234 C161.82,237.6 161.55,243.85 165.04,242.38 C168.53,240.91 168.53,247.9 165.04,245.87 C161.55,243.85 162.74,248.4 162,252 C161.26,255.6 164.05,260.72 160.56,258.71 C157.06,256.7 157.06,263.68 160.56,262.2 C164.05,260.72 161.16,266.4 162,270 C162.84,273.6 161.48,276.91 164.97,275.94 C168.47,274.98 168.47,281.97 164.97,279.44 C161.48,276.91 161.1,284.4 162,288 M180,0 C180.91,3.6 181.14,9.36 177.65,7.64 C174.15,5.91 174.15,12.9 177.65,11.13 C181.14,9.36 179.86,14.4 180,18 C180.14,21.6 182.67,27.71 179.18,26.25 C175.69,24.79 175.69,31.78 179.18,29.74 C182.67,27.71 180.41,32.4 180,36 C179.59,39.6 178.29,46.58 181.78,43.65 C185.28,40.71 185.28,47.7 181.78,47.14 C178.29,46.58 179.02,50.4 180,54 C180.98,57.6 177.53,62.61 181.03,61.84 C184.52,61.07 184.52,68.05 181.03,65.33 C177.53,62.61 180.88,68.4 180,72 C179.12,75.6 179.28,81.22 182.78,78.99 C186.27,76.76 186.27,83.74 182.78,82.48 C179.28,81.22 179.66,86.4 180,90 C180.34,93.6 182.64,99.1 179.14,96.87 C175.65,94.63 175.65,101.62 179.14,100.36 C182.64,99.1 180.14,104.4 180,108 C179.86,111.6 183.01,117.65 179.52,115.02 C176.03,112.38 176.03,119.36 179.52,118.51 C183.01,117.65 180.71,122.4 180,126 C179.29,129.6 181.12,134.24 177.63,132.17 C174.14,130.1 174.14,137.08 177.63,135.66 C181.12,134.24 179.78,140.4 180,144 C180.22,147.6 178.22,153.14 181.71,150.53 C185.2,147.92 185.2,154.91 181.71,154.03 C178.22,153.14 178.96,158.4 180,162 C181.04,165.6 181.07,172.73 177.58,169.95 C174.08,167.18 174.08,174.16 177.58,173.45 C181.07,172.73 179.37,176.4 180,180 C180.63,183.6 179.33,189.17 182.82,188.36 C186.31,187.55 186.31,194.53 182.82,191.85 C179.33,189.17 180.73,194.4 180,198 C179.27,201.6 177.82,206.79 181.31,205.95 C184.81,205.12 184.81,212.1 181.31,209.44 C177.82,206.79 179.53,212.4 180,216 C180.47,219.6 181.99,222.82 178.49,222.12 C175,221.43 175,228.41 178.49,225.61 C181.99,222.82 179.9,230.4 180,234 C180.1,237.6 177.29,243.75 180.78,241.06 C184.28,238.36 184.28,245.34 180.78,244.55 C177.29,243.75 179.87,248.4 180,252 C180.13,255.6 180.65,262.03 177.16,259.59 C173.67,257.15 173.67,264.13 177.16,263.08 C180.65,262.03 180.37,266.4 180,270 C179.63,273.6 180.56,278.99 177.06,277.23 C173.57,275.48 173.57,282.46 177.06,280.72 C180.56,278.99 180.76,284.4 180,288 M198,0 C198.8,3.6 199.7,9.96 196.2,7.59 C192.71,5.22 192.71,12.21 196.2,11.09 C199.7,9.96 197.35,14.4 198,18 C198.65,21.6 199.12,27.73 195.62,26.22 C192.13,24.7 192.13,31.69 195.62,29.71 C199.12,27.73 198.01,32.4 198,36 C197.99,39.6 200.57,43.98 197.08,42.42 C193.59,40.85 193.59,47.84 197.08,45.91 C200.57,43.98 196.79,50.4 198,54 C199.21,57.6 195.3,64.68 198.79,62.51 C202.28,60.35 202.28,67.33 198.79,66 C195.3,64.68 198.73,68.4 198,72 C197.27,75.6 199.83,82.78 196.34,80.25 C192.85,77.72 192.85,84.7 196.34,83.74 C199.83,82.78 199.13,86.4 198,90 C196.87,93.6 199.67,98.49 196.18,97.02 C192.69,95.56 192.69,102.55 196.18,100.52 C199.67,98.49 198.9,104.4 198,108 C197.1,111.6 198.54,116.04 195.05,114.75 C191.56,113.46 191.56,120.44 195.05,118.24 C198.54,116.04 198.83,122.4 198,126 C197.17,129.6 198.91,135.76 195.42,134.16 C191.92,132.55 191.92,139.53 195.42,137.65 C198.91,135.76 199.05,140.4 198,144 C196.95,147.6 200.25,152.56 196.76,150.34 C193.26,148.12 193.26,155.1 196.76,153.83 C200.25,152.56 197.62,158.4 198,162 C198.38,165.6 199.38,172.2 195.89,170.04 C192.4,167.87 192.4,174.85 195.89,173.53 C199.38,172.2 197.7,176.4 198,180 C198.3,183.6 198.61,190.32 195.12,187.74 C191.63,185.15 191.63,192.14 195.12,191.23 C198.61,190.32 197.47,194.4 198,198 C198.53,201.6 195.19,205.64 198.69,205 C202.18,204.36 202.18,211.34 198.69,208.49 C195.19,205.64 196.97,212.4 198,216 C199.03,219.6 199.71,225.78 196.21,224.3 C192.72,222.82 192.72,229.8 196.21,227.79 C199.71,225.78 198.4,230.4 198,234 C197.6,237.6 195.75,244.93 199.24,242.19 C202.73,239.44 202.73,246.43 199.24,245.68 C195.75,244.93 197.59,248.4 198,252 C198.41,255.6 195.9,262.37 199.39,260.01 C202.88,257.65 202.88,264.63 199.39,263.5 C195.9,262.37 199.01,266.4 198,270 C196.99,273.6 195.95,277.36 199.44,276.82 C202.93,276.27 202.93,283.26 199.44,280.31 C195.95,277.36 198.29,284.4 198,288 M216,0 C215.84,3.6 213.06,9.89 216.55,7.84 C220.04,5.8 220.04,12.78 216.55,11.34 C213.06,9.89 217.04,14.4 216,18 C214.96,21.6 213.68,28.13 217.17,25.24 C220.66,22.35 220.66,29.34 217.17,28.74 C213.68,28.13 216.24,32.4 216,36 C215.76,39.6 216.62,44.77 213.13,44.14 C209.64,43.51 209.64,50.49 213.13,47.63 C216.62,44.77 216.04,50.4 216,54 C215.96,57.6 213.96,62.92 217.45,60.21 C220.94,57.5 220.94,64.49 217.45,63.7 C213.96,62.92 216.32,68.4 216,72 C215.68,75.6 215.55,82.97 219.04,80.5 C222.54,78.02 222.54,85 219.04,83.99 C215.55,82.97 216.4,86.4 216,90 C215.6,93.6 218.5,100.66 215.01,98.28 C211.52,95.89 211.52,102.88 215.01,101.77 C218.5,100.66 216.83,104.4 216,108 C215.17,111.6 217.26,116.01 213.77,114.83 C210.27,113.64 210.27,120.63 213.77,118.32 C217.26,116.01 215.97,122.4 216,126 C216.03,129.6 213.18,134.5 216.68,131.96 C220.17,129.42 220.17,136.41 216.68,135.45 C213.18,134.5 215.41,140.4 216,144 C216.59,147.6 218.87,154.71 215.38,151.66 C211.88,148.62 211.88,155.6 215.38,155.15 C218.87,154.71 217.27,158.4 216,162 C214.73,165.6 215.05,170.53 218.54,168.09 C222.03,165.65 222.03,172.64 218.54,171.58 C215.05,170.53 217.03,176.4 216,180 C214.97,183.6 213.31,189.81 216.8,188.12 C220.29,186.42 220.29,193.4 216.8,191.61 C213.31,189.81 215.52,194.4 216,198 C216.48,201.6 215.54,206.54 219.03,204.83 C222.53,203.13 222.53,210.11 219.03,208.32 C215.54,206.54 215.06,212.4 216,216 C216.94,219.6 215.18,223.69 218.67,222.44 C222.16,221.18 222.16,228.16 218.67,225.93 C215.18,223.69 215.37,230.4 216,234 C216.63,237.6 216.95,244.49 213.46,241.92 C209.97,239.34 209.97,246.33 213.46,245.41 C216.95,244.49 214.88,248.4 216,252 C217.12,255.6 214.36,261.01 217.86,258.79 C221.35,256.57 221.35,263.55 217.86,262.28 C214.36,261.01 217.16,266.4 216,270 C214.84,273.6 216.87,277.95 213.38,276.16 C209.89,274.36 209.89,281.35 213.38,279.65 C216.87,277.95 215.87,284.4 216,288 M234,0 C234.08,3.6 235.21,9.27 231.72,7.02 C228.23,4.77 228.23,11.75 231.72,10.51 C235.21,9.27 233.39,14.4 234,18 C234.61,21.6 231.31,27.67 234.8,24.88 C238.29,22.1 238.29,29.08 234.8,28.38 C231.31,27.67 233.47,32.4 234,36 C234.53,39.6 231.23,45.26 234.72,42.91 C238.21,40.55 238.21,47.53 234.72,46.4 C231.23,45.26 235.08,50.4 234,54 C232.92,57.6 232.48,63.61 235.97,61.14 C239.46,58.67 239.46,65.66 235.97,64.64 C232.48,63.61 233.89,68.4 234,72 C234.11,75.6 231.61,81.39 235.1,80.56 C238.59,79.73 238.59,86.71 235.1,84.05 C231.61,81.39 234.3,86.4 234,90 C233.7,93.6 231.04,99.01 234.53,96.72 C238.02,94.42 238.02,101.4 234.53,100.21 C231.04,99.01 234.59,104.4 234,108 C233.41,111.6 232.1,116.46 235.6,114.56 C239.09,112.65 239.09,119.64 235.6,118.05 C232.1,116.46 232.97,122.4 234,126 C235.03,129.6 235.48,133.48 231.99,132.92 C228.5,132.37 228.5,139.35 231.99,136.42 C235.48,133.48 234.79,140.4 234,144 C233.21,147.6 232.5,153.09 236,151.91 C239.49,150.72 239.49,157.7 236,155.4 C232.5,153.09 232.87,158.4 234,162 C235.13,165.6 235.18,169.43 231.69,168.71 C228.2,167.98 228.2,174.97 231.69,172.2 C235.18,169.43 233.78,176.4 234,180 C234.22,183.6 235.9,188.48 232.4,186.13 C228.91,183.78 228.91,190.76 232.4,189.62 C235.9,188.48 234.91,194.4 234,198 C233.09,201.6 232.26,206.67 235.75,204.61 C239.24,202.55 239.24,209.53 235.75,208.1 C232.26,206.67 235.04,212.4 234,216 C232.96,219.6 231.93,224.53 235.43,223.73 C238.92,222.92 238.92,229.91 235.43,227.22 C231.93,224.53 234.59,230.4 234,234 C233.41,237.6 234.84,242.94 231.35,241 C227.86,239.05 227.86,246.04 231.35,244.49 C234.84,242.94 233.37,248.4 234,252 C234.63,255.6 232.55,259.65 236.04,257.97 C239.53,256.3 239.53,263.28 236.04,261.47 C232.55,259.65 233.87,266.4 234,270 C234.13,273.6 236.67,278.51 233.18,275.97 C229.69,273.43 229.69,280.42 233.18,279.47 C236.67,278.51 234.5,284.4 234,288 M252,0 C251,3.6 254.21,6.67 250.71,6.19 C247.22,5.71 247.22,12.69 250.71,9.68 C254.21,6.67 251.24,14.4 252,18 C252.76,21.6 249.4,26.44 252.89,24.58 C256.38,22.72 256.38,29.7 252.89,28.07 C249.4,26.44 252.35,32.4 252,36 C251.65,39.6 254.88,43.33 251.39,42.38 C247.9,41.44 247.9,48.42 251.39,45.88 C254.88,43.33 251.43,50.4 252,54 C252.57,57.6 252.57,62.99 249.08,61.12 C245.59,59.24 245.59,66.22 249.08,64.61 C252.57,62.99 252.11,68.4 252,72 C251.89,75.6 253.65,79.87 250.16,78.42 C246.66,76.97 246.66,83.95 250.16,81.91 C253.65,79.87 251.33,86.4 252,90 C252.67,93.6 253.6,98.05 250.1,97.57 C246.61,97.09 246.61,104.07 250.1,101.06 C253.6,98.05 251.06,104.4 252,108 C252.94,111.6 253.56,116.89 250.06,115.55 C246.57,114.21 246.57,121.19 250.06,119.04 C253.56,116.89 251.74,122.4 252,126 C252.26,129.6 254.14,134.81 250.64,132.46 C247.15,130.12 247.15,137.1 250.64,135.95 C254.14,134.81 252.03,140.4 252,144 C251.97,147.6 253.88,153.84 250.38,151.62 C246.89,149.4 246.89,156.38 250.38,155.11 C253.88,153.84 250.75,158.4 252,162 C253.25,165.6 254.72,169.82 251.23,168.85 C247.74,167.89 247.74,174.87 251.23,172.35 C254.72,169.82 253.06,176.4 252,180 C250.94,183.6 249.04,190.77 252.53,188.29 C256.02,185.81 256.02,192.8 252.53,191.78 C249.04,190.77 251.2,194.4 252,198 C252.8,201.6 254.62,208.17 251.13,206.55 C247.64,204.93 247.64,211.91 251.13,210.04 C254.62,208.17 252.26,212.4 252,216 C251.74,219.6 250.99,226.01 254.48,223.09 C257.97,220.18 257.97,227.16 254.48,226.59 C250.99,226.01 253.31,230.4 252,234 C250.69,237.6 254.72,243.68 251.22,242.28 C247.73,240.87 247.73,247.86 251.22,245.77 C254.72,243.68 251.65,248.4 252,252 C252.35,255.6 254.61,261.28 251.11,259.35 C247.62,257.41 247.62,264.4 251.11,262.84 C254.61,261.28 251.64,266.4 252,270 C252.36,273.6 251.09,278.91 254.58,278.08 C258.07,277.26 258.07,284.24 254.58,281.58 C251.09,278.91 251.22,284.4 252,288 M270,0 C269.25,3.6 270.78,8.5 267.29,6.49 C263.8,4.47 263.8,11.45 267.29,9.98 C270.78,8.5 271.1,14.4 270,18 C268.9,21.6 268.4,28.3 271.89,25.37 C275.39,22.45 275.39,29.43 271.89,28.86 C268.4,28.3 270.64,32.4 270,36 C269.36,39.6 267.97,44.2 271.46,43.14 C274.95,42.08 274.95,49.07 271.46,46.63 C267.97,44.2 271.26,50.4 270,54 C268.74,57.6 268.07,62.46 271.56,61.07 C275.05,59.68 275.05,66.66 271.56,64.56 C268.07,62.46 269.75,68.4 270,72 C270.25,75.6 269.48,79.12 272.97,78.39 C276.46,77.65 276.46,84.64 272.97,81.88 C269.48,79.12 270.65,86.4 270,90 C269.35,93.6 270.93,99.61 267.44,96.73 C263.95,93.84 263.95,100.83 267.44,100.22 C270.93,99.61 269.67,104.4 270,108 C270.33,111.6 269.19,115.5 272.68,114.36 C276.17,113.21 276.17,120.2 272.68,117.85 C269.19,115.5 269.17,122.4 270,126 C270.83,129.6 268.64,134.65 272.13,133.55 C275.62,132.44 275.62,139.43 272.13,137.04 C268.64,134.65 269.51,140.4 270,144 C270.49,147.6 270.45,152.29 266.96,151.38 C263.47,150.47 263.47,157.45 266.96,154.87 C270.45,152.29 269.94,158.4 270,162 C270.06,165.6 272.36,170.33 268.87,168.65 C265.37,166.96 265.37,173.95 268.87,172.14 C272.36,170.33 269.31,176.4 270,180 C270.69,183.6 271.46,190.71 267.96,188.39 C264.47,186.07 264.47,193.05 267.96,191.88 C271.46,190.71 269.77,194.4 270,198 C270.23,201.6 270.55,205.79 267.05,205.14 C263.56,204.5 263.56,211.48 267.05,208.64 C270.55,205.79 270.57,212.4 270,216 C269.43,219.6 271.97,226.69 268.48,223.95 C264.99,221.2 264.99,228.19 268.48,227.44 C271.97,226.69 269,230.4 270,234 C271,237.6 269.3,242.33 272.79,241.7 C276.28,241.06 276.28,248.05 272.79,245.19 C269.3,242.33 270.8,248.4 270,252 C269.2,255.6 272.6,261 269.11,258.55 C265.62,256.09 265.62,263.07 269.11,262.04 C272.6,261 269.11,266.4 270,270 C270.89,273.6 270.73,279.77 267.24,277.54 C263.75,275.32 263.75,282.3 267.24,281.04 C270.73,279.77 270.34,284.4 270,288 M0,0 L288,0 L288,288 L0,288 L0,0 "></path></svg>