<svg xmlns="http://www.w3.org/2000/svg" version="1.0" width="36mm" height="54mm" viewBox="0 0 36 54"><path fill="none" stroke="black" stroke-width="0.1" d="M0,18 C3.6,18.4 9.2,16.62 7.06,20.22 C4.93,23.82 12.13,23.82 10.66,20.22 C9.2,16.62 14.4,18.31 18,18 C21.6,17.69 26.23,19.47 25.08,15.87 C23.93,12.27 31.13,12.27 28.68,15.87 C26.23,19.47 32.4,17.58 36,18 M0,36 C3.6,36.01 9.84,37.11 7.53,33.51 C5.23,29.91 12.43,29.91 11.13,33.51 C9.84,37.11 14.4,36.31 18,36 C21.6,35.69 26.89,34.66 24.89,38.26 C22.88,41.86 30.08,41.86 28.49,38.26 C26.89,34.66 32.4,35.57 36,36 M18,0 C17.97,3.6 16.49,8.37 20.09,7.18 C23.69,5.99 23.69,13.19 20.09,10.78 C16.49,8.37 17.55,14.4 18,18 C18.45,21.6 20.39,26.66 16.79,24.7 C13.19,22.75 13.19,29.95 16.79,28.3 C20.39,26.66 17.58,32.4 18,36 C18.42,39.6 19.46,45.16 15.86,43.81 C12.26,42.46 12.26,49.66 15.86,47.41 C19.46,45.16 17.77,50.4 18,54 M0,0 L36,0 L36,54 L0,54 L0,0 "></path></svg>