<svg xmlns="http://www.w3.org/2000/svg" version="1.0" width="54mm" height="72mm" viewBox="0 0 54 72"><path fill="none" stroke="black" stroke-width="0.1" d="M0,18 C3.6,18.4 9.2,16.62 7.06,20.22 C4.93,23.82 12.13,23.82 10.66,20.22 C9.2,16.62 14.4,18.31 18,18 C21.6,17.69 26.23,19.47 25.08,15.87 C23.93,12.27 31.13,12.27 28.68,15.87 C26.23,19.47 32.4,17.58 36,18 C39.6,18.42 45.6,20.21 43.43,16.61 C41.27,13.01 48.47,13.01 47.03,16.61 C45.6,20.21 50.4,18.18 54,18 M0,36 C3.6,35.69 8.89,34.66 6.89,38.26 C4.88,41.86 12.08,41.86 10.49,38.26 C8.89,34.66 14.4,35.57 18,36 C21.6,36.43 27.53,34.47 25.56,38.07 C23.6,41.67 30.8,41.67 29.16,38.07 C27.53,34.47 32.4,36.45 36,36 C39.6,35.55 45.19,37.82 43.1,34.22 C41.01,30.62 48.21,30.62 46.7,34.22 C45.19,37.82 50.4,36.61 54,36 M0,54 C3.6,53.58 9.16,55.46 7.81,51.86 C6.46,48.26 13.66,48.26 11.41,51.86 C9.16,55.46 14.4,53.77 18,54 C21.6,54.23 27.05,51.54 24.8,55.14 C22.55,58.74 29.75,58.74 28.4,55.14 C27.05,51.54 32.4,53.65 36,54 C39.6,54.35 45.53,56.16 43.14,52.56 C40.76,48.96 47.96,48.96 46.74,52.56 C45.53,56.16 50.4,54.44 54,54 M18,0 C17.51,3.6 20.51,9.79 16.91,7.54 C13.31,5.28 13.31,12.48 16.91,11.14 C20.51,9.79 17.91,14.4 18,18 C18.09,21.6 15.99,27.62 19.59,25.38 C23.19,23.14 23.19,30.34 19.59,28.98 C15.99,27.62 17.39,32.4 18,36 C18.61,39.6 20.14,45.27 16.54,43.78 C12.94,42.28 12.94,49.48 16.54,47.38 C20.14,45.27 18.48,50.4 18,54 C17.52,57.6 15.69,63.87 19.29,61.87 C22.89,59.87 22.89,67.07 19.29,65.47 C15.69,63.87 17.85,68.4 18,72 M36,0 C35.36,3.6 37.22,9.52 33.62,7.22 C30.02,4.91 30.02,12.11 33.62,10.82 C37.22,9.52 35.72,14.4 36,18 C36.28,21.6 37.24,26.97 33.64,25.43 C30.04,23.89 30.04,31.09 33.64,29.03 C37.24,26.97 35.37,32.4 36,36 C36.63,39.6 34.88,44.8 38.48,43.06 C42.08,41.32 42.08,48.52 38.48,46.66 C34.88,44.8 35.98,50.4 36,54 C36.02,57.6 34.64,62.89 38.24,61.2 C41.84,59.51 41.84,66.71 38.24,64.8 C34.64,62.89 35.69,68.4 36,72 M0,0 L54,0 L54,72 L0,72 L0,0 "></path></svg>