<svg xmlns="http://www.w3.org/2000/svg" version="1.0" width="72mm" height="72mm" viewBox="0 0 72 72"><path fill="none" stroke="black" stroke-width="0.1" d="M0,18 C3.6,19.24 9.01,20.41 8.12,16.91 C7.23,13.42 14.22,13.42 11.61,16.91 C9.01,20.41 14.4,16.85 18,18 C21.6,19.15 24.96,19.57 23.94,16.07 C22.92,12.58 29.9,12.58 27.43,16.07 C24.96,19.57 32.4,18.98 36,18 C39.6,17.02 47.24,20.7 44.23,17.2 C41.22,13.71 48.21,13.71 47.72,17.2 C47.24,20.7 50.4,18.18 54,18 C57.6,17.82 62.68,20.09 61.16,16.6 C59.64,13.11 66.62,13.11 64.65,16.6 C62.68,20.09 68.4,17.24 72,18 M0,36 C3.6,37.12 9.13,38.23 6.88,34.74 C4.63,31.25 11.61,31.25 10.37,34.74 C9.13,38.23 14.4,35.12 18,36 C21.6,36.88 27.79,34.25 26.54,37.74 C25.3,41.24 32.28,41.24 30.04,37.74 C27.79,34.25 32.4,36.35 36,36 C39.6,35.65 44.35,38.11 43.36,34.62 C42.37,31.12 49.35,31.12 46.85,34.62 C44.35,38.11 50.4,35.57 54,36 C57.6,36.43 64.12,34.77 62.28,38.26 C60.45,41.75 67.43,41.75 65.78,38.26 C64.12,34.77 68.4,35.62 72,36 M0,54 C3.6,52.97 8.82,56.07 7.07,52.57 C5.33,49.08 12.32,49.08 10.57,52.57 C8.82,56.07 14.4,53.98 18,54 C21.6,54.02 26.41,55.27 25.78,51.78 C25.15,48.29 32.13,48.29 29.27,51.78 C26.41,55.27 32.4,53.4 36,54 C39.6,54.6 44.82,51.49 42.69,54.99 C40.57,58.48 47.56,58.48 46.19,54.99 C44.82,51.49 50.4,53.54 54,54 C57.6,54.46 61.96,54.63 60.78,51.14 C59.59,47.65 66.58,47.65 64.27,51.14 C61.96,54.63 68.4,54.6 72,54 M18,0 C17.05,3.6 15.78,8.12 19.28,6.81 C22.77,5.5 22.77,12.48 19.28,10.3 C15.78,8.12 17.28,14.4 18,18 C18.72,21.6 19.73,25.57 16.24,24.36 C12.74,23.16 12.74,30.14 16.24,27.86 C19.73,25.57 18.7,32.4 18,36 C17.3,39.6 15.89,43.64 19.38,41.99 C22.88,40.34 22.88,47.32 19.38,45.48 C15.89,43.64 18.29,50.4 18,54 C17.71,57.6 17.38,60.79 20.87,59.98 C24.36,59.17 24.36,66.16 20.87,63.47 C17.38,60.79 17.89,68.4 18,72 M36,0 C36.24,3.6 37.96,7.69 34.46,6.35 C30.97,5.01 30.97,12 34.46,9.85 C37.96,7.69 35.75,14.4 36,18 C36.25,21.6 37.2,25.92 33.71,25 C30.22,24.08 30.22,31.06 33.71,28.49 C37.2,25.92 35.71,32.4 36,36 C36.29,39.6 37.05,42.87 33.55,42.33 C30.06,41.8 30.06,48.78 33.55,45.83 C37.05,42.87 36.96,50.4 36,54 C35.04,57.6 33.83,62.18 37.33,60.71 C40.82,59.24 40.82,66.23 37.33,64.2 C33.83,62.18 36.27,68.4 36,72 M54,0 C53.08,3.6 51.97,10.36 55.46,7.63 C58.95,4.91 58.95,11.89 55.46,11.13 C51.97,10.36 52.78,14.4 54,18 C55.22,21.6 54.97,28.75 51.48,26.1 C47.99,23.45 47.99,30.43 51.48,29.59 C54.97,28.75 55.1,32.4 54,36 C52.9,39.6 51.47,43.09 54.96,42.42 C58.45,41.75 58.45,48.74 54.96,45.91 C51.47,43.09 54.07,50.4 54,54 C53.93,57.6 51.39,61.42 54.88,60.08 C58.38,58.74 58.38,65.73 54.88,63.58 C51.39,61.42 54.29,68.4 54,72 M0,0 L72,0 L72,72 L0,72 L0,0 "></path></svg>