<svg xmlns="http://www.w3.org/2000/svg" version="1.0" width="90mm" height="144mm" viewBox="0 0 90 144"><path fill="none" stroke="black" stroke-width="0.1" d="M0,18 C3.6,17.6 9.2,16.62 7.06,20.22 C4.93,23.82 12.13,23.82 10.66,20.22 C9.2,16.62 14.4,18.31 18,18 C21.6,17.69 26.23,19.47 25.08,15.87 C23.93,12.27 31.13,12.27 28.68,15.87 C26.23,19.47 32.4,17.58 36,18 C39.6,18.42 45.6,20.21 43.43,16.61 C41.27,13.01 48.47,13.01 47.03,16.61 C45.6,20.21 50.4,18.18 54,18 C57.6,17.82 63.71,19.47 61.22,15.87 C58.73,12.27 65.93,12.27 64.82,15.87 C63.71,19.47 68.4,17.5 72,18 C75.6,18.5 80.74,15.89 78.48,19.49 C76.22,23.09 83.42,23.09 82.08,19.49 C80.74,15.89 86.4,18.21 90,18 M0,36 C3.6,35.55 9.19,37.82 7.1,34.22 C5.01,30.62 12.21,30.62 10.7,34.22 C9.19,37.82 14.4,36.61 18,36 C21.6,35.39 26.58,33.7 25.37,37.3 C24.16,40.9 31.36,40.9 28.97,37.3 C26.58,33.7 32.4,36.16 36,36 C39.6,35.84 45.52,37.19 43.38,33.59 C41.24,29.99 48.44,29.99 46.98,33.59 C45.52,37.19 50.4,36.45 54,36 C57.6,35.55 62.12,38.2 60.97,34.6 C59.83,31 67.03,31 64.57,34.6 C62.12,38.2 68.4,35.55 72,36 C75.6,36.45 81.17,34.14 79.73,37.74 C78.28,41.34 85.48,41.34 83.33,37.74 C81.17,34.14 86.4,36.58 90,36 M0,54 C3.6,53.61 8.9,55.46 7.81,51.86 C6.72,48.26 13.92,48.26 11.41,51.86 C8.9,55.46 14.4,53.54 18,54 C21.6,54.46 26.49,55.62 24.9,52.02 C23.31,48.42 30.51,48.42 28.5,52.02 C26.49,55.62 32.4,53.56 36,54 C39.6,54.44 44.87,52.78 43.42,56.38 C41.96,59.98 49.16,59.98 47.02,56.38 C44.87,52.78 50.4,53.7 54,54 C57.6,54.3 61.92,52.87 60.63,56.47 C59.33,60.07 66.53,60.07 64.23,56.47 C61.92,52.87 68.4,54.2 72,54 C75.6,53.8 80.57,52.47 79.49,56.07 C78.41,59.67 85.61,59.67 83.09,56.07 C80.57,52.47 86.4,54.19 90,54 M0,72 C3.6,71.5 9.74,73.57 7.38,69.97 C5.02,66.37 12.22,66.37 10.98,69.97 C9.74,73.57 14.4,72.26 18,72 C21.6,71.74 27.38,73.94 24.9,70.34 C22.41,66.74 29.61,66.74 28.5,70.34 C27.38,73.94 32.4,72.06 36,72 C39.6,71.94 44.76,70.2 42.53,73.8 C40.29,77.4 47.49,77.4 46.13,73.8 C44.76,70.2 50.4,71.89 54,72 C57.6,72.11 62.71,70.42 61.15,74.02 C59.59,77.62 66.79,77.62 64.75,74.02 C62.71,70.42 68.4,72.61 72,72 C75.6,71.39 79.92,70.15 78.73,73.75 C77.53,77.35 84.73,77.35 82.33,73.75 C79.92,70.15 86.4,72.46 90,72 M0,90 C3.6,90.48 8.9,91.33 6.91,87.73 C4.92,84.13 12.12,84.13 10.51,87.73 C8.9,91.33 14.4,89.73 18,90 C21.6,90.27 26.39,91.08 25.22,87.48 C24.06,83.88 31.26,83.88 28.82,87.48 C26.39,91.08 32.4,89.79 36,90 C39.6,90.21 45.24,88.33 43.14,91.93 C41.04,95.53 48.24,95.53 46.74,91.93 C45.24,88.33 50.4,90.43 54,90 C57.6,89.57 62.83,91.91 60.72,88.31 C58.6,84.71 65.8,84.71 64.32,88.31 C62.83,91.91 68.4,89.61 72,90 C75.6,90.39 80.47,91.27 79.36,87.67 C78.24,84.07 85.44,84.07 82.96,87.67 C80.47,91.27 86.4,90.69 90,90 M0,108 C3.6,108.47 9.51,106.2 7.17,109.8 C4.82,113.4 12.02,113.4 10.77,109.8 C9.51,106.2 14.4,108.42 18,108 C21.6,107.58 25.8,110.03 24.65,106.43 C23.51,102.83 30.71,102.83 28.25,106.43 C25.8,110.03 32.4,107.67 36,108 C39.6,108.33 44.51,106.49 42.98,110.09 C41.45,113.69 48.65,113.69 46.58,110.09 C44.51,106.49 50.4,108.06 54,108 C57.6,107.94 63.2,106.44 61.8,110.04 C60.39,113.64 67.59,113.64 65.4,110.04 C63.2,106.44 68.4,107.66 72,108 C75.6,108.34 81.17,105.98 79.49,109.58 C77.82,113.18 85.02,113.18 83.09,109.58 C81.17,105.98 86.4,107.36 90,108 M0,126 C3.6,125.55 8.35,128.1 6.93,124.5 C5.5,120.9 12.7,120.9 10.53,124.5 C8.35,128.1 14.4,125.4 18,126 C21.6,126.6 28.01,124.82 25.71,128.42 C23.42,132.02 30.62,132.02 29.31,128.42 C28.01,124.82 32.4,126.1 36,126 C39.6,125.9 46.25,127.99 43.84,124.39 C41.43,120.79 48.63,120.79 47.44,124.39 C46.25,127.99 50.4,125.42 54,126 C57.6,126.58 62.42,127.34 61.18,123.74 C59.94,120.14 67.14,120.14 64.78,123.74 C62.42,127.34 68.4,125.92 72,126 C75.6,126.08 81.93,128.09 79.9,124.49 C77.87,120.89 85.07,120.89 83.5,124.49 C81.93,128.09 86.4,126.29 90,126 M18,0 C18.24,3.6 16.84,10.16 20.44,7.7 C24.04,5.24 24.04,12.44 20.44,11.3 C16.84,10.16 17.36,14.4 18,18 C18.64,21.6 19.99,27.52 16.39,25.53 C12.79,23.55 12.79,30.75 16.39,29.13 C19.99,27.52 18.65,32.4 18,36 C17.35,39.6 16.28,45.33 19.88,43.41 C23.48,41.49 23.48,48.69 19.88,47.01 C16.28,45.33 18.53,50.4 18,54 C17.47,57.6 19.62,63.49 16.02,61.7 C12.42,59.91 12.42,67.11 16.02,65.3 C19.62,63.49 17.9,68.4 18,72 C18.1,75.6 20.3,81.87 16.7,79.64 C13.1,77.4 13.1,84.6 16.7,83.24 C20.3,81.87 18.61,86.4 18,90 C17.39,93.6 15.7,98.78 19.3,97.5 C22.9,96.22 22.9,103.42 19.3,101.1 C15.7,98.78 17.29,104.4 18,108 C18.71,111.6 20.34,116.62 16.74,114.81 C13.14,113.01 13.14,120.21 16.74,118.41 C20.34,116.62 17.91,122.4 18,126 C18.09,129.6 20.22,134.42 16.62,132.64 C13.02,130.86 13.02,138.06 16.62,136.24 C20.22,134.42 17.44,140.4 18,144 M36,0 C35.63,3.6 37.4,10.03 33.8,7.62 C30.2,5.2 30.2,12.4 33.8,11.22 C37.4,10.03 35.96,14.4 36,18 C36.04,21.6 33.53,27.51 37.13,25.11 C40.73,22.71 40.73,29.91 37.13,28.71 C33.53,27.51 36.65,32.4 36,36 C35.35,39.6 37.95,45.21 34.35,43.46 C30.75,41.72 30.75,48.92 34.35,47.06 C37.95,45.21 36.11,50.4 36,54 C35.89,57.6 33.72,63.46 37.32,61.25 C40.92,59.04 40.92,66.24 37.32,64.85 C33.72,63.46 36.22,68.4 36,72 C35.78,75.6 34.75,80.6 38.35,78.49 C41.95,76.39 41.95,83.59 38.35,82.09 C34.75,80.6 35.95,86.4 36,90 C36.05,93.6 34.12,98.26 37.72,96.86 C41.32,95.46 41.32,102.66 37.72,100.46 C34.12,98.26 35.49,104.4 36,108 C36.51,111.6 37.49,117.12 33.89,115.9 C30.29,114.68 30.29,121.88 33.89,119.5 C37.49,117.12 35.84,122.4 36,126 C36.16,129.6 34.36,134.51 37.96,133.11 C41.56,131.71 41.56,138.91 37.96,136.71 C34.36,134.51 36.63,140.4 36,144 M54,0 C54.49,3.6 55.81,9.06 52.21,7.27 C48.61,5.48 48.61,12.68 52.21,10.87 C55.81,9.06 54.13,14.4 54,18 C53.87,21.6 52.48,26.87 56.08,25.42 C59.68,23.97 59.68,31.17 56.08,29.02 C52.48,26.87 54.58,32.4 54,36 C53.42,39.6 55.16,43.86 51.56,42.51 C47.96,41.16 47.96,48.36 51.56,46.11 C55.16,43.86 54.46,50.4 54,54 C53.54,57.6 56.04,62.64 52.44,61.26 C48.84,59.88 48.84,67.08 52.44,64.86 C56.04,62.64 54.09,68.4 54,72 C53.91,75.6 51.74,81.71 55.34,79.33 C58.94,76.94 58.94,84.14 55.34,82.93 C51.74,81.71 53.58,86.4 54,90 C54.42,93.6 55.21,99.49 51.61,97.47 C48.01,95.45 48.01,102.65 51.61,101.07 C55.21,99.49 54.71,104.4 54,108 C53.29,111.6 51.78,116.16 55.38,114.93 C58.98,113.69 58.98,120.89 55.38,118.53 C51.78,116.16 53.91,122.4 54,126 C54.09,129.6 55.15,134.12 51.55,132.84 C47.95,131.57 47.95,138.77 51.55,136.44 C55.15,134.12 54.13,140.4 54,144 M72,0 C71.97,3.6 73.82,9.24 70.22,7.43 C66.62,5.63 66.62,12.83 70.22,11.03 C73.82,9.24 72.35,14.4 72,18 C71.65,21.6 74.16,26.3 70.56,24.94 C66.96,23.58 66.96,30.78 70.56,28.54 C74.16,26.3 72.02,32.4 72,36 C71.98,39.6 70.18,43.94 73.78,42.65 C77.38,41.37 77.38,48.57 73.78,46.25 C70.18,43.94 72.44,50.4 72,54 C71.56,57.6 74.35,63.49 70.75,61.38 C67.15,59.26 67.15,66.46 70.75,64.98 C74.35,63.49 71.32,68.4 72,72 C72.68,75.6 73.19,80.14 69.59,78.9 C65.99,77.67 65.99,84.87 69.59,82.5 C73.19,80.14 72.62,86.4 72,90 C71.38,93.6 73.78,99.26 70.18,97.35 C66.58,95.45 66.58,102.65 70.18,100.95 C73.78,99.26 72.14,104.4 72,108 C71.86,111.6 73.79,116.9 70.19,114.77 C66.59,112.64 66.59,119.84 70.19,118.37 C73.79,116.9 71.87,122.4 72,126 C72.13,129.6 69.6,135.48 73.2,133.38 C76.8,131.28 76.8,138.48 73.2,136.98 C69.6,135.48 71.37,140.4 72,144 M0,0 L90,0 L90,144 L0,144 L0,0 "></path></svg>