<svg xmlns="http://www.w3.org/2000/svg" version="1.0" width="144mm" height="216mm" viewBox="0 0 144 216"><path fill="none" stroke="black" stroke-width="0.1" d="M0,18 C3.6,17.6 9.2,16.62 7.06,20.22 C4.93,23.82 12.13,23.82 10.66,20.22 C9.2,16.62 14.4,18.31 18,18 C21.6,17.69 26.23,19.47 25.08,15.87 C23.93,12.27 31.13,12.27 28.68,15.87 C26.23,19.47 32.4,17.58 36,18 C39.6,18.42 45.6,20.21 43.43,16.61 C41.27,13.01 48.47,13.01 47.03,16.61 C45.6,20.21 50.4,18.18 54,18 C57.6,17.82 63.71,19.47 61.22,15.87 C58.73,12.27 65.93,12.27 64.82,15.87 C63.71,19.47 68.4,17.5 72,18 C75.6,18.5 80.74,15.89 78.48,19.49 C76.22,23.09 83.42,23.09 82.08,19.49 C80.74,15.89 86.4,18.21 90,18 C93.6,17.79 99.16,16.56 97.09,20.16 C95.02,23.76 102.22,23.76 100.69,20.16 C99.16,16.56 104.4,18.16 108,18 C111.6,17.84 117.01,19.9 115.23,16.3 C113.45,12.7 120.65,12.7 118.83,16.3 C117.01,19.9 122.4,17.71 126,18 C129.6,18.29 134.05,16.37 132.75,19.97 C131.44,23.57 138.64,23.57 136.35,19.97 C134.05,16.37 140.4,17.41 144,18 M0,36 C3.6,35.55 8.12,38.2 6.97,34.6 C5.83,31 13.03,31 10.57,34.6 C8.12,38.2 14.4,35.55 18,36 C21.6,36.45 27.17,34.14 25.73,37.74 C24.28,41.34 31.48,41.34 29.33,37.74 C27.17,34.14 32.4,36.58 36,36 C39.6,35.42 44.54,34.4 42.99,38 C41.43,41.6 48.63,41.6 46.59,38 C44.54,34.4 50.4,36.54 54,36 C57.6,35.46 63.82,37.19 61.69,33.59 C59.55,29.99 66.75,29.99 65.29,33.59 C63.82,37.19 68.4,36.71 72,36 C75.6,35.29 81.27,38.1 79.29,34.5 C77.31,30.9 84.51,30.9 82.89,34.5 C81.27,38.1 86.4,36.21 90,36 C93.6,35.79 98.97,37.58 96.59,33.98 C94.22,30.38 101.42,30.38 100.19,33.98 C98.97,37.58 104.4,36.34 108,36 C111.6,35.66 117.19,33.63 114.72,37.23 C112.25,40.83 119.45,40.83 118.32,37.23 C117.19,33.63 122.4,35.49 126,36 C129.6,36.51 135.13,37.51 133.05,33.91 C130.98,30.31 138.18,30.31 136.65,33.91 C135.13,37.51 140.4,36.72 144,36 M0,54 C3.6,54.58 9.5,55.62 7.48,52.02 C5.45,48.42 12.65,48.42 11.08,52.02 C9.5,55.62 14.4,53.44 18,54 C21.6,54.56 27.49,51.9 25.83,55.5 C24.17,59.1 31.37,59.1 29.43,55.5 C27.49,51.9 32.4,54.68 36,54 C39.6,53.32 44.97,51.53 43.18,55.13 C41.38,58.73 48.58,58.73 46.78,55.13 C44.97,51.53 50.4,54.44 54,54 C57.6,53.56 62.91,52.15 60.89,55.75 C58.87,59.35 66.07,59.35 64.49,55.75 C62.91,52.15 68.4,53.76 72,54 C75.6,54.24 80.34,56.27 78.58,52.67 C76.83,49.07 84.03,49.07 82.18,52.67 C80.34,56.27 86.4,54.6 90,54 C93.6,53.4 98.74,55.39 97.57,51.79 C96.41,48.19 103.61,48.19 101.17,51.79 C98.74,55.39 104.4,53.67 108,54 C111.6,54.33 117.19,52.25 115.68,55.85 C114.17,59.45 121.37,59.45 119.28,55.85 C117.19,52.25 122.4,54.47 126,54 C129.6,53.53 135.3,55.36 133.47,51.76 C131.65,48.16 138.85,48.16 137.07,51.76 C135.3,55.36 140.4,53.28 144,54 M0,72 C3.6,71.7 9.49,74.28 7.81,70.68 C6.12,67.08 13.32,67.08 11.41,70.68 C9.49,74.28 14.4,71.69 18,72 C21.6,72.31 27.95,73.64 25.61,70.04 C23.28,66.44 30.48,66.44 29.21,70.04 C27.95,73.64 32.4,72.68 36,72 C39.6,71.32 45.31,70.67 43.77,74.27 C42.24,77.87 49.44,77.87 47.37,74.27 C45.31,70.67 50.4,72.67 54,72 C57.6,71.33 63.43,69.66 61.67,73.26 C59.9,76.86 67.1,76.86 65.27,73.26 C63.43,69.66 68.4,72 72,72 C75.6,72 80.87,73.45 79.62,69.85 C78.36,66.25 85.56,66.25 83.22,69.85 C80.87,73.45 86.4,72.23 90,72 C93.6,71.77 99.12,69.79 97.53,73.39 C95.95,76.99 103.15,76.99 101.13,73.39 C99.12,69.79 104.4,72.29 108,72 C111.6,71.71 117.65,70.08 115.26,73.68 C112.86,77.28 120.06,77.28 118.86,73.68 C117.65,70.08 122.4,72.24 126,72 C129.6,71.76 134.95,69.86 132.86,73.46 C130.77,77.06 137.97,77.06 136.46,73.46 C134.95,69.86 140.4,71.78 144,72 M0,90 C3.6,90.64 9.18,91.66 7.65,88.06 C6.13,84.46 13.33,84.46 11.25,88.06 C9.18,91.66 14.4,90.3 18,90 C21.6,89.7 28.11,87.5 25.8,91.1 C23.48,94.7 30.68,94.7 29.4,91.1 C28.11,87.5 32.4,90.62 36,90 C39.6,89.38 45.74,91.37 43.3,87.77 C40.86,84.17 48.06,84.17 46.9,87.77 C45.74,91.37 50.4,90.19 54,90 C57.6,89.81 63.57,91.27 61.78,87.67 C60,84.07 67.2,84.07 65.38,87.67 C63.57,91.27 68.4,89.54 72,90 C75.6,90.46 81.78,88.35 79.28,91.95 C76.78,95.55 83.98,95.55 82.88,91.95 C81.78,88.35 86.4,89.71 90,90 C93.6,90.29 98.63,91.69 96.91,88.09 C95.2,84.49 102.4,84.49 100.51,88.09 C98.63,91.69 104.4,90.27 108,90 C111.6,89.73 116.82,88.44 115.31,92.04 C113.79,95.64 120.99,95.64 118.91,92.04 C116.82,88.44 122.4,90.5 126,90 C129.6,89.5 135.76,92.44 133.86,88.84 C131.96,85.24 139.16,85.24 137.46,88.84 C135.76,92.44 140.4,89.67 144,90 M0,108 C3.6,107.92 10.03,109.27 7.73,105.67 C5.43,102.07 12.63,102.07 11.33,105.67 C10.03,109.27 14.4,107.82 18,108 C21.6,108.18 27.53,106.3 25.3,109.9 C23.06,113.5 30.26,113.5 28.9,109.9 C27.53,106.3 32.4,107.5 36,108 C39.6,108.5 44.7,110.06 42.59,106.46 C40.49,102.86 47.69,102.86 46.19,106.46 C44.7,110.06 50.4,108.5 54,108 C57.6,107.5 61.9,106.37 60.49,109.97 C59.08,113.57 66.28,113.57 64.09,109.97 C61.9,106.37 68.4,107.46 72,108 C75.6,108.54 80.53,109.43 79.29,105.83 C78.04,102.23 85.24,102.23 82.89,105.83 C80.53,109.43 86.4,108.42 90,108 C93.6,107.58 100.27,106.28 97.76,109.88 C95.24,113.48 102.44,113.48 101.36,109.88 C100.27,106.28 104.4,108.2 108,108 C111.6,107.8 117.06,110.17 114.57,106.57 C112.08,102.97 119.28,102.97 118.17,106.57 C117.06,110.17 122.4,107.58 126,108 C129.6,108.42 135.46,109.76 133.82,106.16 C132.17,102.56 139.37,102.56 137.42,106.16 C135.46,109.76 140.4,108.09 144,108 M0,126 C3.6,126.15 8.93,123.53 7.09,127.13 C5.24,130.73 12.44,130.73 10.69,127.13 C8.93,123.53 14.4,125.52 18,126 C21.6,126.48 26.51,128.46 25.42,124.86 C24.32,121.26 31.52,121.26 29.02,124.86 C26.51,128.46 32.4,125.45 36,126 C39.6,126.55 44.61,128.27 43.15,124.67 C41.7,121.07 48.9,121.07 46.75,124.67 C44.61,128.27 50.4,126.08 54,126 C57.6,125.92 63.19,124.67 60.69,128.27 C58.19,131.87 65.39,131.87 64.29,128.27 C63.19,124.67 68.4,126.31 72,126 C75.6,125.69 81.07,123.66 79.36,127.26 C77.66,130.86 84.86,130.86 82.96,127.26 C81.07,123.66 86.4,126.16 90,126 C93.6,125.84 100.32,123.7 97.83,127.3 C95.33,130.9 102.53,130.9 101.43,127.3 C100.32,123.7 104.4,126.05 108,126 C111.6,125.95 116.81,123.71 114.94,127.31 C113.08,130.91 120.28,130.91 118.54,127.31 C116.81,123.71 122.4,126.07 126,126 C129.6,125.93 134.56,124.07 133.19,127.67 C131.82,131.27 139.02,131.27 136.79,127.67 C134.56,124.07 140.4,126.22 144,126 M0,144 C3.6,144.64 8.6,142.47 6.74,146.07 C4.88,149.67 12.08,149.67 10.34,146.07 C8.6,142.47 14.4,143.76 18,144 C21.6,144.24 27.04,142.07 25.11,145.67 C23.19,149.27 30.39,149.27 28.71,145.67 C27.04,142.07 32.4,143.54 36,144 C39.6,144.46 44.85,145.36 42.78,141.76 C40.71,138.16 47.91,138.16 46.38,141.76 C44.85,145.36 50.4,143.41 54,144 C57.6,144.59 62.02,145.94 60.49,142.34 C58.96,138.74 66.16,138.74 64.09,142.34 C62.02,145.94 68.4,144.42 72,144 C75.6,143.58 80.56,142.3 79.11,145.9 C77.67,149.5 84.87,149.5 82.71,145.9 C80.56,142.3 86.4,144.65 90,144 C93.6,143.35 98.69,142.54 97.07,146.14 C95.44,149.74 102.64,149.74 100.67,146.14 C98.69,142.54 104.4,144.59 108,144 C111.6,143.41 117.03,142.17 115,145.77 C112.98,149.37 120.18,149.37 118.6,145.77 C117.03,142.17 122.4,144.23 126,144 C129.6,143.77 135.61,141.85 133.21,145.45 C130.8,149.05 138,149.05 136.81,145.45 C135.61,141.85 140.4,143.74 144,144 M0,162 C3.6,162.02 9.62,160.62 7.64,164.22 C5.67,167.82 12.87,167.82 11.24,164.22 C9.62,160.62 14.4,161.45 18,162 C21.6,162.55 27.39,163.33 25.88,159.73 C24.38,156.13 31.58,156.13 29.48,159.73 C27.39,163.33 32.4,161.39 36,162 C39.6,162.61 44.54,160.29 42.58,163.89 C40.63,167.49 47.83,167.49 46.18,163.89 C44.54,160.29 50.4,162.02 54,162 C57.6,161.98 62.43,163.17 61.06,159.57 C59.69,155.97 66.89,155.97 64.66,159.57 C62.43,163.17 68.4,161.99 72,162 C75.6,162.01 81.32,164.49 79.33,160.89 C77.35,157.29 84.55,157.29 82.93,160.89 C81.32,164.49 86.4,162.6 90,162 C93.6,161.4 98.2,163.52 96.57,159.92 C94.94,156.32 102.14,156.32 100.17,159.92 C98.2,163.52 104.4,162.35 108,162 C111.6,161.65 116.55,163.25 114.56,159.65 C112.58,156.05 119.78,156.05 118.16,159.65 C116.55,163.25 122.4,161.43 126,162 C129.6,162.57 135.6,163.19 133.47,159.59 C131.34,155.99 138.54,155.99 137.07,159.59 C135.6,163.19 140.4,162.17 144,162 M0,180 C3.6,180.07 9.18,182.41 6.86,178.81 C4.54,175.21 11.74,175.21 10.46,178.81 C9.18,182.41 14.4,179.42 18,180 C21.6,180.58 26.5,178.04 24.9,181.64 C23.29,185.24 30.49,185.24 28.5,181.64 C26.5,178.04 32.4,179.89 36,180 C39.6,180.11 44.8,178.15 43.46,181.75 C42.12,185.35 49.32,185.35 47.06,181.75 C44.8,178.15 50.4,179.8 54,180 C57.6,180.2 62.3,181.57 61.14,177.97 C59.99,174.37 67.19,174.37 64.74,177.97 C62.3,181.57 68.4,180.45 72,180 C75.6,179.55 81.19,177.57 79.43,181.17 C77.68,184.77 84.88,184.77 83.03,181.17 C81.19,177.57 86.4,179.93 90,180 C93.6,180.07 98.53,182.16 96.72,178.56 C94.92,174.96 102.12,174.96 100.32,178.56 C98.53,182.16 104.4,179.65 108,180 C111.6,180.35 116.84,177.96 115.6,181.56 C114.35,185.16 121.55,185.16 119.2,181.56 C116.84,177.96 122.4,179.33 126,180 C129.6,180.67 135.42,178 132.96,181.6 C130.51,185.2 137.71,185.2 136.56,181.6 C135.42,178 140.4,179.44 144,180 M0,198 C3.6,198.58 10.05,196.07 7.77,199.67 C5.49,203.27 12.69,203.27 11.37,199.67 C10.05,196.07 14.4,198.48 18,198 C21.6,197.52 27.41,199.38 25.32,195.78 C23.24,192.18 30.44,192.18 28.92,195.78 C27.41,199.38 32.4,197.47 36,198 C39.6,198.53 45.24,200.25 42.73,196.65 C40.22,193.05 47.42,193.05 46.33,196.65 C45.24,200.25 50.4,197.37 54,198 C57.6,198.63 62.64,199.09 61.19,195.49 C59.75,191.89 66.95,191.89 64.79,195.49 C62.64,199.09 68.4,198.33 72,198 C75.6,197.67 80.5,196.24 78.54,199.84 C76.58,203.44 83.78,203.44 82.14,199.84 C80.5,196.24 86.4,197.8 90,198 C93.6,198.2 99.2,196.55 97.5,200.15 C95.79,203.75 102.99,203.75 101.1,200.15 C99.2,196.55 104.4,198.54 108,198 C111.6,197.46 117.46,200.49 115.02,196.89 C112.57,193.29 119.77,193.29 118.62,196.89 C117.46,200.49 122.4,198.61 126,198 C129.6,197.39 134.79,195.95 133.71,199.55 C132.63,203.15 139.83,203.15 137.31,199.55 C134.79,195.95 140.4,198.61 144,198 M18,0 C17.46,3.6 19.26,8.33 15.66,6.71 C12.06,5.09 12.06,12.29 15.66,10.31 C19.26,8.33 17.59,14.4 18,18 C18.41,21.6 15.72,26.65 19.32,24.87 C22.92,23.09 22.92,30.29 19.32,28.47 C15.72,26.65 18.01,32.4 18,36 C17.99,39.6 19.54,44.47 15.94,43.06 C12.34,41.66 12.34,48.86 15.94,46.66 C19.54,44.47 18.7,50.4 18,54 C17.3,57.6 19.82,62.35 16.22,61.03 C12.62,59.72 12.62,66.92 16.22,64.63 C19.82,62.35 18.06,68.4 18,72 C17.94,75.6 16.82,81.35 20.42,79.4 C24.02,77.44 24.02,84.64 20.42,83 C16.82,81.35 17.91,86.4 18,90 C18.09,93.6 16.74,98.87 20.34,97.54 C23.94,96.22 23.94,103.42 20.34,101.14 C16.74,98.87 18.04,104.4 18,108 C17.96,111.6 19.15,116.97 15.55,115.14 C11.95,113.31 11.95,120.51 15.55,118.74 C19.15,116.97 18.06,122.4 18,126 C17.94,129.6 16.09,135.2 19.69,133.14 C23.29,131.08 23.29,138.28 19.69,136.74 C16.09,135.2 17.69,140.4 18,144 C18.31,147.6 16.78,153.17 20.38,150.86 C23.98,148.55 23.98,155.75 20.38,154.46 C16.78,153.17 17.67,158.4 18,162 C18.33,165.6 16.67,171.49 20.27,168.99 C23.87,166.49 23.87,173.69 20.27,172.59 C16.67,171.49 18.44,176.4 18,180 C17.56,183.6 19.87,188.57 16.27,187.29 C12.67,186.01 12.67,193.21 16.27,190.89 C19.87,188.57 18.09,194.4 18,198 C17.91,201.6 16.44,207.45 20.04,205.55 C23.64,203.64 23.64,210.84 20.04,209.15 C16.44,207.45 18.7,212.4 18,216 M36,0 C35.81,3.6 37.43,8.81 33.83,6.51 C30.23,4.21 30.23,11.41 33.83,10.11 C37.43,8.81 36.66,14.4 36,18 C35.34,21.6 37.68,26.4 34.08,25.19 C30.48,23.97 30.48,31.17 34.08,28.79 C37.68,26.4 35.71,32.4 36,36 C36.29,39.6 37.49,45.09 33.89,43.36 C30.29,41.63 30.29,48.83 33.89,46.96 C37.49,45.09 35.43,50.4 36,54 C36.57,57.6 37.68,62.82 34.08,60.59 C30.48,58.36 30.48,65.56 34.08,64.19 C37.68,62.82 35.93,68.4 36,72 C36.07,75.6 34.48,81.33 38.08,79.77 C41.68,78.21 41.68,85.41 38.08,83.37 C34.48,81.33 35.6,86.4 36,90 C36.4,93.6 37.73,98.76 34.13,96.76 C30.53,94.75 30.53,101.95 34.13,100.36 C37.73,98.76 36.65,104.4 36,108 C35.35,111.6 37.28,115.92 33.68,114.5 C30.08,113.08 30.08,120.28 33.68,118.1 C37.28,115.92 36.47,122.4 36,126 C35.53,129.6 33.59,134.58 37.19,132.66 C40.79,130.73 40.79,137.93 37.19,136.26 C33.59,134.58 36.58,140.4 36,144 C35.42,147.6 34.25,153.63 37.85,151.76 C41.45,149.9 41.45,157.1 37.85,155.36 C34.25,153.63 35.41,158.4 36,162 C36.59,165.6 38.49,171.05 34.89,169.51 C31.29,167.98 31.29,175.18 34.89,173.11 C38.49,171.05 36.19,176.4 36,180 C35.81,183.6 38.11,189.39 34.51,187.27 C30.91,185.16 30.91,192.36 34.51,190.87 C38.11,189.39 36.58,194.4 36,198 C35.42,201.6 33.98,206.93 37.58,205.32 C41.18,203.71 41.18,210.91 37.58,208.92 C33.98,206.93 35.65,212.4 36,216 M54,0 C53.35,3.6 55.92,8.42 52.32,6.67 C48.72,4.91 48.72,12.11 52.32,10.27 C55.92,8.42 54.1,14.4 54,18 C53.9,21.6 55.63,26.4 52.03,25.23 C48.43,24.06 48.43,31.26 52.03,28.83 C55.63,26.4 54.58,32.4 54,36 C53.42,39.6 51.51,45.91 55.11,43.56 C58.71,41.22 58.71,48.42 55.11,47.16 C51.51,45.91 54.18,50.4 54,54 C53.82,57.6 51.74,63.16 55.34,61.39 C58.94,59.61 58.94,66.81 55.34,64.99 C51.74,63.16 54.66,68.4 54,72 C53.34,75.6 52.37,80.63 55.97,78.94 C59.57,77.24 59.57,84.44 55.97,82.54 C52.37,80.63 53.82,86.4 54,90 C54.18,93.6 55.44,99.41 51.84,97.29 C48.24,95.16 48.24,102.36 51.84,100.89 C55.44,99.41 54.08,104.4 54,108 C53.92,111.6 52.01,117.18 55.61,115.28 C59.21,113.38 59.21,120.58 55.61,118.88 C52.01,117.18 53.29,122.4 54,126 C54.71,129.6 52.49,136.29 56.09,133.78 C59.69,131.28 59.69,138.48 56.09,137.38 C52.49,136.29 53.32,140.4 54,144 C54.68,147.6 51.88,152.69 55.48,151.08 C59.08,149.47 59.08,156.67 55.48,154.68 C51.88,152.69 54.21,158.4 54,162 C53.79,165.6 55.67,171.87 52.07,169.76 C48.47,167.65 48.47,174.85 52.07,173.36 C55.67,171.87 53.57,176.4 54,180 C54.43,183.6 55.66,188.41 52.06,186.85 C48.46,185.3 48.46,192.5 52.06,190.45 C55.66,188.41 54.25,194.4 54,198 C53.75,201.6 55.56,206.09 51.96,204.96 C48.36,203.83 48.36,211.03 51.96,208.56 C55.56,206.09 54.47,212.4 54,216 M72,0 C72.57,3.6 70.61,9.38 74.21,7.16 C77.81,4.95 77.81,12.15 74.21,10.76 C70.61,9.38 72.35,14.4 72,18 C71.65,21.6 74.13,26.69 70.53,25.28 C66.93,23.88 66.93,31.08 70.53,28.88 C74.13,26.69 72.35,32.4 72,36 C71.65,39.6 73.16,45.16 69.56,42.98 C65.96,40.8 65.96,48 69.56,46.58 C73.16,45.16 71.91,50.4 72,54 C72.09,57.6 69.62,63.48 73.22,61.25 C76.82,59.01 76.82,66.21 73.22,64.85 C69.62,63.48 72.66,68.4 72,72 C71.34,75.6 69.82,80.91 73.42,79.79 C77.02,78.67 77.02,85.87 73.42,83.39 C69.82,80.91 72.12,86.4 72,90 C71.88,93.6 70.07,98.9 73.67,96.57 C77.27,94.25 77.27,101.45 73.67,100.17 C70.07,98.9 72.66,104.4 72,108 C71.34,111.6 70.01,116.85 73.61,115.46 C77.21,114.06 77.21,121.26 73.61,119.06 C70.01,116.85 71.52,122.4 72,126 C72.48,129.6 74.41,134.79 70.81,132.92 C67.21,131.05 67.21,138.25 70.81,136.52 C74.41,134.79 72.65,140.4 72,144 C71.35,147.6 70.28,153.14 73.88,151.75 C77.48,150.35 77.48,157.55 73.88,155.35 C70.28,153.14 71.9,158.4 72,162 C72.1,165.6 73.88,170.8 70.28,168.49 C66.68,166.18 66.68,173.38 70.28,172.09 C73.88,170.8 71.98,176.4 72,180 C72.02,183.6 69.6,188.88 73.2,186.54 C76.8,184.21 76.8,191.41 73.2,190.14 C69.6,188.88 71.69,194.4 72,198 C72.31,201.6 74.11,206.58 70.51,204.96 C66.91,203.35 66.91,210.55 70.51,208.56 C74.11,206.58 71.42,212.4 72,216 M90,0 C89.67,3.6 91.89,8.06 88.29,6.59 C84.69,5.12 84.69,12.32 88.29,10.19 C91.89,8.06 90,14.4 90,18 C90,21.6 88.5,27.39 92.1,25.07 C95.7,22.74 95.7,29.94 92.1,28.67 C88.5,27.39 89.41,32.4 90,36 C90.59,39.6 88.29,44.85 91.89,42.86 C95.49,40.87 95.49,48.07 91.89,46.46 C88.29,44.85 89.85,50.4 90,54 C90.15,57.6 91.48,62.87 87.88,61.05 C84.28,59.22 84.28,66.42 87.88,64.65 C91.48,62.87 89.6,68.4 90,72 C90.4,75.6 91.56,80.46 87.96,78.82 C84.36,77.18 84.36,84.38 87.96,82.42 C91.56,80.46 90.59,86.4 90,90 C89.41,93.6 91.38,99.47 87.78,97.73 C84.18,95.99 84.18,103.19 87.78,101.33 C91.38,99.47 89.6,104.4 90,108 C90.4,111.6 91.19,116.53 87.59,115.11 C83.99,113.69 83.99,120.89 87.59,118.71 C91.19,116.53 90.52,122.4 90,126 C89.48,129.6 91.42,135.33 87.82,133.04 C84.22,130.75 84.22,137.95 87.82,136.64 C91.42,135.33 89.66,140.4 90,144 C90.34,147.6 92.42,153.06 88.82,150.7 C85.22,148.35 85.22,155.55 88.82,154.3 C92.42,153.06 89.61,158.4 90,162 C90.39,165.6 91.43,170.21 87.83,169.06 C84.23,167.92 84.23,175.12 87.83,172.66 C91.43,170.21 89.47,176.4 90,180 C90.53,183.6 88.2,189.04 91.8,187.19 C95.4,185.34 95.4,192.54 91.8,190.79 C88.2,189.04 89.41,194.4 90,198 C90.59,201.6 91.35,206.76 87.75,205.3 C84.15,203.85 84.15,211.05 87.75,208.9 C91.35,206.76 90.23,212.4 90,216 M108,0 C107.43,3.6 105.61,8.69 109.21,6.93 C112.81,5.17 112.81,12.37 109.21,10.53 C105.61,8.69 108.38,14.4 108,18 C107.62,21.6 109.83,27.42 106.23,25.13 C102.63,22.85 102.63,30.05 106.23,28.73 C109.83,27.42 108.72,32.4 108,36 C107.28,39.6 110.08,45.26 106.48,42.85 C102.88,40.43 102.88,47.63 106.48,46.45 C110.08,45.26 107.77,50.4 108,54 C108.23,57.6 110.2,62.99 106.6,61.39 C103,59.78 103,66.98 106.6,64.99 C110.2,62.99 107.6,68.4 108,72 C108.4,75.6 106.59,80.5 110.19,79.1 C113.79,77.7 113.79,84.9 110.19,82.7 C106.59,80.5 107.89,86.4 108,90 C108.11,93.6 109.33,99.21 105.73,97.51 C102.13,95.81 102.13,103.01 105.73,101.11 C109.33,99.21 108.29,104.4 108,108 C107.71,111.6 106.62,117.28 110.22,115.86 C113.82,114.43 113.82,121.63 110.22,119.46 C106.62,117.28 107.62,122.4 108,126 C108.38,129.6 106.33,135.96 109.93,133.7 C113.53,131.45 113.53,138.65 109.93,137.3 C106.33,135.96 108.37,140.4 108,144 C107.63,147.6 109.5,152.52 105.9,151.25 C102.3,149.97 102.3,157.17 105.9,154.85 C109.5,152.52 107.76,158.4 108,162 C108.24,165.6 109.22,170.4 105.62,168.57 C102.02,166.74 102.02,173.94 105.62,172.17 C109.22,170.4 107.48,176.4 108,180 C108.52,183.6 106.68,188.68 110.28,186.73 C113.88,184.78 113.88,191.98 110.28,190.33 C106.68,188.68 108.03,194.4 108,198 C107.97,201.6 110.46,207.02 106.86,205.62 C103.26,204.22 103.26,211.42 106.86,209.22 C110.46,207.02 108.33,212.4 108,216 M126,0 C125.88,3.6 127.88,9.22 124.28,6.86 C120.68,4.51 120.68,11.71 124.28,10.46 C127.88,9.22 125.95,14.4 126,18 C126.05,21.6 123.63,27.68 127.23,25.89 C130.83,24.11 130.83,31.31 127.23,29.49 C123.63,27.68 125.74,32.4 126,36 C126.26,39.6 124.36,44.77 127.96,42.87 C131.56,40.97 131.56,48.17 127.96,46.47 C124.36,44.77 125.45,50.4 126,54 C126.55,57.6 128.24,63.14 124.64,61.02 C121.04,58.89 121.04,66.09 124.64,64.62 C128.24,63.14 126.11,68.4 126,72 C125.89,75.6 127.97,81.2 124.37,79.78 C120.77,78.37 120.77,85.57 124.37,83.38 C127.97,81.2 126.63,86.4 126,90 C125.37,93.6 127.74,98.21 124.14,96.64 C120.54,95.07 120.54,102.27 124.14,100.24 C127.74,98.21 125.47,104.4 126,108 C126.53,111.6 127.84,116.24 124.24,114.89 C120.64,113.55 120.64,120.75 124.24,118.49 C127.84,116.24 125.93,122.4 126,126 C126.07,129.6 123.5,134.49 127.1,132.67 C130.7,130.84 130.7,138.04 127.1,136.27 C123.5,134.49 125.76,140.4 126,144 C126.24,147.6 123.79,154.3 127.39,151.92 C130.99,149.54 130.99,156.74 127.39,155.52 C123.79,154.3 125.76,158.4 126,162 C126.24,165.6 127.86,170.91 124.26,169.06 C120.66,167.21 120.66,174.41 124.26,172.66 C127.86,170.91 126.03,176.4 126,180 C125.97,183.6 127.45,189.69 123.85,187.78 C120.25,185.87 120.25,193.07 123.85,191.38 C127.45,189.69 125.43,194.4 126,198 C126.57,201.6 123.69,206.65 127.29,205.54 C130.89,204.43 130.89,211.63 127.29,209.14 C123.69,206.65 125.42,212.4 126,216 M0,0 L144,0 L144,216 L0,216 L0,0 "></path></svg>