<svg xmlns="http://www.w3.org/2000/svg" version="1.0" width="144mm" height="144mm" viewBox="0 0 144 144"><path fill="none" stroke="black" stroke-width="0.1" d="M0,18 C3.6,17.21 9.3,18.87 7.59,15.2 C5.89,11.52 13.23,11.52 11.26,15.2 C9.3,18.87 14.4,16.81 18,18 C21.6,19.19 27.87,16.19 25.56,19.87 C23.24,23.54 30.58,23.54 29.23,19.87 C27.87,16.19 32.4,17.51 36,18 C39.6,18.49 45.33,21.06 44.49,17.39 C43.65,13.72 51,13.72 48.17,17.39 C45.33,21.06 50.4,16.85 54,18 C57.6,19.15 65.29,18.89 62.36,15.22 C59.43,11.55 66.78,11.55 66.04,15.22 C65.29,18.89 68.4,17.64 72,18 C75.6,18.36 80.32,19.99 79.36,16.32 C78.39,12.65 85.73,12.65 83.03,16.32 C80.32,19.99 86.4,18.35 90,18 C93.6,17.65 97.84,20.19 96.52,16.51 C95.21,12.84 102.55,12.84 100.2,16.51 C97.84,20.19 104.4,17.61 108,18 C111.6,18.39 118.68,19.22 115.91,15.55 C113.13,11.88 120.48,11.88 119.58,15.55 C118.68,19.22 122.4,18.59 126,18 C129.6,17.41 135.25,21.05 132.45,17.38 C129.65,13.71 137,13.71 136.12,17.38 C135.25,21.05 140.4,17.49 144,18 M0,36 C3.6,35.41 9.06,37.11 6.05,33.44 C3.04,29.77 10.38,29.77 9.72,33.44 C9.06,37.11 14.4,36.73 18,36 C21.6,35.27 27.15,37.21 26.21,33.54 C25.27,29.86 32.61,29.86 29.88,33.54 C27.15,37.21 32.4,35.09 36,36 C39.6,36.91 46.45,38.78 43.66,35.11 C40.88,31.44 48.22,31.44 47.34,35.11 C46.45,38.78 50.4,35.77 54,36 C57.6,36.23 63.7,35.37 61.77,39.04 C59.84,42.71 67.18,42.71 65.44,39.04 C63.7,35.37 68.4,35.81 72,36 C75.6,36.19 81.31,38.15 79.59,34.48 C77.87,30.81 85.21,30.81 83.26,34.48 C81.31,38.15 86.4,34.78 90,36 C93.6,37.22 100.91,34.48 97.84,38.16 C94.76,41.83 102.1,41.83 101.51,38.16 C100.91,34.48 104.4,35.06 108,36 C111.6,36.94 119.1,39.06 116.26,35.39 C113.42,31.72 120.77,31.72 119.93,35.39 C119.1,39.06 122.4,34.82 126,36 C129.6,37.18 134.87,34.49 133.72,38.16 C132.57,41.83 139.91,41.83 137.39,38.16 C134.87,34.49 140.4,35.57 144,36 M0,54 C3.6,53.82 9.99,55.14 7.99,51.47 C5.99,47.8 13.33,47.8 11.66,51.47 C9.99,55.14 14.4,53.94 18,54 C21.6,54.06 27.37,54.8 25.44,51.12 C23.52,47.45 30.86,47.45 29.12,51.12 C27.37,54.8 32.4,54.45 36,54 C39.6,53.55 42.54,51.5 42.03,55.17 C41.52,58.85 48.87,58.85 45.71,55.17 C42.54,51.5 50.4,55 54,54 C57.6,53 61.18,51.88 60.45,55.55 C59.72,59.22 67.06,59.22 64.12,55.55 C61.18,51.88 68.4,53.34 72,54 C75.6,54.66 80.67,55.33 78.53,51.66 C76.38,47.99 83.72,47.99 82.2,51.66 C80.67,55.33 86.4,54.73 90,54 C93.6,53.27 100.32,51.17 97.56,54.84 C94.79,58.51 102.13,58.51 101.23,54.84 C100.32,51.17 104.4,54.65 108,54 C111.6,53.35 117.82,55.74 115.66,52.07 C113.51,48.4 120.85,48.4 119.34,52.07 C117.82,55.74 122.4,53.9 126,54 C129.6,54.1 137.2,55.02 134.25,51.35 C131.3,47.68 138.64,47.68 137.92,51.35 C137.2,55.02 140.4,55.06 144,54 M0,72 C3.6,71.4 9.05,70.21 6.52,73.88 C3.98,77.56 11.32,77.56 10.19,73.88 C9.05,70.21 14.4,73.1 18,72 C21.6,70.9 28.52,69.01 25.48,72.68 C22.44,76.35 29.78,76.35 29.15,72.68 C28.52,69.01 32.4,71.92 36,72 C39.6,72.08 43.59,74.07 43.03,70.4 C42.46,66.72 49.81,66.72 46.7,70.4 C43.59,74.07 50.4,71.75 54,72 C57.6,72.25 62.53,71.42 59.87,75.09 C57.2,78.76 64.54,78.76 63.54,75.09 C62.53,71.42 68.4,71.73 72,72 C75.6,72.27 79.38,70.65 78.26,74.33 C77.14,78 84.48,78 81.93,74.33 C79.38,70.65 86.4,73.3 90,72 C93.6,70.7 98.91,74.35 96.12,70.68 C93.33,67.01 100.67,67.01 99.79,70.68 C98.91,74.35 104.4,72.26 108,72 C111.6,71.74 118.01,69.8 115.58,73.47 C113.16,77.14 120.51,77.14 119.26,73.47 C118.01,69.8 122.4,71.08 126,72 C129.6,72.92 134.32,69.03 132.46,72.71 C130.59,76.38 137.94,76.38 136.13,72.71 C134.32,69.03 140.4,71.31 144,72 M0,90 C3.6,88.82 9.16,92.94 6.57,89.27 C3.99,85.59 11.33,85.59 10.25,89.27 C9.16,92.94 14.4,88.68 18,90 C21.6,91.32 27.16,90.53 25.07,86.86 C22.98,83.19 30.32,83.19 28.74,86.86 C27.16,90.53 32.4,89.94 36,90 C39.6,90.06 45.67,88.41 44.02,92.08 C42.37,95.75 49.71,95.75 47.69,92.08 C45.67,88.41 50.4,89.47 54,90 C57.6,90.53 61.77,90.74 60.73,87.07 C59.7,83.4 67.04,83.4 64.4,87.07 C61.77,90.74 68.4,89.79 72,90 C75.6,90.21 80.98,86.93 80.18,90.6 C79.39,94.27 86.73,94.27 83.86,90.6 C80.98,86.93 86.4,90.01 90,90 C93.6,89.99 99.9,93.13 98.01,89.46 C96.12,85.79 103.46,85.79 101.68,89.46 C99.9,93.13 104.4,89.74 108,90 C111.6,90.26 117.06,89.32 116.01,92.99 C114.96,96.67 122.3,96.67 119.68,92.99 C117.06,89.32 122.4,91.15 126,90 C129.6,88.85 135.26,88.92 133.3,92.59 C131.34,96.27 138.68,96.27 136.97,92.59 C135.26,88.92 140.4,89.82 144,90 M0,108 C3.6,106.84 10.5,106.73 7.74,110.4 C4.98,114.07 12.32,114.07 11.41,110.4 C10.5,106.73 14.4,109.31 18,108 C21.6,106.69 27.31,110.47 24.49,106.8 C21.67,103.12 29.01,103.12 28.16,106.8 C27.31,110.47 32.4,108.03 36,108 C39.6,107.97 45.74,107.29 42.88,110.97 C40.02,114.64 47.36,114.64 46.55,110.97 C45.74,107.29 50.4,107.94 54,108 C57.6,108.06 63.86,108.99 62.35,105.32 C60.84,101.64 68.18,101.64 66.02,105.32 C63.86,108.99 68.4,108.15 72,108 C75.6,107.85 80.01,111.09 78.38,107.42 C76.75,103.75 84.09,103.75 82.05,107.42 C80.01,111.09 86.4,108.24 90,108 C93.6,107.76 99.18,109.86 98.5,106.18 C97.81,102.51 105.16,102.51 102.17,106.18 C99.18,109.86 104.4,108.72 108,108 C111.6,107.28 115.01,104.92 114.07,108.6 C113.13,112.27 120.48,112.27 117.74,108.6 C115.01,104.92 122.4,107.4 126,108 C129.6,108.6 135.4,105.62 133.38,109.3 C131.36,112.97 138.71,112.97 137.05,109.3 C135.4,105.62 140.4,107.39 144,108 M0,126 C3.6,127.22 9.24,127.85 8.25,124.18 C7.25,120.5 14.6,120.5 11.92,124.18 C9.24,127.85 14.4,125.04 18,126 C21.6,126.96 27.73,129.02 26.23,125.35 C24.73,121.68 32.07,121.68 29.9,125.35 C27.73,129.02 32.4,126.68 36,126 C39.6,125.32 43.19,128.41 42.18,124.74 C41.16,121.07 48.51,121.07 45.85,124.74 C43.19,128.41 50.4,125.57 54,126 C57.6,126.43 63,126.72 61.25,123.05 C59.5,119.38 66.85,119.38 64.92,123.05 C63,126.72 68.4,127.07 72,126 C75.6,124.93 83.08,127.61 80.19,123.94 C77.3,120.27 84.65,120.27 83.86,123.94 C83.08,127.61 86.4,125.93 90,126 C93.6,126.07 101.22,125.29 98.43,128.96 C95.63,132.63 102.97,132.63 102.1,128.96 C101.22,125.29 104.4,124.86 108,126 C111.6,127.14 116.15,127.29 114.87,123.62 C113.59,119.94 120.93,119.94 118.54,123.62 C116.15,127.29 122.4,124.89 126,126 C129.6,127.11 133.87,126.77 132.82,123.1 C131.77,119.43 139.11,119.43 136.49,123.1 C133.87,126.77 140.4,124.68 144,126 M18,0 C19.1,3.6 20.03,10.72 16.36,7.85 C12.69,4.97 12.69,12.32 16.36,11.52 C20.03,10.72 17.9,14.4 18,18 C18.1,21.6 18.7,24.74 15.02,24.09 C11.35,23.44 11.35,30.79 15.02,27.76 C18.7,24.74 17.74,32.4 18,36 C18.26,39.6 20.28,43.87 16.61,41.91 C12.94,39.95 12.94,47.3 16.61,45.59 C20.28,43.87 17.99,50.4 18,54 C18.01,57.6 17.06,64.12 20.73,62.36 C24.4,60.6 24.4,67.95 20.73,66.03 C17.06,64.12 19.03,68.4 18,72 C16.97,75.6 15.22,79.71 18.9,78.24 C22.57,76.77 22.57,84.11 18.9,81.91 C15.22,79.71 19.16,86.4 18,90 C16.84,93.6 20.83,100.32 17.16,98.23 C13.49,96.13 13.49,103.48 17.16,101.9 C20.83,100.32 17.17,104.4 18,108 C18.83,111.6 19.82,116.5 16.15,114.37 C12.48,112.24 12.48,119.59 16.15,118.04 C19.82,116.5 18.72,122.4 18,126 C17.28,129.6 20.85,133.82 17.17,132.73 C13.5,131.65 13.5,138.99 17.17,136.41 C20.85,133.82 17.76,140.4 18,144 M36,0 C36.69,3.6 36.94,11.14 33.27,8.1 C29.6,5.07 29.6,12.42 33.27,11.78 C36.94,11.14 36.45,14.4 36,18 C35.55,21.6 33.67,26.02 37.34,25.18 C41.01,24.34 41.01,31.68 37.34,28.85 C33.67,26.02 35.68,32.4 36,36 C36.32,39.6 38.48,46.59 34.81,44.3 C31.14,42.02 31.14,49.36 34.81,47.98 C38.48,46.59 36.41,50.4 36,54 C35.59,57.6 33.83,62.64 37.5,60.85 C41.17,59.06 41.17,66.4 37.5,64.52 C33.83,62.64 35.42,68.4 36,72 C36.58,75.6 36.6,82.13 32.92,79 C29.25,75.88 29.25,83.22 32.92,82.68 C36.6,82.13 36.67,86.4 36,90 C35.33,93.6 34.11,98.81 37.78,96.16 C41.46,93.5 41.46,100.85 37.78,99.83 C34.11,98.81 36.93,104.4 36,108 C35.07,111.6 33.27,117.38 36.95,116.47 C40.62,115.57 40.62,122.91 36.95,120.14 C33.27,117.38 36.57,122.4 36,126 C35.43,129.6 32.85,135.9 36.53,132.75 C40.2,129.6 40.2,136.95 36.53,136.42 C32.85,135.9 36.9,140.4 36,144 M54,0 C53.64,3.6 57.06,8.71 53.39,6.68 C49.72,4.65 49.72,11.99 53.39,10.35 C57.06,8.71 54.85,14.4 54,18 C53.15,21.6 51.57,26.28 55.24,24.56 C58.91,22.83 58.91,30.18 55.24,28.23 C51.57,26.28 55.1,32.4 54,36 C52.9,39.6 55.27,44.95 51.6,44.41 C47.93,43.87 47.93,51.21 51.6,48.08 C55.27,44.95 54.23,50.4 54,54 C53.77,57.6 51.59,62.87 55.26,60.13 C58.94,57.39 58.94,64.73 55.26,63.8 C51.59,62.87 54.49,68.4 54,72 C53.51,75.6 53.12,80.1 56.79,78.57 C60.46,77.04 60.46,84.39 56.79,82.24 C53.12,80.1 53.17,86.4 54,90 C54.83,93.6 51.38,98.28 55.05,97.24 C58.72,96.2 58.72,103.55 55.05,100.91 C51.38,98.28 54.83,104.4 54,108 C53.17,111.6 51.81,118.08 55.48,116.18 C59.15,114.29 59.15,121.63 55.48,119.85 C51.81,118.08 53.94,122.4 54,126 C54.06,129.6 51.38,133.88 55.05,132.91 C58.72,131.93 58.72,139.28 55.05,136.58 C51.38,133.88 53.7,140.4 54,144 M72,0 C71.58,3.6 68.98,9.09 72.65,6.96 C76.32,4.83 76.32,12.18 72.65,10.63 C68.98,9.09 71.48,14.4 72,18 C72.52,21.6 73.96,29.16 70.29,26.15 C66.62,23.14 66.62,30.48 70.29,29.82 C73.96,29.16 72.72,32.4 72,36 C71.28,39.6 70.32,45.45 73.99,43.28 C77.67,41.11 77.67,48.45 73.99,46.95 C70.32,45.45 71.01,50.4 72,54 C72.99,57.6 69.21,61.05 72.88,59.84 C76.55,58.63 76.55,65.97 72.88,63.51 C69.21,61.05 72.51,68.4 72,72 C71.49,75.6 72.96,81.92 69.29,79.3 C65.62,76.68 65.62,84.03 69.29,82.97 C72.96,81.92 73.16,86.4 72,90 C70.84,93.6 68.94,97.79 72.62,96.36 C76.29,94.94 76.29,102.29 72.62,100.04 C68.94,97.79 70.91,104.4 72,108 C73.09,111.6 70.34,118.89 74.01,115.89 C77.68,112.88 77.68,120.23 74.01,119.56 C70.34,118.89 72.54,122.4 72,126 C71.46,129.6 69.06,135.13 72.73,134.45 C76.41,133.77 76.41,141.11 72.73,138.12 C69.06,135.13 72.42,140.4 72,144 M90,0 C91.03,3.6 87.6,9.18 91.27,6.48 C94.94,3.78 94.94,11.12 91.27,10.15 C87.6,9.18 89.08,14.4 90,18 C90.92,21.6 88.09,27.93 91.76,25.96 C95.44,23.99 95.44,31.33 91.76,29.63 C88.09,27.93 88.9,32.4 90,36 C91.1,39.6 91.87,45.47 88.2,42.6 C84.53,39.72 84.53,47.07 88.2,46.27 C91.87,45.47 90.16,50.4 90,54 C89.84,57.6 92.68,63.5 89.01,61.31 C85.34,59.13 85.34,66.47 89.01,64.98 C92.68,63.5 89.41,68.4 90,72 C90.59,75.6 88.01,82.27 91.68,79.29 C95.35,76.3 95.35,83.65 91.68,82.96 C88.01,82.27 89.27,86.4 90,90 C90.73,93.6 90.96,99.78 87.29,97.52 C83.62,95.25 83.62,102.6 87.29,101.19 C90.96,99.78 91.24,104.4 90,108 C88.76,111.6 90.78,117.7 87.11,114.81 C83.43,111.93 83.43,119.27 87.11,118.48 C90.78,117.7 90.08,122.4 90,126 C89.92,129.6 92.43,133.96 88.75,133.1 C85.08,132.23 85.08,139.58 88.75,136.77 C92.43,133.96 90.52,140.4 90,144 M108,0 C107.31,3.6 105.6,10.33 109.27,7.27 C112.95,4.21 112.95,11.55 109.27,10.94 C105.6,10.33 107.42,14.4 108,18 C108.58,21.6 109.32,25.13 105.64,24.18 C101.97,23.23 101.97,30.58 105.64,27.85 C109.32,25.13 108.69,32.4 108,36 C107.31,39.6 105.35,46.07 109.02,43.14 C112.7,40.21 112.7,47.55 109.02,46.81 C105.35,46.07 109.2,50.4 108,54 C106.8,57.6 108.83,64.78 105.16,61.67 C101.49,58.56 101.49,65.9 105.16,65.34 C108.83,64.78 107.29,68.4 108,72 C108.71,75.6 110.57,80.58 106.9,78.47 C103.23,76.36 103.23,83.7 106.9,82.14 C110.57,80.58 109.11,86.4 108,90 C106.89,93.6 105.61,98.38 109.28,96.83 C112.95,95.29 112.95,102.63 109.28,100.5 C105.61,98.38 108.58,104.4 108,108 C107.42,111.6 109.34,117.53 105.66,114.67 C101.99,111.82 101.99,119.16 105.66,118.34 C109.34,117.53 107.89,122.4 108,126 C108.11,129.6 109.11,133.19 105.44,132.33 C101.77,131.46 101.77,138.8 105.44,136 C109.11,133.19 107.52,140.4 108,144 M126,0 C127.12,3.6 123.79,11.08 127.46,8.02 C131.13,4.96 131.13,12.31 127.46,11.7 C123.79,11.08 127.04,14.4 126,18 C124.96,21.6 123.98,26.08 127.66,25.46 C131.33,24.85 131.33,32.19 127.66,29.14 C123.98,26.08 127.23,32.4 126,36 C124.77,39.6 124.05,43.82 127.72,42.69 C131.39,41.56 131.39,48.9 127.72,46.36 C124.05,43.82 126.78,50.4 126,54 C125.22,57.6 124.21,63.96 127.88,61.33 C131.55,58.7 131.55,66.05 127.88,65 C124.21,63.96 125.04,68.4 126,72 C126.96,75.6 124.75,80.99 128.42,80.17 C132.09,79.35 132.09,86.69 128.42,83.84 C124.75,80.99 126.04,86.4 126,90 C125.96,93.6 126.65,96.42 122.98,95.89 C119.31,95.36 119.31,102.71 122.98,99.56 C126.65,96.42 125.94,104.4 126,108 C126.06,111.6 128.58,118.13 124.91,116.44 C121.24,114.76 121.24,122.1 124.91,120.12 C128.58,118.13 127.01,122.4 126,126 C124.99,129.6 123.02,135.09 126.69,133.25 C130.36,131.4 130.36,138.75 126.69,136.92 C123.02,135.09 125.72,140.4 126,144 M0,0 L144,0 L144,144 L0,144 L0,0 "></path></svg>