<svg xmlns="http://www.w3.org/2000/svg" version="1.0" width="144mm" height="144mm" viewBox="0 0 144 144"><path fill="none" stroke="black" stroke-width="0.1" d="M0,18 C3.6,17.89 9.32,20.75 6.89,16.77 C4.45,12.79 12.41,12.79 10.86,16.77 C9.32,20.75 14.4,18.91 18,18 C21.6,17.09 26.97,15.12 24.13,19.1 C21.29,23.07 29.25,23.07 28.11,19.1 C26.97,15.12 32.4,16.96 36,18 C39.6,19.04 44.11,19.81 42.03,15.84 C39.95,11.86 47.91,11.86 46.01,15.84 C44.11,19.81 50.4,18.9 54,18 C57.6,17.1 62.84,15.02 61.38,19 C59.92,22.97 67.88,22.97 65.36,19 C62.84,15.02 68.4,18.41 72,18 C75.6,17.59 82.25,15.49 79.94,19.47 C77.62,23.45 85.58,23.45 83.92,19.47 C82.25,15.49 86.4,18.36 90,18 C93.6,17.64 99.44,15.09 97.21,19.07 C94.97,23.05 102.92,23.05 101.18,19.07 C99.44,15.09 104.4,18.72 108,18 C111.6,17.28 117.7,20.02 115.64,16.05 C113.59,12.07 121.54,12.07 119.62,16.05 C117.7,20.02 122.4,18.55 126,18 C129.6,17.45 134.94,16.31 133.4,20.29 C131.86,24.27 139.81,24.27 137.38,20.29 C134.94,16.31 140.4,18.2 144,18 M0,36 C3.6,36.92 9.09,32.99 7.54,36.96 C5.99,40.94 13.95,40.94 11.52,36.96 C9.09,32.99 14.4,36.85 18,36 C21.6,35.15 27.87,38.69 24.88,34.71 C21.88,30.73 29.84,30.73 28.85,34.71 C27.87,38.69 32.4,35.73 36,36 C39.6,36.27 46.51,34.48 43.53,38.46 C40.55,42.43 48.51,42.43 47.51,38.46 C46.51,34.48 50.4,35.73 54,36 C57.6,36.27 61.91,38.69 60.96,34.71 C60.01,30.73 67.97,30.73 64.94,34.71 C61.91,38.69 68.4,35.46 72,36 C75.6,36.54 80.9,37.65 78.73,33.68 C76.55,29.7 84.51,29.7 82.7,33.68 C80.9,37.65 86.4,36.91 90,36 C93.6,35.09 98.17,37.29 96.75,33.31 C95.34,29.33 103.29,29.33 100.73,33.31 C98.17,37.29 104.4,36.92 108,36 C111.6,35.08 118.05,33.33 114.99,37.31 C111.93,41.29 119.89,41.29 118.97,37.31 C118.05,33.33 122.4,36.48 126,36 C129.6,35.52 134.51,39.04 132.64,35.06 C130.77,31.09 138.73,31.09 136.62,35.06 C134.51,39.04 140.4,35.75 144,36 M0,54 C3.6,53.24 8.47,52.15 7.3,56.13 C6.14,60.11 14.09,60.11 11.28,56.13 C8.47,52.15 14.4,53.94 18,54 C21.6,54.06 26.92,51.19 24.51,55.16 C22.1,59.14 30.06,59.14 28.49,55.16 C26.92,51.19 32.4,54.47 36,54 C39.6,53.53 44.01,52.21 42.69,56.19 C41.38,60.16 49.33,60.16 46.67,56.19 C44.01,52.21 50.4,54.97 54,54 C57.6,53.03 62.62,56.88 60.65,52.91 C58.67,48.93 66.63,48.93 64.62,52.91 C62.62,56.88 68.4,53.47 72,54 C75.6,54.53 81.77,51.98 79.98,55.96 C78.19,59.94 86.15,59.94 83.96,55.96 C81.77,51.98 86.4,53.5 90,54 C93.6,54.5 99.7,51.42 96.88,55.4 C94.06,59.37 102.01,59.37 100.85,55.4 C99.7,51.42 104.4,54.13 108,54 C111.6,53.87 116.91,51.1 114.17,55.08 C111.44,59.06 119.4,59.06 118.15,55.08 C116.91,51.1 122.4,54.8 126,54 C129.6,53.2 133.78,56.54 132.7,52.57 C131.62,48.59 139.58,48.59 136.68,52.57 C133.78,56.54 140.4,54.44 144,54 M0,72 C3.6,71.06 10.7,69.03 7.9,73 C5.11,76.98 13.07,76.98 11.88,73 C10.7,69.03 14.4,71.82 18,72 C21.6,72.18 25.2,70.05 24.25,74.02 C23.3,78 31.26,78 28.23,74.02 C25.2,70.05 32.4,72.43 36,72 C39.6,71.57 45.65,70.32 42.74,74.3 C39.83,78.27 47.79,78.27 46.72,74.3 C45.65,70.32 50.4,71.95 54,72 C57.6,72.05 64.99,73.5 62.08,69.52 C59.16,65.54 67.12,65.54 66.06,69.52 C64.99,73.5 68.4,72.5 72,72 C75.6,71.5 81.37,74.46 79.98,70.49 C78.59,66.51 86.55,66.51 83.96,70.49 C81.37,74.46 86.4,72.91 90,72 C93.6,71.09 99.24,70.65 97.73,74.62 C96.22,78.6 104.18,78.6 101.71,74.62 C99.24,70.65 104.4,71.76 108,72 C111.6,72.24 116.28,73.01 113.96,69.03 C111.63,65.06 119.59,65.06 117.94,69.03 C116.28,73.01 122.4,72.95 126,72 C129.6,71.05 136.44,74.78 134.08,70.8 C131.73,66.82 139.68,66.82 138.06,70.8 C136.44,74.78 140.4,72.93 144,72 M0,90 C3.6,90.45 9.11,87.71 6.83,91.69 C4.55,95.66 12.5,95.66 10.81,91.69 C9.11,87.71 14.4,90.05 18,90 C21.6,89.95 27.47,86.98 25.65,90.95 C23.84,94.93 31.8,94.93 29.63,90.95 C27.47,86.98 32.4,89.41 36,90 C39.6,90.59 44.26,91.96 42.46,87.98 C40.65,84.01 48.61,84.01 46.43,87.98 C44.26,91.96 50.4,90.24 54,90 C57.6,89.76 61.67,88.12 60.23,92.1 C58.79,96.08 66.74,96.08 64.2,92.1 C61.67,88.12 68.4,89.92 72,90 C75.6,90.08 80.3,87.16 79.09,91.14 C77.88,95.12 85.84,95.12 83.07,91.14 C80.3,87.16 86.4,88.94 90,90 C93.6,91.06 98.91,88.63 96.91,92.61 C94.9,96.59 102.85,96.59 100.88,92.61 C98.91,88.63 104.4,89.35 108,90 C111.6,90.65 118.27,91.82 116.07,87.84 C113.86,83.87 121.82,83.87 120.04,87.84 C118.27,91.82 122.4,88.93 126,90 C129.6,91.07 134.93,87.54 133.74,91.52 C132.54,95.5 140.5,95.5 137.72,91.52 C134.93,87.54 140.4,89.87 144,90 M0,108 C3.6,108.88 9.62,106.66 7.14,110.64 C4.65,114.62 12.61,114.62 11.11,110.64 C9.62,106.66 14.4,107.78 18,108 C21.6,108.22 28.21,106.43 26.01,110.4 C23.8,114.38 31.75,114.38 29.98,110.4 C28.21,106.43 32.4,108.85 36,108 C39.6,107.15 44.5,106.34 42.96,110.32 C41.42,114.3 49.38,114.3 46.94,110.32 C44.5,106.34 50.4,106.94 54,108 C57.6,109.06 63.74,108.91 61.46,104.94 C59.17,100.96 67.13,100.96 65.44,104.94 C63.74,108.91 68.4,108.67 72,108 C75.6,107.33 82.85,105.92 79.86,109.9 C76.88,113.87 84.83,113.87 83.84,109.9 C82.85,105.92 86.4,108.48 90,108 C93.6,107.52 99.76,105.77 96.96,109.75 C94.16,113.73 102.11,113.73 100.94,109.75 C99.76,105.77 104.4,108.51 108,108 C111.6,107.49 115.44,111.03 114.51,107.05 C113.59,103.07 121.54,103.07 118.49,107.05 C115.44,111.03 122.4,108.77 126,108 C129.6,107.23 134.64,106.4 132.88,110.38 C131.12,114.36 139.08,114.36 136.86,110.38 C134.64,106.4 140.4,107.93 144,108 M0,126 C3.6,126.67 8.72,127.18 6.42,123.2 C4.12,119.22 12.08,119.22 10.4,123.2 C8.72,127.18 14.4,125.19 18,126 C21.6,126.81 27.63,127.1 25.7,123.12 C23.77,119.15 31.72,119.15 29.68,123.12 C27.63,127.1 32.4,126.71 36,126 C39.6,125.29 44.65,127.96 43.58,123.99 C42.51,120.01 50.47,120.01 47.56,123.99 C44.65,127.96 50.4,126.44 54,126 C57.6,125.56 63.24,128.78 62.03,124.8 C60.81,120.83 68.77,120.83 66,124.8 C63.24,128.78 68.4,125.96 72,126 C75.6,126.04 82.68,123.13 80.08,127.11 C77.48,131.09 85.44,131.09 84.06,127.11 C82.68,123.13 86.4,126.09 90,126 C93.6,125.91 98.87,127 97.64,123.02 C96.41,119.05 104.37,119.05 101.62,123.02 C98.87,127 104.4,125.87 108,126 C111.6,126.13 117.71,124.26 116.05,128.23 C114.38,132.21 122.34,132.21 120.03,128.23 C117.71,124.26 122.4,125.22 126,126 C129.6,126.78 133.76,127.28 132.42,123.3 C131.07,119.32 139.02,119.32 136.39,123.3 C133.76,127.28 140.4,126.16 144,126 M18,0 C18.45,3.6 15.19,9.47 19.17,8.05 C23.15,6.62 23.15,14.58 19.17,12.02 C15.19,9.47 17.27,14.4 18,18 C18.73,21.6 16.09,27.47 20.07,25.03 C24.05,22.59 24.05,30.55 20.07,29.01 C16.09,27.47 18.27,32.4 18,36 C17.73,39.6 20.94,44.19 16.96,42.67 C12.99,41.15 12.99,49.11 16.96,46.65 C20.94,44.19 18.23,50.4 18,54 C17.77,57.6 14.95,61.73 18.93,60.05 C22.9,58.37 22.9,66.32 18.93,64.02 C14.95,61.73 17.78,68.4 18,72 C18.22,75.6 19.66,81.02 15.68,78.56 C11.71,76.11 11.71,84.06 15.68,82.54 C19.66,81.02 18.24,86.4 18,90 C17.76,93.6 20.11,99.39 16.13,96.47 C12.15,93.55 12.15,101.5 16.13,100.45 C20.11,99.39 18.49,104.4 18,108 C17.51,111.6 15.5,115.83 19.48,114.62 C23.45,113.41 23.45,121.37 19.48,118.6 C15.5,115.83 18.76,122.4 18,126 C17.24,129.6 16.32,134.78 20.29,132.44 C24.27,130.1 24.27,138.06 20.29,136.42 C16.32,134.78 18.91,140.4 18,144 M36,0 C36.33,3.6 37.74,7.63 33.77,6.39 C29.79,5.15 29.79,13.11 33.77,10.37 C37.74,7.63 35.66,14.4 36,18 C36.34,21.6 37.31,26.37 33.33,24.91 C29.35,23.44 29.35,31.4 33.33,28.88 C37.31,26.37 35.7,32.4 36,36 C36.3,39.6 34.88,44.58 38.86,42.18 C42.83,39.78 42.83,47.74 38.86,46.16 C34.88,44.58 35.29,50.4 36,54 C36.71,57.6 33.4,63.18 37.38,61.88 C41.35,60.58 41.35,68.54 37.38,65.86 C33.4,63.18 36.55,68.4 36,72 C35.45,75.6 37.53,80.67 33.56,79.71 C29.58,78.75 29.58,86.7 33.56,83.69 C37.53,80.67 36.53,86.4 36,90 C35.47,93.6 37.22,98.66 33.25,97.46 C29.27,96.26 29.27,104.21 33.25,101.44 C37.22,98.66 34.96,104.4 36,108 C37.04,111.6 38.6,115.85 34.62,114.62 C30.64,113.39 30.64,121.34 34.62,118.6 C38.6,115.85 36.66,122.4 36,126 C35.34,129.6 38.79,134.71 34.82,132.93 C30.84,131.14 30.84,139.1 34.82,136.9 C38.79,134.71 35.29,140.4 36,144 M54,0 C54.17,3.6 53.04,8.62 57.01,6.89 C60.99,5.16 60.99,13.12 57.01,10.87 C53.04,8.62 55.01,14.4 54,18 C52.99,21.6 53.06,26.49 57.04,24.86 C61.01,23.22 61.01,31.17 57.04,28.83 C53.06,26.49 53.21,32.4 54,36 C54.79,39.6 51.89,44.57 55.87,42.37 C59.84,40.17 59.84,48.13 55.87,46.35 C51.89,44.57 54.89,50.4 54,54 C53.11,57.6 56.8,64.51 52.82,61.89 C48.84,59.27 48.84,67.23 52.82,65.87 C56.8,64.51 53.19,68.4 54,72 C54.81,75.6 56.67,82.81 52.69,80.05 C48.72,77.3 48.72,85.26 52.69,84.03 C56.67,82.81 54.46,86.4 54,90 C53.54,93.6 56.21,99.35 52.23,96.45 C48.25,93.54 48.25,101.5 52.23,100.42 C56.21,99.35 54.12,104.4 54,108 C53.88,111.6 51.11,116.27 55.09,113.99 C59.06,111.72 59.06,119.68 55.09,117.97 C51.11,116.27 53.19,122.4 54,126 C54.81,129.6 52.64,134.36 56.62,132.25 C60.6,130.14 60.6,138.09 56.62,136.23 C52.64,134.36 53.97,140.4 54,144 M72,0 C71.4,3.6 74.56,10.91 70.58,7.9 C66.6,4.9 66.6,12.85 70.58,11.88 C74.56,10.91 72.88,14.4 72,18 C71.12,21.6 69.73,27.17 73.71,26 C77.69,24.84 77.69,32.79 73.71,29.98 C69.73,27.17 72.65,32.4 72,36 C71.35,39.6 74.14,45.01 70.16,43.45 C66.19,41.89 66.19,49.84 70.16,47.43 C74.14,45.01 71.44,50.4 72,54 C72.56,57.6 70.8,63.84 74.77,61.49 C78.75,59.13 78.75,67.09 74.77,65.46 C70.8,63.84 72.28,68.4 72,72 C71.72,75.6 70.27,81.21 74.25,78.62 C78.22,76.02 78.22,83.98 74.25,82.59 C70.27,81.21 72.23,86.4 72,90 C71.77,93.6 74,100.06 70.02,97.08 C66.05,94.09 66.05,102.05 70.02,101.05 C74,100.06 71.64,104.4 72,108 C72.36,111.6 73.56,117.92 69.58,115.04 C65.6,112.15 65.6,120.1 69.58,119.01 C73.56,117.92 72.31,122.4 72,126 C71.69,129.6 69.66,133.68 73.64,132.23 C77.61,130.79 77.61,138.74 73.64,136.21 C69.66,133.68 72.64,140.4 72,144 M90,0 C89.4,3.6 87.38,10.54 91.36,7.71 C95.34,4.88 95.34,12.84 91.36,11.69 C87.38,10.54 91.03,14.4 90,18 C88.97,21.6 92.14,27.2 88.16,25.67 C84.18,24.15 84.18,32.11 88.16,29.65 C92.14,27.2 89.6,32.4 90,36 C90.4,39.6 91.47,45.17 87.49,43.37 C83.51,41.56 83.51,49.52 87.49,47.34 C91.47,45.17 90.04,50.4 90,54 C89.96,57.6 93.03,63.61 89.05,60.77 C85.08,57.93 85.08,65.88 89.05,64.75 C93.03,63.61 90.56,68.4 90,72 C89.44,75.6 92.5,80.52 88.52,78.09 C84.54,75.66 84.54,83.62 88.52,82.07 C92.5,80.52 89.58,86.4 90,90 C90.42,93.6 86.98,98.86 90.96,96.42 C94.94,93.98 94.94,101.93 90.96,100.4 C86.98,98.86 89.75,104.4 90,108 C90.25,111.6 89.05,116.01 93.03,114.99 C97,113.96 97,121.92 93.03,118.97 C89.05,116.01 90.2,122.4 90,126 C89.8,129.6 87.86,133.14 91.84,132.12 C95.81,131.1 95.81,139.06 91.84,136.1 C87.86,133.14 89.99,140.4 90,144 M108,0 C107.38,3.6 110.12,9.33 106.14,6.99 C102.16,4.65 102.16,12.61 106.14,10.97 C110.12,9.33 107.94,14.4 108,18 C108.06,21.6 106.13,26.91 110.11,25.58 C114.09,24.26 114.09,32.22 110.11,29.56 C106.13,26.91 108.3,32.4 108,36 C107.7,39.6 111,44.65 107.02,42.45 C103.05,40.26 103.05,48.22 107.02,46.43 C111,44.65 106.95,50.4 108,54 C109.05,57.6 106.2,63.05 110.17,61.47 C114.15,59.89 114.15,67.85 110.17,65.45 C106.2,63.05 108.11,68.4 108,72 C107.89,75.6 105.91,80.98 109.89,79.45 C113.87,77.93 113.87,85.88 109.89,83.43 C105.91,80.98 106.95,86.4 108,90 C109.05,93.6 105.58,99.49 109.56,96.96 C113.54,94.44 113.54,102.39 109.56,100.94 C105.58,99.49 107.3,104.4 108,108 C108.7,111.6 109.1,116.89 105.13,114.48 C101.15,112.08 101.15,120.03 105.13,118.46 C109.1,116.89 108.72,122.4 108,126 C107.28,129.6 106.86,135.55 110.83,133.01 C114.81,130.46 114.81,138.42 110.83,136.98 C106.86,135.55 108.74,140.4 108,144 M126,0 C126.6,3.6 123.52,9.81 127.49,7.64 C131.47,5.48 131.47,13.43 127.49,11.62 C123.52,9.81 125.42,14.4 126,18 C126.58,21.6 123.52,26.23 127.5,25.09 C131.47,23.95 131.47,31.91 127.5,29.07 C123.52,26.23 126.64,32.4 126,36 C125.36,39.6 124.02,44.04 128,42.62 C131.98,41.21 131.98,49.16 128,46.6 C124.02,44.04 126.06,50.4 126,54 C125.94,57.6 123.34,63.27 127.32,61.14 C131.3,59.01 131.3,66.97 127.32,65.12 C123.34,63.27 126.39,68.4 126,72 C125.61,75.6 128.47,82.59 124.5,80.06 C120.52,77.52 120.52,85.47 124.5,84.03 C128.47,82.59 126.58,86.4 126,90 C125.42,93.6 125.01,98.11 128.99,96.6 C132.97,95.09 132.97,103.04 128.99,100.57 C125.01,98.11 126.6,104.4 126,108 C125.4,111.6 124.1,117.59 128.07,114.56 C132.05,111.54 132.05,119.49 128.07,118.54 C124.1,117.59 124.93,122.4 126,126 C127.07,129.6 124.93,135.91 128.91,132.87 C132.89,129.83 132.89,137.79 128.91,136.85 C124.93,135.91 125.05,140.4 126,144 M0,0 L144,0 L144,144 L0,144 L0,0 "></path></svg>