<svg xmlns="http://www.w3.org/2000/svg" version="1.0" width="144mm" height="144mm" viewBox="0 0 144 144"><path fill="none" stroke="black" stroke-width="0.1" d="M0,18 C3.6,17.82 9.54,21.26 6.8,17.28 C4.07,13.3 12.03,13.3 10.78,17.28 C9.54,21.26 14.4,19.52 18,18 C21.6,16.48 26.96,14.52 23.55,18.5 C20.14,22.48 28.09,22.48 27.53,18.5 C26.96,14.52 32.4,16.27 36,18 C39.6,19.73 43.52,19.7 41.38,15.72 C39.24,11.74 47.2,11.74 45.36,15.72 C43.52,19.7 50.4,19.5 54,18 C57.6,16.5 62.73,14.35 61.63,18.33 C60.52,22.31 68.48,22.31 65.6,18.33 C62.73,14.35 68.4,18.68 72,18 C75.6,17.32 83.09,15.14 80.56,19.12 C78.02,23.1 85.98,23.1 84.53,19.12 C83.09,15.14 86.4,18.6 90,18 C93.6,17.4 99.74,14.48 97.34,18.46 C94.93,22.44 102.89,22.44 101.31,18.46 C99.74,14.48 104.4,19.2 108,18 C111.6,16.8 118.17,20.05 116.07,16.07 C113.96,12.09 121.92,12.09 120.04,16.07 C118.17,20.05 122.4,18.92 126,18 C129.6,17.08 134.9,16.51 133.66,20.49 C132.42,24.46 140.37,24.46 137.64,20.49 C134.9,16.51 140.4,18.34 144,18 M0,36 C3.6,37.53 9.15,32.3 7.89,36.28 C6.64,40.26 14.59,40.26 11.87,36.28 C9.15,32.3 14.4,37.41 18,36 C21.6,34.59 28.45,39.15 24.79,35.18 C21.13,31.2 29.08,31.2 28.76,35.18 C28.45,39.15 32.4,35.55 36,36 C39.6,36.45 47.51,34.79 43.88,38.77 C40.24,42.74 48.2,42.74 47.86,38.77 C47.51,34.79 50.4,35.55 54,36 C57.6,36.45 61.18,39.16 60.92,35.18 C60.67,31.2 68.62,31.2 64.9,35.18 C61.18,39.16 68.4,35.09 72,36 C75.6,36.91 80.83,37.43 78.54,33.45 C76.24,29.48 84.2,29.48 82.51,33.45 C80.83,37.43 86.4,37.51 90,36 C93.6,34.49 97.62,36.82 96.58,32.84 C95.55,28.87 103.5,28.87 100.56,32.84 C97.62,36.82 104.4,37.54 108,36 C111.6,34.46 118.74,32.88 114.97,36.86 C111.2,40.83 119.16,40.83 118.95,36.86 C118.74,32.88 122.4,36.8 126,36 C129.6,35.2 134.18,39.75 132.39,35.77 C130.61,31.79 138.56,31.79 136.37,35.77 C134.18,39.75 140.4,35.59 144,36 M0,54 C3.6,52.74 8.12,52.25 7.5,56.22 C6.88,60.2 14.84,60.2 11.48,56.22 C8.12,52.25 14.4,53.9 18,54 C21.6,54.1 26.87,50.64 24.18,54.61 C21.49,58.59 29.45,58.59 28.16,54.61 C26.87,50.64 32.4,54.79 36,54 C39.6,53.21 43.34,52.34 42.48,56.32 C41.61,60.3 49.57,60.3 46.46,56.32 C43.34,52.34 50.4,55.61 54,54 C57.6,52.39 62.37,57.48 60.4,53.5 C58.43,49.52 66.39,49.52 64.38,53.5 C62.37,57.48 68.4,53.12 72,54 C75.6,54.88 82.29,51.96 80.63,55.94 C78.97,59.91 86.93,59.91 84.61,55.94 C82.29,51.96 86.4,53.17 90,54 C93.6,54.83 100.16,51.02 96.79,55 C93.41,58.98 101.37,58.98 100.77,55 C100.16,51.02 104.4,54.21 108,54 C111.6,53.79 116.84,50.49 113.61,54.47 C110.39,58.45 118.34,58.45 117.59,54.47 C116.84,50.49 122.4,55.33 126,54 C129.6,52.67 132.97,56.91 132.5,52.94 C132.02,48.96 139.98,48.96 136.47,52.94 C132.97,56.91 140.4,54.74 144,54 M0,72 C3.6,70.43 11.83,68.37 8.5,72.35 C5.17,76.33 13.13,76.33 12.48,72.35 C11.83,68.37 14.4,71.7 18,72 C21.6,72.3 24.01,70.07 23.75,74.05 C23.49,78.03 31.45,78.03 27.73,74.05 C24.01,70.07 32.4,72.72 36,72 C39.6,71.28 46.08,70.52 42.56,74.5 C39.04,78.48 46.99,78.48 46.53,74.5 C46.08,70.52 50.4,71.92 54,72 C57.6,72.08 66.32,73.17 62.79,69.19 C59.26,65.21 67.22,65.21 66.77,69.19 C66.32,73.17 68.4,72.83 72,72 C75.6,71.17 81.62,74.78 80.63,70.8 C79.63,66.83 87.59,66.83 84.61,70.8 C81.62,74.78 86.4,73.52 90,72 C93.6,70.48 99.41,71.07 98.21,75.05 C97.02,79.03 104.98,79.03 102.19,75.05 C99.41,71.07 104.4,71.6 108,72 C111.6,72.4 115.8,72.36 113.25,68.38 C110.71,64.41 118.67,64.41 117.23,68.38 C115.8,72.36 122.4,73.58 126,72 C129.6,70.42 137.39,75.31 134.79,71.33 C132.19,67.35 140.15,67.35 138.77,71.33 C137.39,75.31 140.4,73.54 144,72 M0,90 C3.6,90.75 9.18,87.51 6.71,91.48 C4.23,95.46 12.18,95.46 10.68,91.48 C9.18,87.51 14.4,90.08 18,90 C21.6,89.92 27.78,86.28 26.08,90.26 C24.39,94.24 32.34,94.24 30.06,90.26 C27.78,86.28 32.4,89.02 36,90 C39.6,90.98 43.77,91.94 42.09,87.97 C40.4,83.99 48.36,83.99 46.07,87.97 C43.77,91.94 50.4,90.41 54,90 C57.6,89.59 60.78,88.2 59.7,92.18 C58.63,96.15 66.58,96.15 63.68,92.18 C60.78,88.2 68.4,89.87 72,90 C75.6,90.13 79.83,86.59 79.14,90.57 C78.45,94.55 86.41,94.55 83.12,90.57 C79.83,86.59 86.4,88.23 90,90 C93.6,91.77 98.86,89.05 96.84,93.03 C94.82,97.01 102.77,97.01 100.81,93.03 C98.86,89.05 104.4,88.92 108,90 C111.6,91.08 119.12,91.71 116.77,87.73 C114.42,83.76 122.38,83.76 120.75,87.73 C119.12,91.71 122.4,88.22 126,90 C129.6,91.78 134.89,87.23 134.23,91.2 C133.56,95.18 141.52,95.18 138.2,91.2 C134.89,87.23 140.4,89.78 144,90 M0,108 C3.6,109.47 10.04,107.1 7.22,111.07 C4.4,115.05 12.36,115.05 11.2,111.07 C10.04,107.1 14.4,107.63 18,108 C21.6,108.37 29.02,106.7 26.67,110.68 C24.31,114.66 32.27,114.66 30.65,110.68 C29.02,106.7 32.4,109.42 36,108 C39.6,106.58 44.16,106.56 42.92,110.54 C41.68,114.52 49.64,114.52 46.9,110.54 C44.16,106.56 50.4,106.24 54,108 C57.6,109.76 64.24,108.2 61.76,104.22 C59.28,100.24 67.23,100.24 65.74,104.22 C64.24,108.2 68.4,109.12 72,108 C75.6,106.88 84.09,105.86 80.43,109.84 C76.78,113.81 84.74,113.81 84.41,109.84 C84.09,105.86 86.4,108.79 90,108 C93.6,107.21 100.27,105.61 96.93,109.59 C93.58,113.57 101.54,113.57 100.9,109.59 C100.27,105.61 104.4,108.86 108,108 C111.6,107.14 114.39,111.72 114.18,107.74 C113.97,103.76 121.92,103.76 118.16,107.74 C114.39,111.72 122.4,109.28 126,108 C129.6,106.72 134.4,106.66 132.8,110.64 C131.19,114.62 139.15,114.62 136.77,110.64 C134.4,106.66 140.4,107.88 144,108 M0,126 C3.6,127.12 8.54,126.64 6.03,122.66 C3.52,118.68 11.48,118.68 10.01,122.66 C8.54,126.64 14.4,124.65 18,126 C21.6,127.35 28.05,126.51 26.16,122.53 C24.26,118.55 32.22,118.55 30.13,122.53 C28.05,126.51 32.4,127.18 36,126 C39.6,124.82 44.42,127.95 43.96,123.97 C43.51,119.99 51.47,119.99 47.94,123.97 C44.42,127.95 50.4,126.74 54,126 C57.6,125.26 63.4,129.31 62.7,125.33 C62.01,121.36 69.96,121.36 66.68,125.33 C63.4,129.31 68.4,125.93 72,126 C75.6,126.07 83.8,122.55 80.8,126.53 C77.79,130.51 85.75,130.51 84.78,126.53 C83.8,122.55 86.4,126.15 90,126 C93.6,125.85 98.79,126.34 98.06,122.37 C97.34,118.39 105.29,118.39 102.04,122.37 C98.79,126.34 104.4,125.78 108,126 C111.6,126.22 118.19,124.42 116.74,128.4 C115.29,132.37 123.24,132.37 120.72,128.4 C118.19,124.42 122.4,124.7 126,126 C129.6,127.3 132.94,126.8 132.02,122.83 C131.1,118.85 139.05,118.85 136,122.83 C132.94,126.8 140.4,126.26 144,126 M18,0 C18.75,3.6 14.65,9.79 18.63,8.74 C22.61,7.68 22.61,15.64 18.63,12.71 C14.65,9.79 16.79,14.4 18,18 C19.21,21.6 16.14,27.79 20.12,25.05 C24.1,22.31 24.1,30.26 20.12,29.03 C16.14,27.79 18.45,32.4 18,36 C17.55,39.6 21.58,43.65 17.6,42.45 C13.62,41.24 13.62,49.2 17.6,46.42 C21.58,43.65 18.38,50.4 18,54 C17.62,57.6 14.24,60.88 18.22,59.4 C22.2,57.93 22.2,65.89 18.22,63.38 C14.24,60.88 17.63,68.4 18,72 C18.37,75.6 19.44,81.03 15.47,78.26 C11.49,75.5 11.49,83.45 15.47,82.24 C19.44,81.03 18.4,86.4 18,90 C17.6,93.6 20.19,99.65 16.21,96.11 C12.24,92.56 12.24,100.52 16.21,100.09 C20.19,99.65 18.82,104.4 18,108 C17.18,111.6 15.16,115.04 19.13,114.36 C23.11,113.67 23.11,121.63 19.13,118.34 C15.16,115.04 19.26,122.4 18,126 C16.74,129.6 16.52,134.63 20.5,132.06 C24.48,129.49 24.48,137.45 20.5,136.04 C16.52,134.63 19.52,140.4 18,144 M36,0 C36.54,3.6 37.58,6.72 33.6,5.98 C29.63,5.24 29.63,13.19 33.6,9.95 C37.58,6.72 35.43,14.4 36,18 C36.57,21.6 36.86,25.94 32.88,24.83 C28.9,23.73 28.9,31.68 32.88,28.81 C36.86,25.94 35.49,32.4 36,36 C36.51,39.6 35.46,44.31 39.43,41.63 C43.41,38.96 43.41,46.91 39.43,45.61 C35.46,44.31 34.81,50.4 36,54 C37.19,57.6 32.99,63.3 36.97,62.46 C40.95,61.62 40.95,69.57 36.97,66.44 C32.99,63.3 36.92,68.4 36,72 C35.08,75.6 37.23,80.46 33.25,80.18 C29.28,79.9 29.28,87.85 33.25,84.15 C37.23,80.46 36.89,86.4 36,90 C35.11,93.6 36.71,98.43 32.74,97.76 C28.76,97.08 28.76,105.04 32.74,101.74 C36.71,98.43 34.26,104.4 36,108 C37.74,111.6 39,115.09 35.03,114.36 C31.05,113.63 31.05,121.58 35.03,118.34 C39,115.09 37.11,122.4 36,126 C34.89,129.6 39.33,134.51 35.35,132.87 C31.37,131.23 31.37,139.18 35.35,136.85 C39.33,134.51 34.82,140.4 36,144 M54,0 C54.28,3.6 53.72,8.36 57.7,6.81 C61.67,5.25 61.67,13.21 57.7,10.79 C53.72,8.36 55.69,14.4 54,18 C52.31,21.6 53.76,26.16 57.74,24.75 C61.71,23.35 61.71,31.31 57.74,28.73 C53.76,26.16 52.68,32.4 54,36 C55.32,39.6 51.81,44.28 55.78,41.94 C59.76,39.6 59.76,47.56 55.78,45.92 C51.81,44.28 55.48,50.4 54,54 C52.52,57.6 57.34,65.52 53.36,62.48 C49.38,59.44 49.38,67.39 53.36,66.46 C57.34,65.52 52.64,68.4 54,72 C55.36,75.6 57.13,84.01 53.15,80.75 C49.17,77.48 49.17,85.44 53.15,84.73 C57.13,84.01 54.76,86.4 54,90 C53.24,93.6 56.36,99.59 52.38,96.07 C48.4,92.55 48.4,100.51 52.38,100.05 C56.36,99.59 54.2,104.4 54,108 C53.8,111.6 50.5,115.78 54.48,113.31 C58.46,110.85 58.46,118.81 54.48,117.29 C50.5,115.78 52.65,122.4 54,126 C55.35,129.6 53.06,133.94 57.04,131.74 C61.02,129.54 61.02,137.5 57.04,135.72 C53.06,133.94 53.95,140.4 54,144 M72,0 C71.01,3.6 74.93,12.18 70.96,8.5 C66.98,4.82 66.98,12.77 70.96,12.48 C74.93,12.18 73.47,14.4 72,18 C70.53,21.6 69.54,27.28 73.52,26.66 C77.5,26.04 77.5,34 73.52,30.64 C69.54,27.28 73.08,32.4 72,36 C70.92,39.6 74.25,45.01 70.27,43.74 C66.29,42.47 66.29,50.42 70.27,47.72 C74.25,45.01 71.06,50.4 72,54 C72.94,57.6 71.32,64.4 75.3,61.8 C79.28,59.2 79.28,67.16 75.3,65.78 C71.32,64.4 72.46,68.4 72,72 C71.54,75.6 70.44,81.35 74.42,78.35 C78.4,75.35 78.4,83.31 74.42,82.33 C70.44,81.35 72.38,86.4 72,90 C71.62,93.6 74.01,100.77 70.03,97.12 C66.05,93.48 66.05,101.43 70.03,101.1 C74.01,100.77 71.4,104.4 72,108 C72.6,111.6 73.27,118.54 69.29,115.05 C65.32,111.57 65.32,119.52 69.29,119.03 C73.27,118.54 72.52,122.4 72,126 C71.48,129.6 69.42,132.8 73.4,131.72 C77.38,130.63 77.38,138.58 73.4,135.69 C69.42,132.8 73.07,140.4 72,144 M90,0 C89,3.6 86.96,11.57 90.94,8.18 C94.92,4.79 94.92,12.74 90.94,12.16 C86.96,11.57 91.71,14.4 90,18 C88.29,21.6 92.24,27.33 88.26,26.12 C84.29,24.9 84.29,32.86 88.26,30.09 C92.24,27.33 89.33,32.4 90,36 C90.67,39.6 91.12,45.28 87.14,43.6 C83.16,41.92 83.16,49.88 87.14,47.58 C91.12,45.28 90.06,50.4 90,54 C89.94,57.6 93.73,64.02 89.75,60.61 C85.77,57.2 85.77,65.15 89.75,64.59 C93.73,64.02 90.94,68.4 90,72 C89.06,75.6 92.84,80.19 88.86,77.47 C84.89,74.75 84.89,82.71 88.86,81.45 C92.84,80.19 89.29,86.4 90,90 C90.71,93.6 86.3,98.77 90.28,96.03 C94.26,93.28 94.26,101.23 90.28,100 C86.3,98.77 89.58,104.4 90,108 C90.42,111.6 89.74,115.35 93.72,114.97 C97.7,114.59 97.7,122.55 93.72,118.95 C89.74,115.35 90.33,122.4 90,126 C89.67,129.6 87.76,131.9 91.74,131.53 C95.71,131.16 95.71,139.11 91.74,135.5 C87.76,131.9 89.98,140.4 90,144 M108,0 C106.96,3.6 110.2,9.55 106.22,6.98 C102.25,4.41 102.25,12.36 106.22,10.96 C110.2,9.55 107.9,14.4 108,18 C108.1,21.6 106.22,26.85 110.19,25.97 C114.17,25.09 114.17,33.04 110.19,29.95 C106.22,26.85 108.5,32.4 108,36 C107.5,39.6 111.68,44.41 107.7,42.08 C103.72,39.75 103.72,47.71 107.7,46.06 C111.68,44.41 106.25,50.4 108,54 C109.75,57.6 106.32,63.08 110.3,61.78 C114.28,60.47 114.28,68.43 110.3,65.75 C106.32,63.08 108.18,68.4 108,72 C107.82,75.6 105.84,80.96 109.82,79.75 C113.8,78.53 113.8,86.49 109.82,83.73 C105.84,80.96 106.26,86.4 108,90 C109.74,93.6 105.29,99.81 109.27,96.93 C113.25,94.05 113.25,102 109.27,100.91 C105.29,99.81 106.83,104.4 108,108 C109.17,111.6 108.51,116.82 104.54,114.13 C100.56,111.44 100.56,119.4 104.54,118.11 C108.51,116.82 109.2,122.4 108,126 C106.8,129.6 107.42,135.91 111.4,133 C115.38,130.09 115.38,138.05 111.4,136.98 C107.42,135.91 109.23,140.4 108,144 M126,0 C127,3.6 123.18,10.35 127.16,8.07 C131.14,5.78 131.14,13.74 127.16,12.04 C123.18,10.35 125.03,14.4 126,18 C126.97,21.6 123.19,25.71 127.17,25.14 C131.14,24.57 131.14,32.53 127.17,29.12 C123.19,25.71 127.07,32.4 126,36 C124.93,39.6 124.03,43.4 128,42.37 C131.98,41.33 131.98,49.29 128,46.34 C124.03,43.4 126.1,50.4 126,54 C125.9,57.6 122.9,63.45 126.87,61.23 C130.85,59 130.85,66.96 126.87,65.21 C122.9,63.45 126.64,68.4 126,72 C125.36,75.6 128.8,83.66 124.82,80.75 C120.84,77.85 120.84,85.8 124.82,84.73 C128.8,83.66 126.97,86.4 126,90 C125.03,93.6 125.68,97.51 129.66,96.32 C133.63,95.13 133.63,103.09 129.66,100.3 C125.68,97.51 126.99,104.4 126,108 C125.01,111.6 124.15,117.98 128.13,114.26 C132.11,110.54 132.11,118.5 128.13,118.24 C124.15,117.98 124.21,122.4 126,126 C127.79,129.6 125.54,136.52 129.52,132.78 C133.5,129.04 133.5,136.99 129.52,136.76 C125.54,136.52 124.42,140.4 126,144 M0,0 L144,0 L144,144 L0,144 L0,0 "></path></svg>