<svg xmlns="http://www.w3.org/2000/svg" version="1.0" width="144mm" height="144mm" viewBox="0 0 144 144"><path fill="none" stroke="black" stroke-width="0.1" d="M0,18 C3.6,17.93 9.21,20.5 6.93,16.52 C4.64,12.54 12.6,12.54 10.91,16.52 C9.21,20.5 14.4,18.61 18,18 C21.6,17.39 26.98,15.42 24.43,19.39 C21.87,23.37 29.82,23.37 28.4,19.39 C26.98,15.42 32.4,17.31 36,18 C39.6,18.69 44.41,19.87 42.36,15.89 C40.31,11.92 48.27,11.92 46.34,15.89 C44.41,19.87 50.4,18.6 54,18 C57.6,17.4 62.89,15.35 61.26,19.33 C59.62,23.3 67.58,23.3 65.23,19.33 C62.89,15.35 68.4,18.27 72,18 C75.6,17.73 81.84,15.66 79.63,19.64 C77.42,23.62 85.38,23.62 83.61,19.64 C81.84,15.66 86.4,18.24 90,18 C93.6,17.76 99.3,15.4 97.14,19.38 C94.99,23.35 102.94,23.35 101.12,19.38 C99.3,15.4 104.4,18.48 108,18 C111.6,17.52 117.47,20.01 115.43,16.03 C113.4,12.06 121.35,12.06 119.41,16.03 C117.47,20.01 122.4,18.37 126,18 C129.6,17.63 134.96,16.21 133.27,20.19 C131.58,24.17 139.54,24.17 137.25,20.19 C134.96,16.21 140.4,18.13 144,18 M0,36 C3.6,36.61 9.06,33.33 7.36,37.31 C5.67,41.28 13.62,41.28 11.34,37.31 C9.06,33.33 14.4,36.57 18,36 C21.6,35.43 27.58,38.45 24.92,34.48 C22.26,30.5 30.22,30.5 28.9,34.48 C27.58,38.45 32.4,35.82 36,36 C39.6,36.18 46.01,34.32 43.36,38.3 C40.71,42.28 48.67,42.28 47.34,38.3 C46.01,34.32 50.4,35.82 54,36 C57.6,36.18 62.27,38.46 60.98,34.48 C59.68,30.5 67.64,30.5 64.95,34.48 C62.27,38.46 68.4,35.64 72,36 C75.6,36.36 80.93,37.77 78.82,33.79 C76.71,29.81 84.67,29.81 82.8,33.79 C80.93,37.77 86.4,36.6 90,36 C93.6,35.4 98.45,37.52 96.84,33.54 C95.23,29.57 103.19,29.57 100.82,33.54 C98.45,37.52 104.4,36.62 108,36 C111.6,35.38 117.7,33.56 115,37.54 C112.29,41.51 120.25,41.51 118.97,37.54 C117.7,33.56 122.4,36.32 126,36 C129.6,35.68 134.67,38.69 132.76,34.71 C130.86,30.74 138.81,30.74 136.74,34.71 C134.67,38.69 140.4,35.84 144,36 M0,54 C3.6,53.49 8.65,52.1 7.21,56.08 C5.77,60.06 13.72,60.06 11.18,56.08 C8.65,52.1 14.4,53.96 18,54 C21.6,54.04 26.95,51.46 24.68,55.44 C22.41,59.42 30.37,59.42 28.66,55.44 C26.95,51.46 32.4,54.32 36,54 C39.6,53.68 44.34,52.14 42.8,56.12 C41.26,60.1 49.21,60.1 46.78,56.12 C44.34,52.14 50.4,54.64 54,54 C57.6,53.36 62.75,56.59 60.77,52.61 C58.79,48.63 66.74,48.63 64.75,52.61 C62.75,56.59 68.4,53.65 72,54 C75.6,54.35 81.52,51.99 79.66,55.97 C77.8,59.95 85.76,59.95 83.64,55.97 C81.52,51.99 86.4,53.67 90,54 C93.6,54.33 99.46,51.62 96.92,55.59 C94.38,59.57 102.33,59.57 100.9,55.59 C99.46,51.62 104.4,54.09 108,54 C111.6,53.91 116.94,51.4 114.45,55.38 C111.97,59.36 119.92,59.36 118.43,55.38 C116.94,51.4 122.4,54.53 126,54 C129.6,53.47 134.19,56.36 132.8,52.38 C131.42,48.4 139.38,48.4 136.78,52.38 C134.19,56.36 140.4,54.29 144,54 M0,72 C3.6,71.37 10.13,69.35 7.61,73.33 C5.08,77.31 13.04,77.31 11.58,73.33 C10.13,69.35 14.4,71.88 18,72 C21.6,72.12 25.8,70.03 24.51,74.01 C23.21,77.99 31.17,77.99 28.48,74.01 C25.8,70.03 32.4,72.29 36,72 C39.6,71.71 45.43,70.22 42.83,74.19 C40.23,78.17 48.18,78.17 46.81,74.19 C45.43,70.22 50.4,71.97 54,72 C57.6,72.03 64.33,73.66 61.72,69.68 C59.12,65.71 67.07,65.71 65.7,69.68 C64.33,73.66 68.4,72.33 72,72 C75.6,71.67 81.25,74.31 79.66,70.33 C78.07,66.35 86.02,66.35 83.64,70.33 C81.25,74.31 86.4,72.61 90,72 C93.6,71.39 99.16,70.43 97.49,74.41 C95.82,78.39 103.78,78.39 101.47,74.41 C99.16,70.43 104.4,71.84 108,72 C111.6,72.16 116.52,73.34 114.31,69.36 C112.1,65.38 120.05,65.38 118.29,69.36 C116.52,73.34 122.4,72.63 126,72 C129.6,71.37 135.96,74.52 133.72,70.54 C131.49,66.56 139.45,66.56 137.7,70.54 C135.96,74.52 140.4,72.62 144,72 M0,90 C3.6,90.3 9.07,87.81 6.89,91.79 C4.7,95.76 12.66,95.76 10.87,91.79 C9.07,87.81 14.4,90.03 18,90 C21.6,89.97 27.31,87.32 25.44,91.3 C23.57,95.28 31.52,95.28 29.42,91.3 C27.31,87.32 32.4,89.61 36,90 C39.6,90.39 44.51,91.97 42.64,87.99 C40.77,84.02 48.73,84.02 46.62,87.99 C44.51,91.97 50.4,90.16 54,90 C57.6,89.84 62.11,88.09 60.49,92.06 C58.86,96.04 66.82,96.04 64.47,92.06 C62.11,88.09 68.4,89.95 72,90 C75.6,90.05 80.53,87.44 79.06,91.42 C77.59,95.4 85.55,95.4 83.04,91.42 C80.53,87.44 86.4,89.29 90,90 C93.6,90.71 98.94,88.43 96.94,92.4 C94.94,96.38 102.9,96.38 100.92,92.4 C98.94,88.43 104.4,89.57 108,90 C111.6,90.43 117.85,91.88 115.71,87.9 C113.58,83.92 121.54,83.92 119.69,87.9 C117.85,91.88 122.4,89.29 126,90 C129.6,90.71 134.96,87.7 133.5,91.67 C132.04,95.65 139.99,95.65 137.47,91.67 C134.96,87.7 140.4,89.91 144,90 M0,108 C3.6,108.59 9.41,106.45 7.09,110.42 C4.77,114.4 12.73,114.4 11.07,110.42 C9.41,106.45 14.4,107.85 18,108 C21.6,108.15 27.81,106.29 25.67,110.27 C23.54,114.24 31.49,114.24 29.65,110.27 C27.81,106.29 32.4,108.57 36,108 C39.6,107.43 44.67,106.23 42.98,110.21 C41.29,114.19 49.24,114.19 46.95,110.21 C44.67,106.23 50.4,107.29 54,108 C57.6,108.71 63.5,109.27 61.31,105.29 C59.12,101.32 67.08,101.32 65.29,105.29 C63.5,109.27 68.4,108.45 72,108 C75.6,107.55 82.23,105.95 79.58,109.93 C76.93,113.91 84.88,113.91 83.56,109.93 C82.23,105.95 86.4,108.32 90,108 C93.6,107.68 99.51,105.85 96.98,109.83 C94.45,113.81 102.4,113.81 100.96,109.83 C99.51,105.85 104.4,108.34 108,108 C111.6,107.66 115.96,110.68 114.68,106.7 C113.4,102.72 121.36,102.72 118.66,106.7 C115.96,110.68 122.4,108.51 126,108 C129.6,107.49 134.76,106.27 132.93,110.25 C131.09,114.23 139.05,114.23 136.9,110.25 C134.76,106.27 140.4,107.95 144,108 M0,126 C3.6,126.45 8.82,127.45 6.62,123.47 C4.42,119.49 12.38,119.49 10.6,123.47 C8.82,127.45 14.4,125.46 18,126 C21.6,126.54 27.42,127.4 25.47,123.42 C23.52,119.44 31.47,119.44 29.45,123.42 C27.42,127.4 32.4,126.47 36,126 C39.6,125.53 44.77,127.97 43.39,123.99 C42.02,120.02 49.97,120.02 47.37,123.99 C44.77,127.97 50.4,126.3 54,126 C57.6,125.7 63.16,128.52 61.69,124.54 C60.22,120.56 68.17,120.56 65.67,124.54 C63.16,128.52 68.4,125.97 72,126 C75.6,126.03 82.12,123.43 79.73,127.4 C77.33,131.38 85.29,131.38 83.7,127.4 C82.12,123.43 86.4,126.06 90,126 C93.6,125.94 98.91,127.33 97.43,123.35 C95.95,119.37 103.9,119.37 101.41,123.35 C98.91,127.33 104.4,125.91 108,126 C111.6,126.09 117.48,124.17 115.7,128.15 C113.93,132.13 121.88,132.13 119.68,128.15 C117.48,124.17 122.4,125.48 126,126 C129.6,126.52 134.18,127.52 132.61,123.54 C131.05,119.56 139.01,119.56 136.59,123.54 C134.18,127.52 140.4,126.11 144,126 M18,0 C18.3,3.6 15.47,9.32 19.44,7.7 C23.42,6.09 23.42,14.04 19.44,11.68 C15.47,9.32 17.51,14.4 18,18 C18.49,21.6 16.06,27.32 20.04,25.03 C24.02,22.74 24.02,30.69 20.04,29 C16.06,27.32 18.18,32.4 18,36 C17.82,39.6 20.62,44.46 16.65,42.78 C12.67,41.11 12.67,49.07 16.65,46.76 C20.62,44.46 18.15,50.4 18,54 C17.85,57.6 15.3,62.15 19.28,60.37 C23.26,58.59 23.26,66.54 19.28,64.35 C15.3,62.15 17.85,68.4 18,72 C18.15,75.6 19.77,81.01 15.79,78.71 C11.82,76.41 11.82,84.37 15.79,82.69 C19.77,81.01 18.16,86.4 18,90 C17.84,93.6 20.07,99.26 16.09,96.65 C12.11,94.04 12.11,101.99 16.09,100.63 C20.07,99.26 18.33,104.4 18,108 C17.67,111.6 15.67,116.22 19.65,114.75 C23.62,113.28 23.62,121.24 19.65,118.73 C15.67,116.22 18.5,122.4 18,126 C17.5,129.6 16.21,134.85 20.19,132.63 C24.17,130.41 24.17,138.37 20.19,136.61 C16.21,134.85 18.61,140.4 18,144 M36,0 C36.22,3.6 37.83,8.09 33.85,6.6 C29.87,5.11 29.87,13.06 33.85,10.58 C37.83,8.09 35.77,14.4 36,18 C36.23,21.6 37.54,26.58 33.56,24.94 C29.58,23.3 29.58,31.26 33.56,28.92 C37.54,26.58 35.8,32.4 36,36 C36.2,39.6 34.59,44.72 38.57,42.46 C42.55,40.2 42.55,48.15 38.57,46.44 C34.59,44.72 35.52,50.4 36,54 C36.48,57.6 33.6,63.12 37.58,61.59 C41.56,60.06 41.56,68.02 37.58,65.57 C33.6,63.12 36.37,68.4 36,72 C35.63,75.6 37.69,80.78 33.71,79.48 C29.73,78.17 29.73,86.13 33.71,83.45 C37.69,80.78 36.35,86.4 36,90 C35.65,93.6 37.48,98.77 33.5,97.31 C29.52,95.85 29.52,103.8 33.5,101.29 C37.48,98.77 35.3,104.4 36,108 C36.7,111.6 38.4,116.24 34.42,114.75 C30.44,113.26 30.44,121.22 34.42,118.73 C38.4,116.24 36.44,122.4 36,126 C35.56,129.6 38.53,134.81 34.55,132.95 C30.57,131.1 30.57,139.06 34.55,136.93 C38.53,134.81 35.53,140.4 36,144 M54,0 C54.11,3.6 52.69,8.75 56.67,6.93 C60.65,5.11 60.65,13.07 56.67,10.91 C52.69,8.75 54.68,14.4 54,18 C53.32,21.6 52.71,26.66 56.69,24.91 C60.67,23.15 60.67,31.11 56.69,28.89 C52.71,26.66 53.47,32.4 54,36 C54.53,39.6 51.93,44.71 55.91,42.58 C59.88,40.45 59.88,48.41 55.91,46.56 C51.93,44.71 54.59,50.4 54,54 C53.41,57.6 56.53,64.01 52.55,61.6 C48.57,59.19 48.57,67.14 52.55,65.58 C56.53,64.01 53.46,68.4 54,72 C54.54,75.6 56.44,82.21 52.47,79.71 C48.49,77.21 48.49,85.16 52.47,83.68 C56.44,82.21 54.3,86.4 54,90 C53.7,93.6 56.14,99.24 52.16,96.63 C48.18,94.03 48.18,101.99 52.16,100.61 C56.14,99.24 54.08,104.4 54,108 C53.92,111.6 51.41,116.51 55.39,114.33 C59.36,112.15 59.36,120.11 55.39,118.31 C51.41,116.51 53.46,122.4 54,126 C54.54,129.6 52.43,134.57 56.41,132.5 C60.39,130.43 60.39,138.39 56.41,136.48 C52.43,134.57 53.98,140.4 54,144 M72,0 C71.6,3.6 74.37,10.27 70.39,7.61 C66.41,4.94 66.41,12.9 70.39,11.58 C74.37,10.27 72.59,14.4 72,18 C71.41,21.6 69.82,27.11 73.8,25.67 C77.78,24.23 77.78,32.19 73.8,29.65 C69.82,27.11 72.43,32.4 72,36 C71.57,39.6 74.09,45 70.11,43.3 C66.14,41.6 66.14,49.56 70.11,47.28 C74.09,45 71.63,50.4 72,54 C72.37,57.6 70.53,63.56 74.51,61.33 C78.49,59.09 78.49,67.05 74.51,65.31 C70.53,63.56 72.19,68.4 72,72 C71.81,75.6 70.18,81.14 74.16,78.75 C78.14,76.35 78.14,84.31 74.16,82.73 C70.18,81.14 72.15,86.4 72,90 C71.85,93.6 74,99.71 70.02,97.05 C66.04,94.4 66.04,102.36 70.02,101.03 C74,99.71 71.76,104.4 72,108 C72.24,111.6 73.7,117.62 69.72,115.03 C65.75,112.44 65.75,120.4 69.72,119.01 C73.7,117.62 72.21,122.4 72,126 C71.79,129.6 69.78,134.12 73.75,132.49 C77.73,130.86 77.73,138.82 73.75,136.47 C69.78,134.12 72.43,140.4 72,144 M90,0 C89.6,3.6 87.59,10.03 91.57,7.48 C95.55,4.93 95.55,12.88 91.57,11.46 C87.59,10.03 90.69,14.4 90,18 C89.31,21.6 92.09,27.13 88.11,25.45 C84.13,23.77 84.13,31.73 88.11,29.43 C92.09,27.13 89.73,32.4 90,36 C90.27,39.6 91.64,45.11 87.66,43.25 C83.68,41.38 83.68,49.34 87.66,47.23 C91.64,45.11 90.02,50.4 90,54 C89.98,57.6 92.68,63.41 88.71,60.85 C84.73,58.29 84.73,66.25 88.71,64.83 C92.68,63.41 90.38,68.4 90,72 C89.62,75.6 92.33,80.68 88.35,78.4 C84.37,76.11 84.37,84.07 88.35,82.37 C92.33,80.68 89.72,86.4 90,90 C90.28,93.6 87.33,98.91 91.3,96.62 C95.28,94.32 95.28,102.28 91.3,100.59 C87.33,98.91 89.83,104.4 90,108 C90.17,111.6 88.7,116.34 92.68,115 C96.66,113.65 96.66,121.61 92.68,118.97 C88.7,116.34 90.13,122.4 90,126 C89.87,129.6 87.91,133.76 91.89,132.42 C95.87,131.08 95.87,139.03 91.89,136.4 C87.91,133.76 89.99,140.4 90,144 M108,0 C107.58,3.6 110.07,9.22 106.1,7 C102.12,4.78 102.12,12.73 106.1,10.98 C110.07,9.22 107.96,14.4 108,18 C108.04,21.6 106.09,26.94 110.07,25.39 C114.05,23.85 114.05,31.8 110.07,29.37 C106.09,26.94 108.2,32.4 108,36 C107.8,39.6 110.66,44.77 106.69,42.64 C102.71,40.51 102.71,48.47 106.69,46.62 C110.66,44.77 107.3,50.4 108,54 C108.7,57.6 106.13,63.03 110.11,61.32 C114.09,59.6 114.09,67.56 110.11,65.29 C106.13,63.03 108.07,68.4 108,72 C107.93,75.6 105.94,80.99 109.92,79.31 C113.9,77.63 113.9,85.58 109.92,83.28 C105.94,80.99 107.3,86.4 108,90 C108.7,93.6 105.72,99.32 109.7,96.98 C113.68,94.63 113.68,102.59 109.7,100.96 C105.72,99.32 107.53,104.4 108,108 C108.47,111.6 109.4,116.93 105.42,114.66 C101.44,112.39 101.44,120.35 105.42,118.64 C109.4,116.93 108.48,122.4 108,126 C107.52,129.6 106.57,135.36 110.55,133.01 C114.53,130.65 114.53,138.61 110.55,136.99 C106.57,135.36 108.49,140.4 108,144 M126,0 C126.4,3.6 123.68,9.54 127.66,7.43 C131.64,5.33 131.64,13.28 127.66,11.41 C123.68,9.54 125.61,14.4 126,18 C126.39,21.6 123.68,26.49 127.66,25.06 C131.64,23.64 131.64,31.6 127.66,29.04 C123.68,26.49 126.43,32.4 126,36 C125.57,39.6 124.02,44.36 128,42.75 C131.97,41.15 131.97,49.1 128,46.73 C124.02,44.36 126.04,50.4 126,54 C125.96,57.6 123.57,63.18 127.54,61.1 C131.52,59.01 131.52,66.97 127.54,65.08 C123.57,63.18 126.26,68.4 126,72 C125.74,75.6 128.31,82.06 124.33,79.71 C120.36,77.35 120.36,85.31 124.33,83.69 C128.31,82.06 126.39,86.4 126,90 C125.61,93.6 124.68,98.4 128.66,96.73 C132.63,95.07 132.63,103.02 128.66,100.71 C124.68,98.4 126.4,104.4 126,108 C125.6,111.6 124.07,117.39 128.05,114.71 C132.02,112.03 132.02,119.99 128.05,118.69 C124.07,117.39 125.28,122.4 126,126 C126.72,129.6 124.62,135.61 128.6,132.92 C132.58,130.23 132.58,138.18 128.6,136.9 C124.62,135.61 125.37,140.4 126,144 M0,0 L144,0 L144,144 L0,144 L0,0 "></path></svg>