<svg xmlns="http://www.w3.org/2000/svg" version="1.0" width="144mm" height="144mm" viewBox="0 0 144 144"><path fill="none" stroke="black" stroke-width="0.1" d="M0,18 C3.6,17.85 9.43,21 6.85,17.03 C4.26,13.05 12.22,13.05 10.82,17.03 C9.43,21 14.4,19.21 18,18 C21.6,16.79 26.97,14.82 23.84,18.8 C20.72,22.78 28.67,22.78 27.82,18.8 C26.97,14.82 32.4,16.61 36,18 C39.6,19.39 43.81,19.76 41.7,15.78 C39.6,11.8 47.55,11.8 45.68,15.78 C43.81,19.76 50.4,19.2 54,18 C57.6,16.8 62.78,14.69 61.5,18.66 C60.22,22.64 68.18,22.64 65.48,18.66 C62.78,14.69 68.4,18.54 72,18 C75.6,17.46 82.67,15.32 80.25,19.29 C77.82,23.27 85.78,23.27 84.23,19.29 C82.67,15.32 86.4,18.48 90,18 C93.6,17.52 99.59,14.79 97.27,18.76 C94.95,22.74 102.9,22.74 101.25,18.76 C99.59,14.79 104.4,18.96 108,18 C111.6,17.04 117.93,20.04 115.85,16.06 C113.78,12.08 121.73,12.08 119.83,16.06 C117.93,20.04 122.4,18.74 126,18 C129.6,17.26 134.92,16.41 133.53,20.39 C132.14,24.36 140.09,24.36 137.51,20.39 C134.92,16.41 140.4,18.27 144,18 M0,36 C3.6,37.22 9.12,32.64 7.72,36.62 C6.31,40.6 14.27,40.6 11.7,36.62 C9.12,32.64 14.4,37.13 18,36 C21.6,34.87 28.16,38.92 24.83,34.94 C21.51,30.96 29.46,30.96 28.81,34.94 C28.16,38.92 32.4,35.64 36,36 C39.6,36.36 47.01,34.63 43.7,38.61 C40.4,42.59 48.35,42.59 47.68,38.61 C47.01,34.63 50.4,35.64 54,36 C57.6,36.36 61.54,38.92 60.94,34.95 C60.34,30.97 68.29,30.97 64.92,34.95 C61.54,38.92 68.4,35.27 72,36 C75.6,36.73 80.86,37.54 78.63,33.57 C76.4,29.59 84.36,29.59 82.61,33.57 C80.86,37.54 86.4,37.21 90,36 C93.6,34.79 97.89,37.06 96.67,33.08 C95.44,29.1 103.4,29.1 100.64,33.08 C97.89,37.06 104.4,37.23 108,36 C111.6,34.77 118.39,33.1 114.98,37.08 C111.57,41.06 119.52,41.06 118.96,37.08 C118.39,33.1 122.4,36.64 126,36 C129.6,35.36 134.34,39.39 132.52,35.42 C130.69,31.44 138.65,31.44 136.49,35.42 C134.34,39.39 140.4,35.67 144,36 M0,54 C3.6,52.99 8.29,52.2 7.4,56.18 C6.51,60.15 14.46,60.15 11.38,56.18 C8.29,52.2 14.4,53.92 18,54 C21.6,54.08 26.9,50.91 24.35,54.89 C21.8,58.87 29.75,58.87 28.32,54.89 C26.9,50.91 32.4,54.63 36,54 C39.6,53.37 43.68,52.27 42.58,56.25 C41.49,60.23 49.45,60.23 46.56,56.25 C43.68,52.27 50.4,55.29 54,54 C57.6,52.71 62.5,57.18 60.52,53.2 C58.55,49.23 66.51,49.23 64.5,53.2 C62.5,57.18 68.4,53.29 72,54 C75.6,54.71 82.03,51.97 80.31,55.95 C78.58,59.93 86.54,59.93 84.29,55.95 C82.03,51.97 86.4,53.34 90,54 C93.6,54.66 99.93,51.22 96.83,55.2 C93.74,59.18 101.69,59.18 100.81,55.2 C99.93,51.22 104.4,54.17 108,54 C111.6,53.83 116.87,50.8 113.89,54.77 C110.91,58.75 118.87,58.75 117.87,54.77 C116.87,50.8 122.4,55.07 126,54 C129.6,52.93 133.38,56.73 132.6,52.75 C131.82,48.77 139.78,48.77 136.58,52.75 C133.38,56.73 140.4,54.59 144,54 M0,72 C3.6,70.75 11.26,68.7 8.2,72.68 C5.14,76.65 13.1,76.65 12.18,72.68 C11.26,68.7 14.4,71.76 18,72 C21.6,72.24 24.6,70.06 24,74.04 C23.4,78.01 31.35,78.01 27.98,74.04 C24.6,70.06 32.4,72.58 36,72 C39.6,71.42 45.86,70.42 42.65,74.4 C39.43,78.38 47.39,78.38 46.63,74.4 C45.86,70.42 50.4,71.93 54,72 C57.6,72.07 65.66,73.33 62.43,69.36 C59.21,65.38 67.17,65.38 66.41,69.36 C65.66,73.33 68.4,72.67 72,72 C75.6,71.33 81.5,74.62 80.31,70.64 C79.11,66.67 87.07,66.67 84.28,70.64 C81.5,74.62 86.4,73.22 90,72 C93.6,70.78 99.32,70.86 97.97,74.84 C96.62,78.81 104.58,78.81 101.95,74.84 C99.32,70.86 104.4,71.68 108,72 C111.6,72.32 116.04,72.69 113.61,68.71 C111.17,64.73 119.13,64.73 117.58,68.71 C116.04,72.69 122.4,73.27 126,72 C129.6,70.73 136.91,75.04 134.44,71.06 C131.96,67.09 139.92,67.09 138.42,71.06 C136.91,75.04 140.4,73.24 144,72 M0,90 C3.6,90.6 9.15,87.61 6.77,91.58 C4.39,95.56 12.34,95.56 10.74,91.58 C9.15,87.61 14.4,90.06 18,90 C21.6,89.94 27.62,86.63 25.87,90.61 C24.11,94.59 32.07,94.59 29.84,90.61 C27.62,86.63 32.4,89.21 36,90 C39.6,90.79 44.02,91.95 42.27,87.98 C40.52,84 48.48,84 46.25,87.98 C44.02,91.95 50.4,90.32 54,90 C57.6,89.68 61.22,88.16 59.96,92.14 C58.71,96.12 66.66,96.12 63.94,92.14 C61.22,88.16 68.4,89.9 72,90 C75.6,90.1 80.06,86.88 79.11,90.85 C78.17,94.83 86.12,94.83 83.09,90.85 C80.06,86.88 86.4,88.59 90,90 C93.6,91.41 98.89,88.84 96.87,92.82 C94.86,96.8 102.81,96.8 100.85,92.82 C98.89,88.84 104.4,89.13 108,90 C111.6,90.87 118.69,91.77 116.42,87.79 C114.14,83.81 122.1,83.81 120.4,87.79 C118.69,91.77 122.4,88.58 126,90 C129.6,91.42 134.91,87.38 133.98,91.36 C133.05,95.34 141.01,95.34 137.96,91.36 C134.91,87.38 140.4,89.83 144,90 M0,108 C3.6,109.18 9.83,106.88 7.18,110.86 C4.53,114.84 12.48,114.84 11.16,110.86 C9.83,106.88 14.4,107.71 18,108 C21.6,108.29 28.62,106.56 26.34,110.54 C24.06,114.52 32.01,114.52 30.31,110.54 C28.62,106.56 32.4,109.14 36,108 C39.6,106.86 44.33,106.45 42.94,110.43 C41.55,114.41 49.51,114.41 46.92,110.43 C44.33,106.45 50.4,106.59 54,108 C57.6,109.41 63.99,108.56 61.61,104.58 C59.23,100.6 67.18,100.6 65.59,104.58 C63.99,108.56 68.4,108.9 72,108 C75.6,107.1 83.47,105.89 80.15,109.87 C76.83,113.84 84.79,113.84 84.13,109.87 C83.47,105.89 86.4,108.63 90,108 C93.6,107.37 100.02,105.69 96.94,109.67 C93.87,113.65 101.82,113.65 100.92,109.67 C100.02,105.69 104.4,108.68 108,108 C111.6,107.32 114.92,111.37 114.35,107.39 C113.78,103.41 121.73,103.41 118.32,107.39 C114.92,111.37 122.4,109.02 126,108 C129.6,106.98 134.52,106.53 132.84,110.51 C131.16,114.49 139.11,114.49 136.82,110.51 C134.52,106.53 140.4,107.9 144,108 M0,126 C3.6,126.9 8.63,126.91 6.23,122.93 C3.82,118.95 11.78,118.95 10.2,122.93 C8.63,126.91 14.4,124.92 18,126 C21.6,127.08 27.84,126.81 25.93,122.83 C24.01,118.85 31.97,118.85 29.91,122.83 C27.84,126.81 32.4,126.94 36,126 C39.6,125.06 44.53,127.96 43.77,123.98 C43.01,120 50.97,120 47.75,123.98 C44.53,127.96 50.4,126.59 54,126 C57.6,125.41 63.32,129.05 62.36,125.07 C61.41,121.09 69.37,121.09 66.34,125.07 C63.32,129.05 68.4,125.95 72,126 C75.6,126.05 83.24,122.84 80.44,126.82 C77.64,130.8 85.59,130.8 84.42,126.82 C83.24,122.84 86.4,126.12 90,126 C93.6,125.88 98.83,126.67 97.85,122.69 C96.87,118.72 104.83,118.72 101.83,122.69 C98.83,126.67 104.4,125.82 108,126 C111.6,126.18 117.95,124.34 116.39,128.32 C114.83,132.29 122.79,132.29 120.37,128.32 C117.95,124.34 122.4,124.96 126,126 C129.6,127.04 133.35,127.04 132.22,123.06 C131.08,119.09 139.04,119.09 136.19,123.06 C133.35,127.04 140.4,126.21 144,126 M18,0 C18.6,3.6 14.92,9.63 18.9,8.39 C22.88,7.15 22.88,15.11 18.9,12.37 C14.92,9.63 17.03,14.4 18,18 C18.97,21.6 16.12,27.63 20.1,25.04 C24.07,22.45 24.07,30.41 20.1,29.02 C16.12,27.63 18.36,32.4 18,36 C17.64,39.6 21.26,43.92 17.28,42.56 C13.3,41.2 13.3,49.15 17.28,46.54 C21.26,43.92 18.3,50.4 18,54 C17.7,57.6 14.59,61.3 18.57,59.73 C22.55,58.15 22.55,66.1 18.57,63.7 C14.59,61.3 17.71,68.4 18,72 C18.29,75.6 19.55,81.02 15.58,78.41 C11.6,75.8 11.6,83.76 15.58,82.39 C19.55,81.02 18.32,86.4 18,90 C17.68,93.6 20.15,99.52 16.17,96.29 C12.2,93.05 12.2,101.01 16.17,100.27 C20.15,99.52 18.66,104.4 18,108 C17.34,111.6 15.33,115.44 19.3,114.49 C23.28,113.54 23.28,121.5 19.3,118.47 C15.33,115.44 19.01,122.4 18,126 C16.99,129.6 16.42,134.71 20.4,132.25 C24.37,129.8 24.37,137.76 20.4,136.23 C16.42,134.71 19.21,140.4 18,144 M36,0 C36.43,3.6 37.66,7.17 33.69,6.18 C29.71,5.19 29.71,13.15 33.69,10.16 C37.66,7.17 35.54,14.4 36,18 C36.46,21.6 37.08,26.15 33.11,24.87 C29.13,23.59 29.13,31.54 33.11,28.85 C37.08,26.15 35.59,32.4 36,36 C36.41,39.6 35.17,44.45 39.15,41.91 C43.12,39.37 43.12,47.32 39.15,45.88 C35.17,44.45 35.05,50.4 36,54 C36.95,57.6 33.19,63.24 37.17,62.17 C41.15,61.1 41.15,69.05 37.17,66.15 C33.19,63.24 36.74,68.4 36,72 C35.26,75.6 37.38,80.56 33.41,79.94 C29.43,79.32 29.43,87.28 33.41,83.92 C37.38,80.56 36.71,86.4 36,90 C35.29,93.6 36.97,98.55 32.99,97.61 C29.01,96.67 29.01,104.63 32.99,101.59 C36.97,98.55 34.61,104.4 36,108 C37.39,111.6 38.8,115.47 34.82,114.49 C30.85,113.51 30.85,121.46 34.82,118.47 C38.8,115.47 36.89,122.4 36,126 C35.11,129.6 39.06,134.61 35.08,132.9 C31.11,131.19 31.11,139.14 35.08,136.88 C39.06,134.61 35.06,140.4 36,144 M54,0 C54.23,3.6 53.38,8.49 57.35,6.85 C61.33,5.21 61.33,13.16 57.35,10.83 C53.38,8.49 55.35,14.4 54,18 C52.65,21.6 53.41,26.32 57.39,24.8 C61.36,23.28 61.36,31.24 57.39,28.78 C53.41,26.32 52.94,32.4 54,36 C55.06,39.6 51.85,44.42 55.82,42.15 C59.8,39.88 59.8,47.84 55.82,46.13 C51.85,44.42 55.18,50.4 54,54 C52.82,57.6 57.07,65.02 53.09,62.18 C49.11,59.35 49.11,67.31 53.09,66.16 C57.07,65.02 52.91,68.4 54,72 C55.09,75.6 56.9,83.41 52.92,80.4 C48.94,77.39 48.94,85.35 52.92,84.38 C56.9,83.41 54.61,86.4 54,90 C53.39,93.6 56.28,99.47 52.3,96.26 C48.33,93.05 48.33,101 52.3,100.24 C56.28,99.47 54.16,104.4 54,108 C53.84,111.6 50.81,116.02 54.78,113.65 C58.76,111.29 58.76,119.24 54.78,117.63 C50.81,116.02 52.92,122.4 54,126 C55.08,129.6 52.85,134.15 56.83,131.99 C60.81,129.84 60.81,137.8 56.83,135.97 C52.85,134.15 53.96,140.4 54,144 M72,0 C71.21,3.6 74.74,11.54 70.77,8.2 C66.79,4.86 66.79,12.81 70.77,12.18 C74.74,11.54 73.18,14.4 72,18 C70.82,21.6 69.64,27.23 73.61,26.33 C77.59,25.44 77.59,33.4 73.61,30.31 C69.64,27.23 72.86,32.4 72,36 C71.14,39.6 74.19,45.01 70.22,43.59 C66.24,42.18 66.24,50.13 70.22,47.57 C74.19,45.01 71.25,50.4 72,54 C72.75,57.6 71.06,64.12 75.04,61.65 C79.01,59.17 79.01,67.12 75.04,65.62 C71.06,64.12 72.37,68.4 72,72 C71.63,75.6 70.35,81.28 74.33,78.48 C78.31,75.69 78.31,83.64 74.33,82.46 C70.35,81.28 72.3,86.4 72,90 C71.7,93.6 74.01,100.41 70.03,97.1 C66.05,93.78 66.05,101.74 70.03,101.08 C74.01,100.41 71.52,104.4 72,108 C72.48,111.6 73.42,118.23 69.44,115.04 C65.46,111.86 65.46,119.81 69.44,119.02 C73.42,118.23 72.42,122.4 72,126 C71.58,129.6 69.54,133.24 73.52,131.97 C77.5,130.71 77.5,138.66 73.52,135.95 C69.54,133.24 72.85,140.4 72,144 M90,0 C89.2,3.6 87.17,11.06 91.15,7.95 C95.13,4.83 95.13,12.79 91.15,11.92 C87.17,11.06 91.37,14.4 90,18 C88.63,21.6 92.19,27.26 88.21,25.89 C84.23,24.53 84.23,32.48 88.21,29.87 C92.19,27.26 89.46,32.4 90,36 C90.54,39.6 91.29,45.23 87.31,43.48 C83.33,41.74 83.33,49.7 87.31,47.46 C91.29,45.23 90.05,50.4 90,54 C89.95,57.6 93.38,63.81 89.4,60.69 C85.42,57.56 85.42,65.52 89.4,64.67 C93.38,63.81 90.75,68.4 90,72 C89.25,75.6 92.67,80.36 88.69,77.78 C84.72,75.21 84.72,83.16 88.69,81.76 C92.67,80.36 89.44,86.4 90,90 C90.56,93.6 86.64,98.82 90.62,96.22 C94.6,93.63 94.6,101.58 90.62,100.2 C86.64,98.82 89.66,104.4 90,108 C90.34,111.6 89.39,115.68 93.37,114.98 C97.35,114.28 97.35,122.23 93.37,118.96 C89.39,115.68 90.26,122.4 90,126 C89.74,129.6 87.81,132.52 91.79,131.82 C95.76,131.13 95.76,139.08 91.79,135.8 C87.81,132.52 89.98,140.4 90,144 M108,0 C107.17,3.6 110.16,9.44 106.18,6.99 C102.2,4.53 102.2,12.49 106.18,10.97 C110.16,9.44 107.92,14.4 108,18 C108.08,21.6 106.17,26.88 110.15,25.78 C114.13,24.67 114.13,32.63 110.15,29.75 C106.17,26.88 108.4,32.4 108,36 C107.6,39.6 111.34,44.53 107.36,42.27 C103.38,40.01 103.38,47.96 107.36,46.25 C111.34,44.53 106.6,50.4 108,54 C109.4,57.6 106.26,63.07 110.24,61.62 C114.21,60.18 114.21,68.14 110.24,65.6 C106.26,63.07 108.15,68.4 108,72 C107.85,75.6 105.88,80.97 109.85,79.6 C113.83,78.23 113.83,86.18 109.85,83.58 C105.88,80.97 106.61,86.4 108,90 C109.39,93.6 105.44,99.65 109.42,96.95 C113.39,94.24 113.39,102.2 109.42,100.92 C105.44,99.65 107.06,104.4 108,108 C108.94,111.6 108.81,116.85 104.83,114.31 C100.85,111.76 100.85,119.72 104.83,118.28 C108.81,116.85 108.96,122.4 108,126 C107.04,129.6 107.14,135.73 111.12,133 C115.09,130.28 115.09,138.24 111.12,136.98 C107.14,135.73 108.99,140.4 108,144 M126,0 C126.8,3.6 123.35,10.08 127.33,7.85 C131.31,5.63 131.31,13.59 127.33,11.83 C123.35,10.08 125.22,14.4 126,18 C126.78,21.6 123.35,25.97 127.33,25.12 C131.31,24.26 131.31,32.22 127.33,29.1 C123.35,25.97 126.86,32.4 126,36 C125.14,39.6 124.02,43.72 128,42.49 C131.98,41.27 131.98,49.23 128,46.47 C124.02,43.72 126.08,50.4 126,54 C125.92,57.6 123.12,63.36 127.1,61.18 C131.08,59.01 131.08,66.96 127.1,65.16 C123.12,63.36 126.51,68.4 126,72 C125.49,75.6 128.64,83.13 124.66,80.4 C120.68,77.68 120.68,85.64 124.66,84.38 C128.64,83.13 126.78,86.4 126,90 C125.22,93.6 125.34,97.81 129.32,96.46 C133.3,95.11 133.3,103.07 129.32,100.44 C125.34,97.81 126.79,104.4 126,108 C125.21,111.6 124.12,117.78 128.1,114.41 C132.08,111.04 132.08,119 128.1,118.39 C124.12,117.78 124.57,122.4 126,126 C127.43,129.6 125.24,136.22 129.21,132.83 C133.19,129.43 133.19,137.39 129.21,136.8 C125.24,136.22 124.74,140.4 126,144 M0,0 L144,0 L144,144 L0,144 L0,0 "></path></svg>